%TF.GenerationSoftware,KiCad,Pcbnew,(5.1.12-1-10_14)*%
%TF.CreationDate,2021-12-06T02:25:41+01:00*%
%TF.ProjectId,contraddictionLamp_signals,636f6e74-7261-4646-9469-6374696f6e4c,1*%
%TF.SameCoordinates,Original*%
%TF.FileFunction,Copper,L1,Top*%
%TF.FilePolarity,Positive*%
%FSLAX46Y46*%
G04 Gerber Fmt 4.6, Leading zero omitted, Abs format (unit mm)*
G04 Created by KiCad (PCBNEW (5.1.12-1-10_14)) date 2021-12-06 02:25:41*
%MOMM*%
%LPD*%
G01*
G04 APERTURE LIST*
%TA.AperFunction,ComponentPad*%
%ADD10O,1.400000X1.400000*%
%TD*%
%TA.AperFunction,ComponentPad*%
%ADD11C,1.400000*%
%TD*%
%TA.AperFunction,ComponentPad*%
%ADD12O,1.350000X1.350000*%
%TD*%
%TA.AperFunction,ComponentPad*%
%ADD13R,1.350000X1.350000*%
%TD*%
%TA.AperFunction,Conductor*%
%ADD14C,0.250000*%
%TD*%
%TA.AperFunction,Conductor*%
%ADD15C,0.254000*%
%TD*%
%TA.AperFunction,Conductor*%
%ADD16C,0.100000*%
%TD*%
G04 APERTURE END LIST*
D10*
%TO.P,R1,2*%
%TO.N,Net-(J4-Pad2)*%
X116205000Y-92075000D03*
D11*
%TO.P,R1,1*%
%TO.N,/Gnd*%
X111125000Y-92075000D03*
%TD*%
D12*
%TO.P,J4,3*%
%TO.N,Net-(J4-Pad2)*%
X111570000Y-95250000D03*
%TO.P,J4,2*%
X113570000Y-95250000D03*
D13*
%TO.P,J4,1*%
%TO.N,/+5v*%
X115570000Y-95250000D03*
%TD*%
D12*
%TO.P,J3,7*%
%TO.N,/+5v*%
X119380000Y-79440000D03*
%TO.P,J3,6*%
X119380000Y-81440000D03*
%TO.P,J3,5*%
X119380000Y-83440000D03*
%TO.P,J3,4*%
X119380000Y-85440000D03*
%TO.P,J3,3*%
X119380000Y-87440000D03*
%TO.P,J3,2*%
X119380000Y-89440000D03*
D13*
%TO.P,J3,1*%
X119380000Y-91440000D03*
%TD*%
D12*
%TO.P,J2,2*%
%TO.N,/+5v*%
X114395000Y-79375000D03*
D13*
%TO.P,J2,1*%
%TO.N,/Gnd*%
X112395000Y-79375000D03*
%TD*%
D12*
%TO.P,J1,7*%
%TO.N,/Gnd*%
X107315000Y-79440000D03*
%TO.P,J1,6*%
X107315000Y-81440000D03*
%TO.P,J1,5*%
X107315000Y-83440000D03*
%TO.P,J1,4*%
X107315000Y-85440000D03*
%TO.P,J1,3*%
X107315000Y-87440000D03*
%TO.P,J1,2*%
X107315000Y-89440000D03*
D13*
%TO.P,J1,1*%
X107315000Y-91440000D03*
%TD*%
D14*
%TO.N,/Gnd*%
X112330000Y-79440000D02*
X112395000Y-79375000D01*
X107315000Y-79440000D02*
X112330000Y-79440000D01*
X107315000Y-79440000D02*
X107315000Y-91440000D01*
X110490000Y-91440000D02*
X111125000Y-92075000D01*
X107315000Y-91440000D02*
X110490000Y-91440000D01*
%TO.N,/+5v*%
X115570000Y-95250000D02*
X119380000Y-91440000D01*
X119380000Y-91440000D02*
X119380000Y-79440000D01*
X114460000Y-79440000D02*
X114395000Y-79375000D01*
X119380000Y-79440000D02*
X114460000Y-79440000D01*
%TO.N,Net-(J4-Pad2)*%
X113570000Y-94710000D02*
X113570000Y-95250000D01*
X116205000Y-92075000D02*
X113570000Y-94710000D01*
X113570000Y-95250000D02*
X111570000Y-95250000D01*
%TD*%
D15*
%TO.N,/Gnd*%
X122428000Y-97028000D02*
X104267000Y-97028000D01*
X104267000Y-95120976D01*
X110260000Y-95120976D01*
X110260000Y-95379024D01*
X110310342Y-95632113D01*
X110409093Y-95870518D01*
X110552456Y-96085077D01*
X110734923Y-96267544D01*
X110949482Y-96410907D01*
X111187887Y-96509658D01*
X111440976Y-96560000D01*
X111699024Y-96560000D01*
X111952113Y-96509658D01*
X112190518Y-96410907D01*
X112405077Y-96267544D01*
X112570000Y-96102621D01*
X112734923Y-96267544D01*
X112949482Y-96410907D01*
X113187887Y-96509658D01*
X113440976Y-96560000D01*
X113699024Y-96560000D01*
X113952113Y-96509658D01*
X114190518Y-96410907D01*
X114372513Y-96289303D01*
X114443815Y-96376185D01*
X114540506Y-96455537D01*
X114650820Y-96514502D01*
X114770518Y-96550812D01*
X114895000Y-96563072D01*
X116245000Y-96563072D01*
X116369482Y-96550812D01*
X116489180Y-96514502D01*
X116599494Y-96455537D01*
X116696185Y-96376185D01*
X116775537Y-96279494D01*
X116834502Y-96169180D01*
X116870812Y-96049482D01*
X116883072Y-95925000D01*
X116883072Y-95011729D01*
X119141730Y-92753072D01*
X120055000Y-92753072D01*
X120179482Y-92740812D01*
X120299180Y-92704502D01*
X120409494Y-92645537D01*
X120506185Y-92566185D01*
X120585537Y-92469494D01*
X120644502Y-92359180D01*
X120680812Y-92239482D01*
X120693072Y-92115000D01*
X120693072Y-90765000D01*
X120680812Y-90640518D01*
X120644502Y-90520820D01*
X120585537Y-90410506D01*
X120506185Y-90313815D01*
X120419303Y-90242513D01*
X120540907Y-90060518D01*
X120639658Y-89822113D01*
X120690000Y-89569024D01*
X120690000Y-89310976D01*
X120639658Y-89057887D01*
X120540907Y-88819482D01*
X120397544Y-88604923D01*
X120232621Y-88440000D01*
X120397544Y-88275077D01*
X120540907Y-88060518D01*
X120639658Y-87822113D01*
X120690000Y-87569024D01*
X120690000Y-87310976D01*
X120639658Y-87057887D01*
X120540907Y-86819482D01*
X120397544Y-86604923D01*
X120232621Y-86440000D01*
X120397544Y-86275077D01*
X120540907Y-86060518D01*
X120639658Y-85822113D01*
X120690000Y-85569024D01*
X120690000Y-85310976D01*
X120639658Y-85057887D01*
X120540907Y-84819482D01*
X120397544Y-84604923D01*
X120232621Y-84440000D01*
X120397544Y-84275077D01*
X120540907Y-84060518D01*
X120639658Y-83822113D01*
X120690000Y-83569024D01*
X120690000Y-83310976D01*
X120639658Y-83057887D01*
X120540907Y-82819482D01*
X120397544Y-82604923D01*
X120232621Y-82440000D01*
X120397544Y-82275077D01*
X120540907Y-82060518D01*
X120639658Y-81822113D01*
X120690000Y-81569024D01*
X120690000Y-81310976D01*
X120639658Y-81057887D01*
X120540907Y-80819482D01*
X120397544Y-80604923D01*
X120232621Y-80440000D01*
X120397544Y-80275077D01*
X120540907Y-80060518D01*
X120639658Y-79822113D01*
X120690000Y-79569024D01*
X120690000Y-79310976D01*
X120639658Y-79057887D01*
X120540907Y-78819482D01*
X120397544Y-78604923D01*
X120215077Y-78422456D01*
X120000518Y-78279093D01*
X119762113Y-78180342D01*
X119509024Y-78130000D01*
X119250976Y-78130000D01*
X118997887Y-78180342D01*
X118759482Y-78279093D01*
X118544923Y-78422456D01*
X118362456Y-78604923D01*
X118312291Y-78680000D01*
X115506140Y-78680000D01*
X115412544Y-78539923D01*
X115230077Y-78357456D01*
X115015518Y-78214093D01*
X114777113Y-78115342D01*
X114524024Y-78065000D01*
X114265976Y-78065000D01*
X114012887Y-78115342D01*
X113774482Y-78214093D01*
X113592487Y-78335697D01*
X113521185Y-78248815D01*
X113424494Y-78169463D01*
X113314180Y-78110498D01*
X113194482Y-78074188D01*
X113070000Y-78061928D01*
X112680750Y-78065000D01*
X112522000Y-78223750D01*
X112522000Y-79248000D01*
X112542000Y-79248000D01*
X112542000Y-79502000D01*
X112522000Y-79502000D01*
X112522000Y-80526250D01*
X112680750Y-80685000D01*
X113070000Y-80688072D01*
X113194482Y-80675812D01*
X113314180Y-80639502D01*
X113424494Y-80580537D01*
X113521185Y-80501185D01*
X113592487Y-80414303D01*
X113774482Y-80535907D01*
X114012887Y-80634658D01*
X114265976Y-80685000D01*
X114524024Y-80685000D01*
X114777113Y-80634658D01*
X115015518Y-80535907D01*
X115230077Y-80392544D01*
X115412544Y-80210077D01*
X115419277Y-80200000D01*
X118312291Y-80200000D01*
X118362456Y-80275077D01*
X118527379Y-80440000D01*
X118362456Y-80604923D01*
X118219093Y-80819482D01*
X118120342Y-81057887D01*
X118070000Y-81310976D01*
X118070000Y-81569024D01*
X118120342Y-81822113D01*
X118219093Y-82060518D01*
X118362456Y-82275077D01*
X118527379Y-82440000D01*
X118362456Y-82604923D01*
X118219093Y-82819482D01*
X118120342Y-83057887D01*
X118070000Y-83310976D01*
X118070000Y-83569024D01*
X118120342Y-83822113D01*
X118219093Y-84060518D01*
X118362456Y-84275077D01*
X118527379Y-84440000D01*
X118362456Y-84604923D01*
X118219093Y-84819482D01*
X118120342Y-85057887D01*
X118070000Y-85310976D01*
X118070000Y-85569024D01*
X118120342Y-85822113D01*
X118219093Y-86060518D01*
X118362456Y-86275077D01*
X118527379Y-86440000D01*
X118362456Y-86604923D01*
X118219093Y-86819482D01*
X118120342Y-87057887D01*
X118070000Y-87310976D01*
X118070000Y-87569024D01*
X118120342Y-87822113D01*
X118219093Y-88060518D01*
X118362456Y-88275077D01*
X118527379Y-88440000D01*
X118362456Y-88604923D01*
X118219093Y-88819482D01*
X118120342Y-89057887D01*
X118070000Y-89310976D01*
X118070000Y-89569024D01*
X118120342Y-89822113D01*
X118219093Y-90060518D01*
X118340697Y-90242513D01*
X118253815Y-90313815D01*
X118174463Y-90410506D01*
X118115498Y-90520820D01*
X118079188Y-90640518D01*
X118066928Y-90765000D01*
X118066928Y-91678270D01*
X117540000Y-92205198D01*
X117540000Y-91943514D01*
X117488696Y-91685595D01*
X117388061Y-91442641D01*
X117241962Y-91223987D01*
X117056013Y-91038038D01*
X116837359Y-90891939D01*
X116594405Y-90791304D01*
X116336486Y-90740000D01*
X116073514Y-90740000D01*
X115815595Y-90791304D01*
X115572641Y-90891939D01*
X115353987Y-91038038D01*
X115168038Y-91223987D01*
X115021939Y-91442641D01*
X114921304Y-91685595D01*
X114870000Y-91943514D01*
X114870000Y-92206486D01*
X114891355Y-92313843D01*
X113221554Y-93983645D01*
X113187887Y-93990342D01*
X112949482Y-94089093D01*
X112734923Y-94232456D01*
X112570000Y-94397379D01*
X112405077Y-94232456D01*
X112190518Y-94089093D01*
X111952113Y-93990342D01*
X111699024Y-93940000D01*
X111440976Y-93940000D01*
X111187887Y-93990342D01*
X110949482Y-94089093D01*
X110734923Y-94232456D01*
X110552456Y-94414923D01*
X110409093Y-94629482D01*
X110310342Y-94867887D01*
X110260000Y-95120976D01*
X104267000Y-95120976D01*
X104267000Y-92996269D01*
X110383336Y-92996269D01*
X110442797Y-93230037D01*
X110681242Y-93340934D01*
X110936740Y-93403183D01*
X111199473Y-93414390D01*
X111459344Y-93374125D01*
X111706366Y-93283935D01*
X111807203Y-93230037D01*
X111866664Y-92996269D01*
X111125000Y-92254605D01*
X110383336Y-92996269D01*
X104267000Y-92996269D01*
X104267000Y-92115000D01*
X106001928Y-92115000D01*
X106014188Y-92239482D01*
X106050498Y-92359180D01*
X106109463Y-92469494D01*
X106188815Y-92566185D01*
X106285506Y-92645537D01*
X106395820Y-92704502D01*
X106515518Y-92740812D01*
X106640000Y-92753072D01*
X107029250Y-92750000D01*
X107188000Y-92591250D01*
X107188000Y-91567000D01*
X107442000Y-91567000D01*
X107442000Y-92591250D01*
X107600750Y-92750000D01*
X107990000Y-92753072D01*
X108114482Y-92740812D01*
X108234180Y-92704502D01*
X108344494Y-92645537D01*
X108441185Y-92566185D01*
X108520537Y-92469494D01*
X108579502Y-92359180D01*
X108615812Y-92239482D01*
X108624676Y-92149473D01*
X109785610Y-92149473D01*
X109825875Y-92409344D01*
X109916065Y-92656366D01*
X109969963Y-92757203D01*
X110203731Y-92816664D01*
X110945395Y-92075000D01*
X111304605Y-92075000D01*
X112046269Y-92816664D01*
X112280037Y-92757203D01*
X112390934Y-92518758D01*
X112453183Y-92263260D01*
X112464390Y-92000527D01*
X112424125Y-91740656D01*
X112333935Y-91493634D01*
X112280037Y-91392797D01*
X112046269Y-91333336D01*
X111304605Y-92075000D01*
X110945395Y-92075000D01*
X110203731Y-91333336D01*
X109969963Y-91392797D01*
X109859066Y-91631242D01*
X109796817Y-91886740D01*
X109785610Y-92149473D01*
X108624676Y-92149473D01*
X108628072Y-92115000D01*
X108625000Y-91725750D01*
X108466250Y-91567000D01*
X107442000Y-91567000D01*
X107188000Y-91567000D01*
X106163750Y-91567000D01*
X106005000Y-91725750D01*
X106001928Y-92115000D01*
X104267000Y-92115000D01*
X104267000Y-90765000D01*
X106001928Y-90765000D01*
X106005000Y-91154250D01*
X106163750Y-91313000D01*
X107188000Y-91313000D01*
X107188000Y-89567000D01*
X107442000Y-89567000D01*
X107442000Y-91313000D01*
X108466250Y-91313000D01*
X108625000Y-91154250D01*
X108625004Y-91153731D01*
X110383336Y-91153731D01*
X111125000Y-91895395D01*
X111866664Y-91153731D01*
X111807203Y-90919963D01*
X111568758Y-90809066D01*
X111313260Y-90746817D01*
X111050527Y-90735610D01*
X110790656Y-90775875D01*
X110543634Y-90866065D01*
X110442797Y-90919963D01*
X110383336Y-91153731D01*
X108625004Y-91153731D01*
X108628072Y-90765000D01*
X108615812Y-90640518D01*
X108579502Y-90520820D01*
X108520537Y-90410506D01*
X108441185Y-90313815D01*
X108347441Y-90236881D01*
X108444473Y-90103629D01*
X108552238Y-89870528D01*
X108582910Y-89769400D01*
X108459224Y-89567000D01*
X107442000Y-89567000D01*
X107188000Y-89567000D01*
X106170776Y-89567000D01*
X106047090Y-89769400D01*
X106077762Y-89870528D01*
X106185527Y-90103629D01*
X106282559Y-90236881D01*
X106188815Y-90313815D01*
X106109463Y-90410506D01*
X106050498Y-90520820D01*
X106014188Y-90640518D01*
X106001928Y-90765000D01*
X104267000Y-90765000D01*
X104267000Y-87769400D01*
X106047090Y-87769400D01*
X106077762Y-87870528D01*
X106185527Y-88103629D01*
X106336697Y-88311227D01*
X106476304Y-88440000D01*
X106336697Y-88568773D01*
X106185527Y-88776371D01*
X106077762Y-89009472D01*
X106047090Y-89110600D01*
X106170776Y-89313000D01*
X107188000Y-89313000D01*
X107188000Y-87567000D01*
X107442000Y-87567000D01*
X107442000Y-89313000D01*
X108459224Y-89313000D01*
X108582910Y-89110600D01*
X108552238Y-89009472D01*
X108444473Y-88776371D01*
X108293303Y-88568773D01*
X108153696Y-88440000D01*
X108293303Y-88311227D01*
X108444473Y-88103629D01*
X108552238Y-87870528D01*
X108582910Y-87769400D01*
X108459224Y-87567000D01*
X107442000Y-87567000D01*
X107188000Y-87567000D01*
X106170776Y-87567000D01*
X106047090Y-87769400D01*
X104267000Y-87769400D01*
X104267000Y-85769400D01*
X106047090Y-85769400D01*
X106077762Y-85870528D01*
X106185527Y-86103629D01*
X106336697Y-86311227D01*
X106476304Y-86440000D01*
X106336697Y-86568773D01*
X106185527Y-86776371D01*
X106077762Y-87009472D01*
X106047090Y-87110600D01*
X106170776Y-87313000D01*
X107188000Y-87313000D01*
X107188000Y-85567000D01*
X107442000Y-85567000D01*
X107442000Y-87313000D01*
X108459224Y-87313000D01*
X108582910Y-87110600D01*
X108552238Y-87009472D01*
X108444473Y-86776371D01*
X108293303Y-86568773D01*
X108153696Y-86440000D01*
X108293303Y-86311227D01*
X108444473Y-86103629D01*
X108552238Y-85870528D01*
X108582910Y-85769400D01*
X108459224Y-85567000D01*
X107442000Y-85567000D01*
X107188000Y-85567000D01*
X106170776Y-85567000D01*
X106047090Y-85769400D01*
X104267000Y-85769400D01*
X104267000Y-85369271D01*
X110940209Y-85369271D01*
X110940209Y-85780923D01*
X111020518Y-86184667D01*
X111178051Y-86564984D01*
X111406753Y-86907261D01*
X111697836Y-87198344D01*
X112040113Y-87427046D01*
X112420430Y-87584579D01*
X112824174Y-87664888D01*
X113235826Y-87664888D01*
X113639570Y-87584579D01*
X114019887Y-87427046D01*
X114362164Y-87198344D01*
X114653247Y-86907261D01*
X114881949Y-86564984D01*
X115039482Y-86184667D01*
X115119791Y-85780923D01*
X115119791Y-85369271D01*
X115039482Y-84965527D01*
X114881949Y-84585210D01*
X114653247Y-84242933D01*
X114362164Y-83951850D01*
X114019887Y-83723148D01*
X113639570Y-83565615D01*
X113235826Y-83485306D01*
X112824174Y-83485306D01*
X112420430Y-83565615D01*
X112040113Y-83723148D01*
X111697836Y-83951850D01*
X111406753Y-84242933D01*
X111178051Y-84585210D01*
X111020518Y-84965527D01*
X110940209Y-85369271D01*
X104267000Y-85369271D01*
X104267000Y-83769400D01*
X106047090Y-83769400D01*
X106077762Y-83870528D01*
X106185527Y-84103629D01*
X106336697Y-84311227D01*
X106476304Y-84440000D01*
X106336697Y-84568773D01*
X106185527Y-84776371D01*
X106077762Y-85009472D01*
X106047090Y-85110600D01*
X106170776Y-85313000D01*
X107188000Y-85313000D01*
X107188000Y-83567000D01*
X107442000Y-83567000D01*
X107442000Y-85313000D01*
X108459224Y-85313000D01*
X108582910Y-85110600D01*
X108552238Y-85009472D01*
X108444473Y-84776371D01*
X108293303Y-84568773D01*
X108153696Y-84440000D01*
X108293303Y-84311227D01*
X108444473Y-84103629D01*
X108552238Y-83870528D01*
X108582910Y-83769400D01*
X108459224Y-83567000D01*
X107442000Y-83567000D01*
X107188000Y-83567000D01*
X106170776Y-83567000D01*
X106047090Y-83769400D01*
X104267000Y-83769400D01*
X104267000Y-81769400D01*
X106047090Y-81769400D01*
X106077762Y-81870528D01*
X106185527Y-82103629D01*
X106336697Y-82311227D01*
X106476304Y-82440000D01*
X106336697Y-82568773D01*
X106185527Y-82776371D01*
X106077762Y-83009472D01*
X106047090Y-83110600D01*
X106170776Y-83313000D01*
X107188000Y-83313000D01*
X107188000Y-81567000D01*
X107442000Y-81567000D01*
X107442000Y-83313000D01*
X108459224Y-83313000D01*
X108582910Y-83110600D01*
X108552238Y-83009472D01*
X108444473Y-82776371D01*
X108293303Y-82568773D01*
X108153696Y-82440000D01*
X108293303Y-82311227D01*
X108444473Y-82103629D01*
X108552238Y-81870528D01*
X108582910Y-81769400D01*
X108459224Y-81567000D01*
X107442000Y-81567000D01*
X107188000Y-81567000D01*
X106170776Y-81567000D01*
X106047090Y-81769400D01*
X104267000Y-81769400D01*
X104267000Y-79769400D01*
X106047090Y-79769400D01*
X106077762Y-79870528D01*
X106185527Y-80103629D01*
X106336697Y-80311227D01*
X106476304Y-80440000D01*
X106336697Y-80568773D01*
X106185527Y-80776371D01*
X106077762Y-81009472D01*
X106047090Y-81110600D01*
X106170776Y-81313000D01*
X107188000Y-81313000D01*
X107188000Y-79567000D01*
X107442000Y-79567000D01*
X107442000Y-81313000D01*
X108459224Y-81313000D01*
X108582910Y-81110600D01*
X108552238Y-81009472D01*
X108444473Y-80776371D01*
X108293303Y-80568773D01*
X108153696Y-80440000D01*
X108293303Y-80311227D01*
X108444473Y-80103629D01*
X108469266Y-80050000D01*
X111081928Y-80050000D01*
X111094188Y-80174482D01*
X111130498Y-80294180D01*
X111189463Y-80404494D01*
X111268815Y-80501185D01*
X111365506Y-80580537D01*
X111475820Y-80639502D01*
X111595518Y-80675812D01*
X111720000Y-80688072D01*
X112109250Y-80685000D01*
X112268000Y-80526250D01*
X112268000Y-79502000D01*
X111243750Y-79502000D01*
X111085000Y-79660750D01*
X111081928Y-80050000D01*
X108469266Y-80050000D01*
X108552238Y-79870528D01*
X108582910Y-79769400D01*
X108459224Y-79567000D01*
X107442000Y-79567000D01*
X107188000Y-79567000D01*
X106170776Y-79567000D01*
X106047090Y-79769400D01*
X104267000Y-79769400D01*
X104267000Y-79110600D01*
X106047090Y-79110600D01*
X106170776Y-79313000D01*
X107188000Y-79313000D01*
X107188000Y-78294915D01*
X107442000Y-78294915D01*
X107442000Y-79313000D01*
X108459224Y-79313000D01*
X108582910Y-79110600D01*
X108552238Y-79009472D01*
X108444473Y-78776371D01*
X108388861Y-78700000D01*
X111081928Y-78700000D01*
X111085000Y-79089250D01*
X111243750Y-79248000D01*
X112268000Y-79248000D01*
X112268000Y-78223750D01*
X112109250Y-78065000D01*
X111720000Y-78061928D01*
X111595518Y-78074188D01*
X111475820Y-78110498D01*
X111365506Y-78169463D01*
X111268815Y-78248815D01*
X111189463Y-78345506D01*
X111130498Y-78455820D01*
X111094188Y-78575518D01*
X111081928Y-78700000D01*
X108388861Y-78700000D01*
X108293303Y-78568773D01*
X108104537Y-78394656D01*
X107885430Y-78260711D01*
X107644401Y-78172085D01*
X107442000Y-78294915D01*
X107188000Y-78294915D01*
X106985599Y-78172085D01*
X106744570Y-78260711D01*
X106525463Y-78394656D01*
X106336697Y-78568773D01*
X106185527Y-78776371D01*
X106077762Y-79009472D01*
X106047090Y-79110600D01*
X104267000Y-79110600D01*
X104267000Y-77597000D01*
X122428000Y-77597000D01*
X122428000Y-97028000D01*
%TA.AperFunction,Conductor*%
D16*
G36*
X122428000Y-97028000D02*
G01*
X104267000Y-97028000D01*
X104267000Y-95120976D01*
X110260000Y-95120976D01*
X110260000Y-95379024D01*
X110310342Y-95632113D01*
X110409093Y-95870518D01*
X110552456Y-96085077D01*
X110734923Y-96267544D01*
X110949482Y-96410907D01*
X111187887Y-96509658D01*
X111440976Y-96560000D01*
X111699024Y-96560000D01*
X111952113Y-96509658D01*
X112190518Y-96410907D01*
X112405077Y-96267544D01*
X112570000Y-96102621D01*
X112734923Y-96267544D01*
X112949482Y-96410907D01*
X113187887Y-96509658D01*
X113440976Y-96560000D01*
X113699024Y-96560000D01*
X113952113Y-96509658D01*
X114190518Y-96410907D01*
X114372513Y-96289303D01*
X114443815Y-96376185D01*
X114540506Y-96455537D01*
X114650820Y-96514502D01*
X114770518Y-96550812D01*
X114895000Y-96563072D01*
X116245000Y-96563072D01*
X116369482Y-96550812D01*
X116489180Y-96514502D01*
X116599494Y-96455537D01*
X116696185Y-96376185D01*
X116775537Y-96279494D01*
X116834502Y-96169180D01*
X116870812Y-96049482D01*
X116883072Y-95925000D01*
X116883072Y-95011729D01*
X119141730Y-92753072D01*
X120055000Y-92753072D01*
X120179482Y-92740812D01*
X120299180Y-92704502D01*
X120409494Y-92645537D01*
X120506185Y-92566185D01*
X120585537Y-92469494D01*
X120644502Y-92359180D01*
X120680812Y-92239482D01*
X120693072Y-92115000D01*
X120693072Y-90765000D01*
X120680812Y-90640518D01*
X120644502Y-90520820D01*
X120585537Y-90410506D01*
X120506185Y-90313815D01*
X120419303Y-90242513D01*
X120540907Y-90060518D01*
X120639658Y-89822113D01*
X120690000Y-89569024D01*
X120690000Y-89310976D01*
X120639658Y-89057887D01*
X120540907Y-88819482D01*
X120397544Y-88604923D01*
X120232621Y-88440000D01*
X120397544Y-88275077D01*
X120540907Y-88060518D01*
X120639658Y-87822113D01*
X120690000Y-87569024D01*
X120690000Y-87310976D01*
X120639658Y-87057887D01*
X120540907Y-86819482D01*
X120397544Y-86604923D01*
X120232621Y-86440000D01*
X120397544Y-86275077D01*
X120540907Y-86060518D01*
X120639658Y-85822113D01*
X120690000Y-85569024D01*
X120690000Y-85310976D01*
X120639658Y-85057887D01*
X120540907Y-84819482D01*
X120397544Y-84604923D01*
X120232621Y-84440000D01*
X120397544Y-84275077D01*
X120540907Y-84060518D01*
X120639658Y-83822113D01*
X120690000Y-83569024D01*
X120690000Y-83310976D01*
X120639658Y-83057887D01*
X120540907Y-82819482D01*
X120397544Y-82604923D01*
X120232621Y-82440000D01*
X120397544Y-82275077D01*
X120540907Y-82060518D01*
X120639658Y-81822113D01*
X120690000Y-81569024D01*
X120690000Y-81310976D01*
X120639658Y-81057887D01*
X120540907Y-80819482D01*
X120397544Y-80604923D01*
X120232621Y-80440000D01*
X120397544Y-80275077D01*
X120540907Y-80060518D01*
X120639658Y-79822113D01*
X120690000Y-79569024D01*
X120690000Y-79310976D01*
X120639658Y-79057887D01*
X120540907Y-78819482D01*
X120397544Y-78604923D01*
X120215077Y-78422456D01*
X120000518Y-78279093D01*
X119762113Y-78180342D01*
X119509024Y-78130000D01*
X119250976Y-78130000D01*
X118997887Y-78180342D01*
X118759482Y-78279093D01*
X118544923Y-78422456D01*
X118362456Y-78604923D01*
X118312291Y-78680000D01*
X115506140Y-78680000D01*
X115412544Y-78539923D01*
X115230077Y-78357456D01*
X115015518Y-78214093D01*
X114777113Y-78115342D01*
X114524024Y-78065000D01*
X114265976Y-78065000D01*
X114012887Y-78115342D01*
X113774482Y-78214093D01*
X113592487Y-78335697D01*
X113521185Y-78248815D01*
X113424494Y-78169463D01*
X113314180Y-78110498D01*
X113194482Y-78074188D01*
X113070000Y-78061928D01*
X112680750Y-78065000D01*
X112522000Y-78223750D01*
X112522000Y-79248000D01*
X112542000Y-79248000D01*
X112542000Y-79502000D01*
X112522000Y-79502000D01*
X112522000Y-80526250D01*
X112680750Y-80685000D01*
X113070000Y-80688072D01*
X113194482Y-80675812D01*
X113314180Y-80639502D01*
X113424494Y-80580537D01*
X113521185Y-80501185D01*
X113592487Y-80414303D01*
X113774482Y-80535907D01*
X114012887Y-80634658D01*
X114265976Y-80685000D01*
X114524024Y-80685000D01*
X114777113Y-80634658D01*
X115015518Y-80535907D01*
X115230077Y-80392544D01*
X115412544Y-80210077D01*
X115419277Y-80200000D01*
X118312291Y-80200000D01*
X118362456Y-80275077D01*
X118527379Y-80440000D01*
X118362456Y-80604923D01*
X118219093Y-80819482D01*
X118120342Y-81057887D01*
X118070000Y-81310976D01*
X118070000Y-81569024D01*
X118120342Y-81822113D01*
X118219093Y-82060518D01*
X118362456Y-82275077D01*
X118527379Y-82440000D01*
X118362456Y-82604923D01*
X118219093Y-82819482D01*
X118120342Y-83057887D01*
X118070000Y-83310976D01*
X118070000Y-83569024D01*
X118120342Y-83822113D01*
X118219093Y-84060518D01*
X118362456Y-84275077D01*
X118527379Y-84440000D01*
X118362456Y-84604923D01*
X118219093Y-84819482D01*
X118120342Y-85057887D01*
X118070000Y-85310976D01*
X118070000Y-85569024D01*
X118120342Y-85822113D01*
X118219093Y-86060518D01*
X118362456Y-86275077D01*
X118527379Y-86440000D01*
X118362456Y-86604923D01*
X118219093Y-86819482D01*
X118120342Y-87057887D01*
X118070000Y-87310976D01*
X118070000Y-87569024D01*
X118120342Y-87822113D01*
X118219093Y-88060518D01*
X118362456Y-88275077D01*
X118527379Y-88440000D01*
X118362456Y-88604923D01*
X118219093Y-88819482D01*
X118120342Y-89057887D01*
X118070000Y-89310976D01*
X118070000Y-89569024D01*
X118120342Y-89822113D01*
X118219093Y-90060518D01*
X118340697Y-90242513D01*
X118253815Y-90313815D01*
X118174463Y-90410506D01*
X118115498Y-90520820D01*
X118079188Y-90640518D01*
X118066928Y-90765000D01*
X118066928Y-91678270D01*
X117540000Y-92205198D01*
X117540000Y-91943514D01*
X117488696Y-91685595D01*
X117388061Y-91442641D01*
X117241962Y-91223987D01*
X117056013Y-91038038D01*
X116837359Y-90891939D01*
X116594405Y-90791304D01*
X116336486Y-90740000D01*
X116073514Y-90740000D01*
X115815595Y-90791304D01*
X115572641Y-90891939D01*
X115353987Y-91038038D01*
X115168038Y-91223987D01*
X115021939Y-91442641D01*
X114921304Y-91685595D01*
X114870000Y-91943514D01*
X114870000Y-92206486D01*
X114891355Y-92313843D01*
X113221554Y-93983645D01*
X113187887Y-93990342D01*
X112949482Y-94089093D01*
X112734923Y-94232456D01*
X112570000Y-94397379D01*
X112405077Y-94232456D01*
X112190518Y-94089093D01*
X111952113Y-93990342D01*
X111699024Y-93940000D01*
X111440976Y-93940000D01*
X111187887Y-93990342D01*
X110949482Y-94089093D01*
X110734923Y-94232456D01*
X110552456Y-94414923D01*
X110409093Y-94629482D01*
X110310342Y-94867887D01*
X110260000Y-95120976D01*
X104267000Y-95120976D01*
X104267000Y-92996269D01*
X110383336Y-92996269D01*
X110442797Y-93230037D01*
X110681242Y-93340934D01*
X110936740Y-93403183D01*
X111199473Y-93414390D01*
X111459344Y-93374125D01*
X111706366Y-93283935D01*
X111807203Y-93230037D01*
X111866664Y-92996269D01*
X111125000Y-92254605D01*
X110383336Y-92996269D01*
X104267000Y-92996269D01*
X104267000Y-92115000D01*
X106001928Y-92115000D01*
X106014188Y-92239482D01*
X106050498Y-92359180D01*
X106109463Y-92469494D01*
X106188815Y-92566185D01*
X106285506Y-92645537D01*
X106395820Y-92704502D01*
X106515518Y-92740812D01*
X106640000Y-92753072D01*
X107029250Y-92750000D01*
X107188000Y-92591250D01*
X107188000Y-91567000D01*
X107442000Y-91567000D01*
X107442000Y-92591250D01*
X107600750Y-92750000D01*
X107990000Y-92753072D01*
X108114482Y-92740812D01*
X108234180Y-92704502D01*
X108344494Y-92645537D01*
X108441185Y-92566185D01*
X108520537Y-92469494D01*
X108579502Y-92359180D01*
X108615812Y-92239482D01*
X108624676Y-92149473D01*
X109785610Y-92149473D01*
X109825875Y-92409344D01*
X109916065Y-92656366D01*
X109969963Y-92757203D01*
X110203731Y-92816664D01*
X110945395Y-92075000D01*
X111304605Y-92075000D01*
X112046269Y-92816664D01*
X112280037Y-92757203D01*
X112390934Y-92518758D01*
X112453183Y-92263260D01*
X112464390Y-92000527D01*
X112424125Y-91740656D01*
X112333935Y-91493634D01*
X112280037Y-91392797D01*
X112046269Y-91333336D01*
X111304605Y-92075000D01*
X110945395Y-92075000D01*
X110203731Y-91333336D01*
X109969963Y-91392797D01*
X109859066Y-91631242D01*
X109796817Y-91886740D01*
X109785610Y-92149473D01*
X108624676Y-92149473D01*
X108628072Y-92115000D01*
X108625000Y-91725750D01*
X108466250Y-91567000D01*
X107442000Y-91567000D01*
X107188000Y-91567000D01*
X106163750Y-91567000D01*
X106005000Y-91725750D01*
X106001928Y-92115000D01*
X104267000Y-92115000D01*
X104267000Y-90765000D01*
X106001928Y-90765000D01*
X106005000Y-91154250D01*
X106163750Y-91313000D01*
X107188000Y-91313000D01*
X107188000Y-89567000D01*
X107442000Y-89567000D01*
X107442000Y-91313000D01*
X108466250Y-91313000D01*
X108625000Y-91154250D01*
X108625004Y-91153731D01*
X110383336Y-91153731D01*
X111125000Y-91895395D01*
X111866664Y-91153731D01*
X111807203Y-90919963D01*
X111568758Y-90809066D01*
X111313260Y-90746817D01*
X111050527Y-90735610D01*
X110790656Y-90775875D01*
X110543634Y-90866065D01*
X110442797Y-90919963D01*
X110383336Y-91153731D01*
X108625004Y-91153731D01*
X108628072Y-90765000D01*
X108615812Y-90640518D01*
X108579502Y-90520820D01*
X108520537Y-90410506D01*
X108441185Y-90313815D01*
X108347441Y-90236881D01*
X108444473Y-90103629D01*
X108552238Y-89870528D01*
X108582910Y-89769400D01*
X108459224Y-89567000D01*
X107442000Y-89567000D01*
X107188000Y-89567000D01*
X106170776Y-89567000D01*
X106047090Y-89769400D01*
X106077762Y-89870528D01*
X106185527Y-90103629D01*
X106282559Y-90236881D01*
X106188815Y-90313815D01*
X106109463Y-90410506D01*
X106050498Y-90520820D01*
X106014188Y-90640518D01*
X106001928Y-90765000D01*
X104267000Y-90765000D01*
X104267000Y-87769400D01*
X106047090Y-87769400D01*
X106077762Y-87870528D01*
X106185527Y-88103629D01*
X106336697Y-88311227D01*
X106476304Y-88440000D01*
X106336697Y-88568773D01*
X106185527Y-88776371D01*
X106077762Y-89009472D01*
X106047090Y-89110600D01*
X106170776Y-89313000D01*
X107188000Y-89313000D01*
X107188000Y-87567000D01*
X107442000Y-87567000D01*
X107442000Y-89313000D01*
X108459224Y-89313000D01*
X108582910Y-89110600D01*
X108552238Y-89009472D01*
X108444473Y-88776371D01*
X108293303Y-88568773D01*
X108153696Y-88440000D01*
X108293303Y-88311227D01*
X108444473Y-88103629D01*
X108552238Y-87870528D01*
X108582910Y-87769400D01*
X108459224Y-87567000D01*
X107442000Y-87567000D01*
X107188000Y-87567000D01*
X106170776Y-87567000D01*
X106047090Y-87769400D01*
X104267000Y-87769400D01*
X104267000Y-85769400D01*
X106047090Y-85769400D01*
X106077762Y-85870528D01*
X106185527Y-86103629D01*
X106336697Y-86311227D01*
X106476304Y-86440000D01*
X106336697Y-86568773D01*
X106185527Y-86776371D01*
X106077762Y-87009472D01*
X106047090Y-87110600D01*
X106170776Y-87313000D01*
X107188000Y-87313000D01*
X107188000Y-85567000D01*
X107442000Y-85567000D01*
X107442000Y-87313000D01*
X108459224Y-87313000D01*
X108582910Y-87110600D01*
X108552238Y-87009472D01*
X108444473Y-86776371D01*
X108293303Y-86568773D01*
X108153696Y-86440000D01*
X108293303Y-86311227D01*
X108444473Y-86103629D01*
X108552238Y-85870528D01*
X108582910Y-85769400D01*
X108459224Y-85567000D01*
X107442000Y-85567000D01*
X107188000Y-85567000D01*
X106170776Y-85567000D01*
X106047090Y-85769400D01*
X104267000Y-85769400D01*
X104267000Y-85369271D01*
X110940209Y-85369271D01*
X110940209Y-85780923D01*
X111020518Y-86184667D01*
X111178051Y-86564984D01*
X111406753Y-86907261D01*
X111697836Y-87198344D01*
X112040113Y-87427046D01*
X112420430Y-87584579D01*
X112824174Y-87664888D01*
X113235826Y-87664888D01*
X113639570Y-87584579D01*
X114019887Y-87427046D01*
X114362164Y-87198344D01*
X114653247Y-86907261D01*
X114881949Y-86564984D01*
X115039482Y-86184667D01*
X115119791Y-85780923D01*
X115119791Y-85369271D01*
X115039482Y-84965527D01*
X114881949Y-84585210D01*
X114653247Y-84242933D01*
X114362164Y-83951850D01*
X114019887Y-83723148D01*
X113639570Y-83565615D01*
X113235826Y-83485306D01*
X112824174Y-83485306D01*
X112420430Y-83565615D01*
X112040113Y-83723148D01*
X111697836Y-83951850D01*
X111406753Y-84242933D01*
X111178051Y-84585210D01*
X111020518Y-84965527D01*
X110940209Y-85369271D01*
X104267000Y-85369271D01*
X104267000Y-83769400D01*
X106047090Y-83769400D01*
X106077762Y-83870528D01*
X106185527Y-84103629D01*
X106336697Y-84311227D01*
X106476304Y-84440000D01*
X106336697Y-84568773D01*
X106185527Y-84776371D01*
X106077762Y-85009472D01*
X106047090Y-85110600D01*
X106170776Y-85313000D01*
X107188000Y-85313000D01*
X107188000Y-83567000D01*
X107442000Y-83567000D01*
X107442000Y-85313000D01*
X108459224Y-85313000D01*
X108582910Y-85110600D01*
X108552238Y-85009472D01*
X108444473Y-84776371D01*
X108293303Y-84568773D01*
X108153696Y-84440000D01*
X108293303Y-84311227D01*
X108444473Y-84103629D01*
X108552238Y-83870528D01*
X108582910Y-83769400D01*
X108459224Y-83567000D01*
X107442000Y-83567000D01*
X107188000Y-83567000D01*
X106170776Y-83567000D01*
X106047090Y-83769400D01*
X104267000Y-83769400D01*
X104267000Y-81769400D01*
X106047090Y-81769400D01*
X106077762Y-81870528D01*
X106185527Y-82103629D01*
X106336697Y-82311227D01*
X106476304Y-82440000D01*
X106336697Y-82568773D01*
X106185527Y-82776371D01*
X106077762Y-83009472D01*
X106047090Y-83110600D01*
X106170776Y-83313000D01*
X107188000Y-83313000D01*
X107188000Y-81567000D01*
X107442000Y-81567000D01*
X107442000Y-83313000D01*
X108459224Y-83313000D01*
X108582910Y-83110600D01*
X108552238Y-83009472D01*
X108444473Y-82776371D01*
X108293303Y-82568773D01*
X108153696Y-82440000D01*
X108293303Y-82311227D01*
X108444473Y-82103629D01*
X108552238Y-81870528D01*
X108582910Y-81769400D01*
X108459224Y-81567000D01*
X107442000Y-81567000D01*
X107188000Y-81567000D01*
X106170776Y-81567000D01*
X106047090Y-81769400D01*
X104267000Y-81769400D01*
X104267000Y-79769400D01*
X106047090Y-79769400D01*
X106077762Y-79870528D01*
X106185527Y-80103629D01*
X106336697Y-80311227D01*
X106476304Y-80440000D01*
X106336697Y-80568773D01*
X106185527Y-80776371D01*
X106077762Y-81009472D01*
X106047090Y-81110600D01*
X106170776Y-81313000D01*
X107188000Y-81313000D01*
X107188000Y-79567000D01*
X107442000Y-79567000D01*
X107442000Y-81313000D01*
X108459224Y-81313000D01*
X108582910Y-81110600D01*
X108552238Y-81009472D01*
X108444473Y-80776371D01*
X108293303Y-80568773D01*
X108153696Y-80440000D01*
X108293303Y-80311227D01*
X108444473Y-80103629D01*
X108469266Y-80050000D01*
X111081928Y-80050000D01*
X111094188Y-80174482D01*
X111130498Y-80294180D01*
X111189463Y-80404494D01*
X111268815Y-80501185D01*
X111365506Y-80580537D01*
X111475820Y-80639502D01*
X111595518Y-80675812D01*
X111720000Y-80688072D01*
X112109250Y-80685000D01*
X112268000Y-80526250D01*
X112268000Y-79502000D01*
X111243750Y-79502000D01*
X111085000Y-79660750D01*
X111081928Y-80050000D01*
X108469266Y-80050000D01*
X108552238Y-79870528D01*
X108582910Y-79769400D01*
X108459224Y-79567000D01*
X107442000Y-79567000D01*
X107188000Y-79567000D01*
X106170776Y-79567000D01*
X106047090Y-79769400D01*
X104267000Y-79769400D01*
X104267000Y-79110600D01*
X106047090Y-79110600D01*
X106170776Y-79313000D01*
X107188000Y-79313000D01*
X107188000Y-78294915D01*
X107442000Y-78294915D01*
X107442000Y-79313000D01*
X108459224Y-79313000D01*
X108582910Y-79110600D01*
X108552238Y-79009472D01*
X108444473Y-78776371D01*
X108388861Y-78700000D01*
X111081928Y-78700000D01*
X111085000Y-79089250D01*
X111243750Y-79248000D01*
X112268000Y-79248000D01*
X112268000Y-78223750D01*
X112109250Y-78065000D01*
X111720000Y-78061928D01*
X111595518Y-78074188D01*
X111475820Y-78110498D01*
X111365506Y-78169463D01*
X111268815Y-78248815D01*
X111189463Y-78345506D01*
X111130498Y-78455820D01*
X111094188Y-78575518D01*
X111081928Y-78700000D01*
X108388861Y-78700000D01*
X108293303Y-78568773D01*
X108104537Y-78394656D01*
X107885430Y-78260711D01*
X107644401Y-78172085D01*
X107442000Y-78294915D01*
X107188000Y-78294915D01*
X106985599Y-78172085D01*
X106744570Y-78260711D01*
X106525463Y-78394656D01*
X106336697Y-78568773D01*
X106185527Y-78776371D01*
X106077762Y-79009472D01*
X106047090Y-79110600D01*
X104267000Y-79110600D01*
X104267000Y-77597000D01*
X122428000Y-77597000D01*
X122428000Y-97028000D01*
G37*
%TD.AperFunction*%
%TD*%
M02*
