M48
; DRILL file {KiCad (5.1.12-1-10_14)} date 2021 December 06, Monday 02:25:48
; FORMAT={-:-/ absolute / inch / decimal}
; #@! TF.CreationDate,2021-12-06T02:25:48+01:00
; #@! TF.GenerationSoftware,Kicad,Pcbnew,(5.1.12-1-10_14)
; #@! TF.FileFunction,Plated,1,2,PTH
FMAT,2
INCH
T1C0.0276
T2C0.0315
%
G90
G05
T1
X4.375Y-3.625
X4.575Y-3.625
T2
X4.225Y-3.1276
X4.225Y-3.2063
X4.225Y-3.285
X4.225Y-3.3638
X4.225Y-3.4425
X4.225Y-3.5213
X4.225Y-3.6
X4.3925Y-3.75
X4.425Y-3.125
X4.4713Y-3.75
X4.5037Y-3.125
X4.55Y-3.75
X4.7Y-3.1276
X4.7Y-3.2063
X4.7Y-3.285
X4.7Y-3.3638
X4.7Y-3.4425
X4.7Y-3.5213
X4.7Y-3.6
T0
M30
