%TF.GenerationSoftware,KiCad,Pcbnew,(5.1.12-1-10_14)*%
%TF.CreationDate,2021-12-29T19:37:03+01:00*%
%TF.ProjectId,contraddictionLamp_signals,636f6e74-7261-4646-9469-6374696f6e4c,1*%
%TF.SameCoordinates,Original*%
%TF.FileFunction,Soldermask,Top*%
%TF.FilePolarity,Negative*%
%FSLAX46Y46*%
G04 Gerber Fmt 4.6, Leading zero omitted, Abs format (unit mm)*
G04 Created by KiCad (PCBNEW (5.1.12-1-10_14)) date 2021-12-29 19:37:03*
%MOMM*%
%LPD*%
G01*
G04 APERTURE LIST*
%ADD10C,1.600000*%
%ADD11R,1.600000X1.600000*%
%ADD12C,1.440000*%
%ADD13O,1.700000X1.700000*%
%ADD14R,1.700000X1.700000*%
%ADD15O,1.905000X2.000000*%
%ADD16R,1.905000X2.000000*%
%ADD17O,1.600000X1.600000*%
G04 APERTURE END LIST*
D10*
%TO.C,C2*%
X151447500Y-91146000D03*
D11*
X151447500Y-88646000D03*
%TD*%
D10*
%TO.C,C1*%
X149114500Y-95694500D03*
X154114500Y-95694500D03*
%TD*%
D12*
%TO.C,R3*%
X144526000Y-94996000D03*
X144526000Y-92456000D03*
X144526000Y-89916000D03*
%TD*%
D13*
%TO.C,J3*%
X163842000Y-105854500D03*
X163842000Y-108394500D03*
D14*
X163842000Y-110934500D03*
%TD*%
D15*
%TO.C,U1*%
X156083000Y-84391500D03*
X153543000Y-84391500D03*
D16*
X151003000Y-84391500D03*
%TD*%
D17*
%TO.C,R2*%
X164528500Y-96075500D03*
D10*
X156908500Y-96075500D03*
%TD*%
D13*
%TO.C,J4*%
X143891000Y-101155500D03*
X146431000Y-101155500D03*
X148971000Y-101155500D03*
X151511000Y-101155500D03*
X154051000Y-101155500D03*
X156591000Y-101155500D03*
D14*
X159131000Y-101155500D03*
%TD*%
D17*
%TO.C,R1*%
X156908500Y-90805000D03*
D10*
X164528500Y-90805000D03*
%TD*%
D13*
%TO.C,J5*%
X143891000Y-110934500D03*
X146431000Y-110934500D03*
X148971000Y-110934500D03*
X151511000Y-110934500D03*
X154051000Y-110934500D03*
X156591000Y-110934500D03*
D14*
X159131000Y-110934500D03*
%TD*%
D13*
%TO.C,J2*%
X163778500Y-83832500D03*
D14*
X163778500Y-86372500D03*
%TD*%
D13*
%TO.C,J1*%
X159194500Y-105981500D03*
X156654500Y-105981500D03*
X154114500Y-105981500D03*
X151574500Y-105981500D03*
X149034500Y-105981500D03*
X146494500Y-105981500D03*
D14*
X143954500Y-105981500D03*
%TD*%
M02*
