%TF.GenerationSoftware,KiCad,Pcbnew,(5.1.12-1-10_14)*%
%TF.CreationDate,2021-12-29T19:37:03+01:00*%
%TF.ProjectId,contraddictionLamp_signals,636f6e74-7261-4646-9469-6374696f6e4c,1*%
%TF.SameCoordinates,Original*%
%TF.FileFunction,Legend,Top*%
%TF.FilePolarity,Positive*%
%FSLAX46Y46*%
G04 Gerber Fmt 4.6, Leading zero omitted, Abs format (unit mm)*
G04 Created by KiCad (PCBNEW (5.1.12-1-10_14)) date 2021-12-29 19:37:03*
%MOMM*%
%LPD*%
G01*
G04 APERTURE LIST*
%ADD10C,0.100000*%
%ADD11C,0.150000*%
%ADD12C,0.030000*%
%ADD13C,0.125000*%
%ADD14C,0.010000*%
%ADD15C,0.120000*%
G04 APERTURE END LIST*
D10*
X141077190Y-95130571D02*
X141077190Y-95035333D01*
X141101000Y-94987714D01*
X141148619Y-94940095D01*
X141243857Y-94916285D01*
X141410523Y-94916285D01*
X141505761Y-94940095D01*
X141553380Y-94987714D01*
X141577190Y-95035333D01*
X141577190Y-95130571D01*
X141553380Y-95178190D01*
X141505761Y-95225809D01*
X141410523Y-95249619D01*
X141243857Y-95249619D01*
X141148619Y-95225809D01*
X141101000Y-95178190D01*
X141077190Y-95130571D01*
X141243857Y-94487714D02*
X141577190Y-94487714D01*
X141243857Y-94702000D02*
X141505761Y-94702000D01*
X141553380Y-94678190D01*
X141577190Y-94630571D01*
X141577190Y-94559142D01*
X141553380Y-94511523D01*
X141529571Y-94487714D01*
X141243857Y-94321047D02*
X141243857Y-94130571D01*
X141077190Y-94249619D02*
X141505761Y-94249619D01*
X141553380Y-94225809D01*
X141577190Y-94178190D01*
X141577190Y-94130571D01*
X141386714Y-93963904D02*
X141386714Y-93582952D01*
X141077190Y-93416285D02*
X141577190Y-93249619D01*
X141077190Y-93082952D01*
X141577190Y-92249619D02*
X141339095Y-92416285D01*
X141577190Y-92535333D02*
X141077190Y-92535333D01*
X141077190Y-92344857D01*
X141101000Y-92297238D01*
X141124809Y-92273428D01*
X141172428Y-92249619D01*
X141243857Y-92249619D01*
X141291476Y-92273428D01*
X141315285Y-92297238D01*
X141339095Y-92344857D01*
X141339095Y-92535333D01*
X141553380Y-91844857D02*
X141577190Y-91892476D01*
X141577190Y-91987714D01*
X141553380Y-92035333D01*
X141505761Y-92059142D01*
X141315285Y-92059142D01*
X141267666Y-92035333D01*
X141243857Y-91987714D01*
X141243857Y-91892476D01*
X141267666Y-91844857D01*
X141315285Y-91821047D01*
X141362904Y-91821047D01*
X141410523Y-92059142D01*
X141243857Y-91392476D02*
X141648619Y-91392476D01*
X141696238Y-91416285D01*
X141720047Y-91440095D01*
X141743857Y-91487714D01*
X141743857Y-91559142D01*
X141720047Y-91606761D01*
X141553380Y-91392476D02*
X141577190Y-91440095D01*
X141577190Y-91535333D01*
X141553380Y-91582952D01*
X141529571Y-91606761D01*
X141481952Y-91630571D01*
X141339095Y-91630571D01*
X141291476Y-91606761D01*
X141267666Y-91582952D01*
X141243857Y-91535333D01*
X141243857Y-91440095D01*
X141267666Y-91392476D01*
X141243857Y-90940095D02*
X141577190Y-90940095D01*
X141243857Y-91154380D02*
X141505761Y-91154380D01*
X141553380Y-91130571D01*
X141577190Y-91082952D01*
X141577190Y-91011523D01*
X141553380Y-90963904D01*
X141529571Y-90940095D01*
X141577190Y-90630571D02*
X141553380Y-90678190D01*
X141505761Y-90702000D01*
X141077190Y-90702000D01*
X141577190Y-90225809D02*
X141315285Y-90225809D01*
X141267666Y-90249619D01*
X141243857Y-90297238D01*
X141243857Y-90392476D01*
X141267666Y-90440095D01*
X141553380Y-90225809D02*
X141577190Y-90273428D01*
X141577190Y-90392476D01*
X141553380Y-90440095D01*
X141505761Y-90463904D01*
X141458142Y-90463904D01*
X141410523Y-90440095D01*
X141386714Y-90392476D01*
X141386714Y-90273428D01*
X141362904Y-90225809D01*
X141243857Y-90059142D02*
X141243857Y-89868666D01*
X141077190Y-89987714D02*
X141505761Y-89987714D01*
X141553380Y-89963904D01*
X141577190Y-89916285D01*
X141577190Y-89868666D01*
X141577190Y-89630571D02*
X141553380Y-89678190D01*
X141529571Y-89702000D01*
X141481952Y-89725809D01*
X141339095Y-89725809D01*
X141291476Y-89702000D01*
X141267666Y-89678190D01*
X141243857Y-89630571D01*
X141243857Y-89559142D01*
X141267666Y-89511523D01*
X141291476Y-89487714D01*
X141339095Y-89463904D01*
X141481952Y-89463904D01*
X141529571Y-89487714D01*
X141553380Y-89511523D01*
X141577190Y-89559142D01*
X141577190Y-89630571D01*
X141577190Y-89249619D02*
X141243857Y-89249619D01*
X141339095Y-89249619D02*
X141291476Y-89225809D01*
X141267666Y-89202000D01*
X141243857Y-89154380D01*
X141243857Y-89106761D01*
D11*
X165798547Y-86431428D02*
X166560452Y-86431428D01*
D10*
X166016809Y-96980238D02*
X165993000Y-96956428D01*
X165969190Y-96908809D01*
X165969190Y-96789761D01*
X165993000Y-96742142D01*
X166016809Y-96718333D01*
X166064428Y-96694523D01*
X166112047Y-96694523D01*
X166183476Y-96718333D01*
X166469190Y-97004047D01*
X166469190Y-96694523D01*
X166135857Y-96265952D02*
X166469190Y-96265952D01*
X165945380Y-96385000D02*
X166302523Y-96504047D01*
X166302523Y-96194523D01*
X165969190Y-95908809D02*
X165969190Y-95861190D01*
X165993000Y-95813571D01*
X166016809Y-95789761D01*
X166064428Y-95765952D01*
X166159666Y-95742142D01*
X166278714Y-95742142D01*
X166373952Y-95765952D01*
X166421571Y-95789761D01*
X166445380Y-95813571D01*
X166469190Y-95861190D01*
X166469190Y-95908809D01*
X166445380Y-95956428D01*
X166421571Y-95980238D01*
X166373952Y-96004047D01*
X166278714Y-96027857D01*
X166159666Y-96027857D01*
X166064428Y-96004047D01*
X166016809Y-95980238D01*
X165993000Y-95956428D01*
X165969190Y-95908809D01*
X166469190Y-95170714D02*
X166469190Y-95051666D01*
X166373952Y-95051666D01*
X166350142Y-95099285D01*
X166302523Y-95146904D01*
X166231095Y-95170714D01*
X166112047Y-95170714D01*
X166040619Y-95146904D01*
X165993000Y-95099285D01*
X165969190Y-95027857D01*
X165969190Y-94932619D01*
X165993000Y-94861190D01*
X166040619Y-94813571D01*
X166112047Y-94789761D01*
X166231095Y-94789761D01*
X166302523Y-94813571D01*
X166350142Y-94861190D01*
X166373952Y-94908809D01*
X166469190Y-94908809D01*
X166469190Y-94789761D01*
X142438666Y-98190857D02*
X142438666Y-98524190D01*
X142224380Y-98190857D02*
X142224380Y-98452761D01*
X142248190Y-98500380D01*
X142295809Y-98524190D01*
X142367238Y-98524190D01*
X142414857Y-98500380D01*
X142438666Y-98476571D01*
X142676761Y-98190857D02*
X142676761Y-98690857D01*
X142676761Y-98214666D02*
X142724380Y-98190857D01*
X142819619Y-98190857D01*
X142867238Y-98214666D01*
X142891047Y-98238476D01*
X142914857Y-98286095D01*
X142914857Y-98428952D01*
X142891047Y-98476571D01*
X142867238Y-98500380D01*
X142819619Y-98524190D01*
X142724380Y-98524190D01*
X142676761Y-98500380D01*
X143438666Y-98190857D02*
X143629142Y-98190857D01*
X143510095Y-98024190D02*
X143510095Y-98452761D01*
X143533904Y-98500380D01*
X143581523Y-98524190D01*
X143629142Y-98524190D01*
X143867238Y-98524190D02*
X143819619Y-98500380D01*
X143795809Y-98476571D01*
X143772000Y-98428952D01*
X143772000Y-98286095D01*
X143795809Y-98238476D01*
X143819619Y-98214666D01*
X143867238Y-98190857D01*
X143938666Y-98190857D01*
X143986285Y-98214666D01*
X144010095Y-98238476D01*
X144033904Y-98286095D01*
X144033904Y-98428952D01*
X144010095Y-98476571D01*
X143986285Y-98500380D01*
X143938666Y-98524190D01*
X143867238Y-98524190D01*
X144891047Y-98524190D02*
X144605333Y-98524190D01*
X144748190Y-98524190D02*
X144748190Y-98024190D01*
X144700571Y-98095619D01*
X144652952Y-98143238D01*
X144605333Y-98167047D01*
X145200571Y-98024190D02*
X145248190Y-98024190D01*
X145295809Y-98048000D01*
X145319619Y-98071809D01*
X145343428Y-98119428D01*
X145367238Y-98214666D01*
X145367238Y-98333714D01*
X145343428Y-98428952D01*
X145319619Y-98476571D01*
X145295809Y-98500380D01*
X145248190Y-98524190D01*
X145200571Y-98524190D01*
X145152952Y-98500380D01*
X145129142Y-98476571D01*
X145105333Y-98428952D01*
X145081523Y-98333714D01*
X145081523Y-98214666D01*
X145105333Y-98119428D01*
X145129142Y-98071809D01*
X145152952Y-98048000D01*
X145200571Y-98024190D01*
X145581523Y-98524190D02*
X145581523Y-98024190D01*
X145629142Y-98333714D02*
X145772000Y-98524190D01*
X145772000Y-98190857D02*
X145581523Y-98381333D01*
X145962476Y-98524190D02*
X146081523Y-98524190D01*
X146081523Y-98428952D01*
X146033904Y-98405142D01*
X145986285Y-98357523D01*
X145962476Y-98286095D01*
X145962476Y-98167047D01*
X145986285Y-98095619D01*
X146033904Y-98048000D01*
X146105333Y-98024190D01*
X146200571Y-98024190D01*
X146272000Y-98048000D01*
X146319619Y-98095619D01*
X146343428Y-98167047D01*
X146343428Y-98286095D01*
X146319619Y-98357523D01*
X146272000Y-98405142D01*
X146224380Y-98428952D01*
X146224380Y-98524190D01*
X146343428Y-98524190D01*
D12*
X150561619Y-81784833D02*
X150371142Y-81784833D01*
X150599714Y-81670547D02*
X150466380Y-82070547D01*
X150333047Y-81670547D01*
X150199714Y-81670547D02*
X150199714Y-82070547D01*
X150104476Y-82070547D01*
X150047333Y-82051500D01*
X150009238Y-82013404D01*
X149990190Y-81975309D01*
X149971142Y-81899119D01*
X149971142Y-81841976D01*
X149990190Y-81765785D01*
X150009238Y-81727690D01*
X150047333Y-81689595D01*
X150104476Y-81670547D01*
X150199714Y-81670547D01*
X149685428Y-82070547D02*
X149685428Y-81784833D01*
X149704476Y-81727690D01*
X149742571Y-81689595D01*
X149799714Y-81670547D01*
X149837809Y-81670547D01*
X153879500Y-82007047D02*
X153803309Y-82007047D01*
X153765214Y-81988000D01*
X153727119Y-81949904D01*
X153708071Y-81873714D01*
X153708071Y-81740380D01*
X153727119Y-81664190D01*
X153765214Y-81626095D01*
X153803309Y-81607047D01*
X153879500Y-81607047D01*
X153917595Y-81626095D01*
X153955690Y-81664190D01*
X153974738Y-81740380D01*
X153974738Y-81873714D01*
X153955690Y-81949904D01*
X153917595Y-81988000D01*
X153879500Y-82007047D01*
X153536642Y-82007047D02*
X153536642Y-81683238D01*
X153517595Y-81645142D01*
X153498547Y-81626095D01*
X153460452Y-81607047D01*
X153384261Y-81607047D01*
X153346166Y-81626095D01*
X153327119Y-81645142D01*
X153308071Y-81683238D01*
X153308071Y-82007047D01*
X153174738Y-82007047D02*
X152946166Y-82007047D01*
X153060452Y-81607047D02*
X153060452Y-82007047D01*
X157118023Y-81607047D02*
X157118023Y-82007047D01*
X156927547Y-81607047D02*
X156927547Y-82007047D01*
X156698976Y-81607047D01*
X156698976Y-82007047D01*
D11*
X161551880Y-88470952D02*
X160551880Y-88470952D01*
X161551880Y-87994761D02*
X160551880Y-87994761D01*
X161551880Y-87423333D01*
X160551880Y-87423333D01*
X160551880Y-86280476D02*
X160551880Y-85661428D01*
X160932833Y-85994761D01*
X160932833Y-85851904D01*
X160980452Y-85756666D01*
X161028071Y-85709047D01*
X161123309Y-85661428D01*
X161361404Y-85661428D01*
X161456642Y-85709047D01*
X161504261Y-85756666D01*
X161551880Y-85851904D01*
X161551880Y-86137619D01*
X161504261Y-86232857D01*
X161456642Y-86280476D01*
X161170928Y-85232857D02*
X161170928Y-84470952D01*
X160885214Y-83566190D02*
X161551880Y-83566190D01*
X160504261Y-83804285D02*
X161218547Y-84042380D01*
X161218547Y-83423333D01*
X160551880Y-82851904D02*
X160551880Y-82756666D01*
X160599500Y-82661428D01*
X160647119Y-82613809D01*
X160742357Y-82566190D01*
X160932833Y-82518571D01*
X161170928Y-82518571D01*
X161361404Y-82566190D01*
X161456642Y-82613809D01*
X161504261Y-82661428D01*
X161551880Y-82756666D01*
X161551880Y-82851904D01*
X161504261Y-82947142D01*
X161456642Y-82994761D01*
X161361404Y-83042380D01*
X161170928Y-83090000D01*
X160932833Y-83090000D01*
X160742357Y-83042380D01*
X160647119Y-82994761D01*
X160599500Y-82947142D01*
X160551880Y-82851904D01*
X160551880Y-82232857D02*
X161551880Y-81899523D01*
X160551880Y-81566190D01*
D10*
X150272880Y-97960690D02*
X150320500Y-97960690D01*
X150368119Y-97984500D01*
X150391928Y-98008309D01*
X150415738Y-98055928D01*
X150439547Y-98151166D01*
X150439547Y-98270214D01*
X150415738Y-98365452D01*
X150391928Y-98413071D01*
X150368119Y-98436880D01*
X150320500Y-98460690D01*
X150272880Y-98460690D01*
X150225261Y-98436880D01*
X150201452Y-98413071D01*
X150177642Y-98365452D01*
X150153833Y-98270214D01*
X150153833Y-98151166D01*
X150177642Y-98055928D01*
X150201452Y-98008309D01*
X150225261Y-97984500D01*
X150272880Y-97960690D01*
X150653833Y-98413071D02*
X150677642Y-98436880D01*
X150653833Y-98460690D01*
X150630023Y-98436880D01*
X150653833Y-98413071D01*
X150653833Y-98460690D01*
X151153833Y-98460690D02*
X150868119Y-98460690D01*
X151010976Y-98460690D02*
X151010976Y-97960690D01*
X150963357Y-98032119D01*
X150915738Y-98079738D01*
X150868119Y-98103547D01*
X151749071Y-98127357D02*
X151749071Y-98627357D01*
X151987166Y-98389261D02*
X152010976Y-98436880D01*
X152058595Y-98460690D01*
X151749071Y-98389261D02*
X151772880Y-98436880D01*
X151820500Y-98460690D01*
X151915738Y-98460690D01*
X151963357Y-98436880D01*
X151987166Y-98389261D01*
X151987166Y-98127357D01*
X152439547Y-98198785D02*
X152272880Y-98198785D01*
X152272880Y-98460690D02*
X152272880Y-97960690D01*
X152510976Y-97960690D01*
X155051190Y-88554690D02*
X154765476Y-88554690D01*
X154908333Y-88554690D02*
X154908333Y-88054690D01*
X154860714Y-88126119D01*
X154813095Y-88173738D01*
X154765476Y-88197547D01*
X155646428Y-88221357D02*
X155646428Y-88721357D01*
X155884523Y-88483261D02*
X155908333Y-88530880D01*
X155955952Y-88554690D01*
X155646428Y-88483261D02*
X155670238Y-88530880D01*
X155717857Y-88554690D01*
X155813095Y-88554690D01*
X155860714Y-88530880D01*
X155884523Y-88483261D01*
X155884523Y-88221357D01*
X156336904Y-88292785D02*
X156170238Y-88292785D01*
X156170238Y-88554690D02*
X156170238Y-88054690D01*
X156408333Y-88054690D01*
D11*
X141930380Y-102663428D02*
X140930380Y-102663428D01*
X141930380Y-102187238D02*
X140930380Y-102187238D01*
X141930380Y-101615809D01*
X140930380Y-101615809D01*
X141549428Y-101139619D02*
X141549428Y-100377714D01*
X140930380Y-100044380D02*
X141930380Y-99711047D01*
X140930380Y-99377714D01*
D13*
X166163642Y-108596880D02*
X166235071Y-108620690D01*
X166354119Y-108620690D01*
X166401738Y-108596880D01*
X166425547Y-108573071D01*
X166449357Y-108525452D01*
X166449357Y-108477833D01*
X166425547Y-108430214D01*
X166401738Y-108406404D01*
X166354119Y-108382595D01*
X166258880Y-108358785D01*
X166211261Y-108334976D01*
X166187452Y-108311166D01*
X166163642Y-108263547D01*
X166163642Y-108215928D01*
X166187452Y-108168309D01*
X166211261Y-108144500D01*
X166258880Y-108120690D01*
X166377928Y-108120690D01*
X166449357Y-108144500D01*
D11*
X166314428Y-106171952D02*
X166314428Y-105410047D01*
X165925547Y-111132928D02*
X166687452Y-111132928D01*
X166306500Y-111513880D02*
X166306500Y-110751976D01*
X165798547Y-83954928D02*
X166560452Y-83954928D01*
X166179500Y-84335880D02*
X166179500Y-83573976D01*
X162933166Y-103179571D02*
X163076023Y-103227190D01*
X163123642Y-103274809D01*
X163171261Y-103370047D01*
X163171261Y-103512904D01*
X163123642Y-103608142D01*
X163076023Y-103655761D01*
X162980785Y-103703380D01*
X162599833Y-103703380D01*
X162599833Y-102703380D01*
X162933166Y-102703380D01*
X163028404Y-102751000D01*
X163076023Y-102798619D01*
X163123642Y-102893857D01*
X163123642Y-102989095D01*
X163076023Y-103084333D01*
X163028404Y-103131952D01*
X162933166Y-103179571D01*
X162599833Y-103179571D01*
X163456976Y-102703380D02*
X164028404Y-102703380D01*
X163742690Y-103703380D02*
X163742690Y-102703380D01*
X164361738Y-103703380D02*
X164361738Y-102703380D01*
X164933166Y-103703380D01*
X164933166Y-102703380D01*
D10*
X166342190Y-91578809D02*
X166342190Y-91864523D01*
X166342190Y-91721666D02*
X165842190Y-91721666D01*
X165913619Y-91769285D01*
X165961238Y-91816904D01*
X165985047Y-91864523D01*
X165842190Y-91269285D02*
X165842190Y-91221666D01*
X165866000Y-91174047D01*
X165889809Y-91150238D01*
X165937428Y-91126428D01*
X166032666Y-91102619D01*
X166151714Y-91102619D01*
X166246952Y-91126428D01*
X166294571Y-91150238D01*
X166318380Y-91174047D01*
X166342190Y-91221666D01*
X166342190Y-91269285D01*
X166318380Y-91316904D01*
X166294571Y-91340714D01*
X166246952Y-91364523D01*
X166151714Y-91388333D01*
X166032666Y-91388333D01*
X165937428Y-91364523D01*
X165889809Y-91340714D01*
X165866000Y-91316904D01*
X165842190Y-91269285D01*
X166342190Y-90888333D02*
X165842190Y-90888333D01*
X166151714Y-90840714D02*
X166342190Y-90697857D01*
X166008857Y-90697857D02*
X166199333Y-90888333D01*
X166342190Y-90126428D02*
X166342190Y-90007380D01*
X166246952Y-90007380D01*
X166223142Y-90055000D01*
X166175523Y-90102619D01*
X166104095Y-90126428D01*
X165985047Y-90126428D01*
X165913619Y-90102619D01*
X165866000Y-90055000D01*
X165842190Y-89983571D01*
X165842190Y-89888333D01*
X165866000Y-89816904D01*
X165913619Y-89769285D01*
X165985047Y-89745476D01*
X166104095Y-89745476D01*
X166175523Y-89769285D01*
X166223142Y-89816904D01*
X166246952Y-89864523D01*
X166342190Y-89864523D01*
X166342190Y-89745476D01*
D11*
X140978000Y-106616404D02*
X140930380Y-106711642D01*
X140930380Y-106854500D01*
X140978000Y-106997357D01*
X141073238Y-107092595D01*
X141168476Y-107140214D01*
X141358952Y-107187833D01*
X141501809Y-107187833D01*
X141692285Y-107140214D01*
X141787523Y-107092595D01*
X141882761Y-106997357D01*
X141930380Y-106854500D01*
X141930380Y-106759261D01*
X141882761Y-106616404D01*
X141835142Y-106568785D01*
X141501809Y-106568785D01*
X141501809Y-106759261D01*
X141930380Y-106140214D02*
X140930380Y-106140214D01*
X141930380Y-105568785D01*
X140930380Y-105568785D01*
X141930380Y-105092595D02*
X140930380Y-105092595D01*
X140930380Y-104854500D01*
X140978000Y-104711642D01*
X141073238Y-104616404D01*
X141168476Y-104568785D01*
X141358952Y-104521166D01*
X141501809Y-104521166D01*
X141692285Y-104568785D01*
X141787523Y-104616404D01*
X141882761Y-104711642D01*
X141930380Y-104854500D01*
X141930380Y-105092595D01*
X140930380Y-112688452D02*
X140930380Y-112497976D01*
X140978000Y-112402738D01*
X141073238Y-112307500D01*
X141263714Y-112259880D01*
X141597047Y-112259880D01*
X141787523Y-112307500D01*
X141882761Y-112402738D01*
X141930380Y-112497976D01*
X141930380Y-112688452D01*
X141882761Y-112783690D01*
X141787523Y-112878928D01*
X141597047Y-112926547D01*
X141263714Y-112926547D01*
X141073238Y-112878928D01*
X140978000Y-112783690D01*
X140930380Y-112688452D01*
X141263714Y-111402738D02*
X141930380Y-111402738D01*
X141263714Y-111831309D02*
X141787523Y-111831309D01*
X141882761Y-111783690D01*
X141930380Y-111688452D01*
X141930380Y-111545595D01*
X141882761Y-111450357D01*
X141835142Y-111402738D01*
X141263714Y-111069404D02*
X141263714Y-110688452D01*
X140930380Y-110926547D02*
X141787523Y-110926547D01*
X141882761Y-110878928D01*
X141930380Y-110783690D01*
X141930380Y-110688452D01*
X141549428Y-110355119D02*
X141549428Y-109593214D01*
X140930380Y-109259880D02*
X141930380Y-108926547D01*
X140930380Y-108593214D01*
D14*
%TO.C,REF\u002A\u002A*%
G36*
X142189244Y-84533418D02*
G01*
X142244701Y-84561068D01*
X142293648Y-84611980D01*
X142307129Y-84630838D01*
X142321814Y-84655515D01*
X142331342Y-84682316D01*
X142336793Y-84718087D01*
X142339247Y-84769669D01*
X142339786Y-84837767D01*
X142337352Y-84931088D01*
X142328894Y-85001157D01*
X142312674Y-85053431D01*
X142286954Y-85093369D01*
X142249997Y-85126429D01*
X142247282Y-85128386D01*
X142210860Y-85148408D01*
X142167002Y-85158315D01*
X142111224Y-85160757D01*
X142020548Y-85160757D01*
X142020510Y-85248783D01*
X142019666Y-85297808D01*
X142014524Y-85326565D01*
X142001087Y-85343811D01*
X141975358Y-85358308D01*
X141969179Y-85361269D01*
X141940264Y-85375148D01*
X141917876Y-85383914D01*
X141901229Y-85384671D01*
X141889536Y-85374523D01*
X141882010Y-85350573D01*
X141877866Y-85309926D01*
X141876315Y-85249686D01*
X141876571Y-85166955D01*
X141877849Y-85058839D01*
X141878248Y-85026500D01*
X141879685Y-84915024D01*
X141880972Y-84842103D01*
X142020471Y-84842103D01*
X142021255Y-84903999D01*
X142024740Y-84944497D01*
X142032624Y-84971208D01*
X142046605Y-84991744D01*
X142056097Y-85001760D01*
X142094904Y-85031067D01*
X142129263Y-85033452D01*
X142164716Y-85009250D01*
X142165614Y-85008357D01*
X142180039Y-84989653D01*
X142188813Y-84964232D01*
X142193239Y-84925084D01*
X142194618Y-84865197D01*
X142194643Y-84851930D01*
X142191312Y-84769401D01*
X142180469Y-84712191D01*
X142160840Y-84677266D01*
X142131150Y-84661594D01*
X142113991Y-84660014D01*
X142073266Y-84667426D01*
X142045332Y-84691830D01*
X142028517Y-84736480D01*
X142021150Y-84804630D01*
X142020471Y-84842103D01*
X141880972Y-84842103D01*
X141881208Y-84828745D01*
X141883177Y-84763833D01*
X141885950Y-84716458D01*
X141889888Y-84682790D01*
X141895349Y-84658998D01*
X141902692Y-84641253D01*
X141912277Y-84625724D01*
X141916387Y-84619881D01*
X141970905Y-84564685D01*
X142039836Y-84533390D01*
X142119572Y-84524665D01*
X142189244Y-84533418D01*
G37*
X142189244Y-84533418D02*
X142244701Y-84561068D01*
X142293648Y-84611980D01*
X142307129Y-84630838D01*
X142321814Y-84655515D01*
X142331342Y-84682316D01*
X142336793Y-84718087D01*
X142339247Y-84769669D01*
X142339786Y-84837767D01*
X142337352Y-84931088D01*
X142328894Y-85001157D01*
X142312674Y-85053431D01*
X142286954Y-85093369D01*
X142249997Y-85126429D01*
X142247282Y-85128386D01*
X142210860Y-85148408D01*
X142167002Y-85158315D01*
X142111224Y-85160757D01*
X142020548Y-85160757D01*
X142020510Y-85248783D01*
X142019666Y-85297808D01*
X142014524Y-85326565D01*
X142001087Y-85343811D01*
X141975358Y-85358308D01*
X141969179Y-85361269D01*
X141940264Y-85375148D01*
X141917876Y-85383914D01*
X141901229Y-85384671D01*
X141889536Y-85374523D01*
X141882010Y-85350573D01*
X141877866Y-85309926D01*
X141876315Y-85249686D01*
X141876571Y-85166955D01*
X141877849Y-85058839D01*
X141878248Y-85026500D01*
X141879685Y-84915024D01*
X141880972Y-84842103D01*
X142020471Y-84842103D01*
X142021255Y-84903999D01*
X142024740Y-84944497D01*
X142032624Y-84971208D01*
X142046605Y-84991744D01*
X142056097Y-85001760D01*
X142094904Y-85031067D01*
X142129263Y-85033452D01*
X142164716Y-85009250D01*
X142165614Y-85008357D01*
X142180039Y-84989653D01*
X142188813Y-84964232D01*
X142193239Y-84925084D01*
X142194618Y-84865197D01*
X142194643Y-84851930D01*
X142191312Y-84769401D01*
X142180469Y-84712191D01*
X142160840Y-84677266D01*
X142131150Y-84661594D01*
X142113991Y-84660014D01*
X142073266Y-84667426D01*
X142045332Y-84691830D01*
X142028517Y-84736480D01*
X142021150Y-84804630D01*
X142020471Y-84842103D01*
X141880972Y-84842103D01*
X141881208Y-84828745D01*
X141883177Y-84763833D01*
X141885950Y-84716458D01*
X141889888Y-84682790D01*
X141895349Y-84658998D01*
X141902692Y-84641253D01*
X141912277Y-84625724D01*
X141916387Y-84619881D01*
X141970905Y-84564685D01*
X142039836Y-84533390D01*
X142119572Y-84524665D01*
X142189244Y-84533418D01*
G36*
X143305593Y-84541280D02*
G01*
X143352172Y-84568223D01*
X143384557Y-84594966D01*
X143408242Y-84622984D01*
X143424559Y-84657248D01*
X143434839Y-84702727D01*
X143440414Y-84764392D01*
X143442616Y-84847211D01*
X143442871Y-84906746D01*
X143442871Y-85125891D01*
X143381186Y-85153544D01*
X143319500Y-85181197D01*
X143312243Y-84941170D01*
X143309244Y-84851528D01*
X143306098Y-84786462D01*
X143302201Y-84741526D01*
X143296947Y-84712270D01*
X143289731Y-84694248D01*
X143279950Y-84683011D01*
X143276812Y-84680579D01*
X143229261Y-84661583D01*
X143181197Y-84669100D01*
X143152586Y-84689043D01*
X143140947Y-84703175D01*
X143132891Y-84721720D01*
X143127771Y-84749834D01*
X143124941Y-84792673D01*
X143123756Y-84855395D01*
X143123557Y-84920761D01*
X143123518Y-85002768D01*
X143122114Y-85060816D01*
X143117414Y-85099965D01*
X143107487Y-85125280D01*
X143090403Y-85141823D01*
X143064232Y-85154656D01*
X143029275Y-85167991D01*
X142991096Y-85182507D01*
X142995641Y-84924889D01*
X142997471Y-84832019D01*
X142999612Y-84763389D01*
X143002681Y-84714211D01*
X143007294Y-84679698D01*
X143014068Y-84655062D01*
X143023619Y-84635516D01*
X143035134Y-84618270D01*
X143090690Y-84563180D01*
X143158480Y-84531322D01*
X143232213Y-84523691D01*
X143305593Y-84541280D01*
G37*
X143305593Y-84541280D02*
X143352172Y-84568223D01*
X143384557Y-84594966D01*
X143408242Y-84622984D01*
X143424559Y-84657248D01*
X143434839Y-84702727D01*
X143440414Y-84764392D01*
X143442616Y-84847211D01*
X143442871Y-84906746D01*
X143442871Y-85125891D01*
X143381186Y-85153544D01*
X143319500Y-85181197D01*
X143312243Y-84941170D01*
X143309244Y-84851528D01*
X143306098Y-84786462D01*
X143302201Y-84741526D01*
X143296947Y-84712270D01*
X143289731Y-84694248D01*
X143279950Y-84683011D01*
X143276812Y-84680579D01*
X143229261Y-84661583D01*
X143181197Y-84669100D01*
X143152586Y-84689043D01*
X143140947Y-84703175D01*
X143132891Y-84721720D01*
X143127771Y-84749834D01*
X143124941Y-84792673D01*
X143123756Y-84855395D01*
X143123557Y-84920761D01*
X143123518Y-85002768D01*
X143122114Y-85060816D01*
X143117414Y-85099965D01*
X143107487Y-85125280D01*
X143090403Y-85141823D01*
X143064232Y-85154656D01*
X143029275Y-85167991D01*
X142991096Y-85182507D01*
X142995641Y-84924889D01*
X142997471Y-84832019D01*
X142999612Y-84763389D01*
X143002681Y-84714211D01*
X143007294Y-84679698D01*
X143014068Y-84655062D01*
X143023619Y-84635516D01*
X143035134Y-84618270D01*
X143090690Y-84563180D01*
X143158480Y-84531322D01*
X143232213Y-84523691D01*
X143305593Y-84541280D01*
G36*
X141630615Y-84535462D02*
G01*
X141698645Y-84571233D01*
X141748851Y-84628801D01*
X141766685Y-84665812D01*
X141780563Y-84721382D01*
X141787667Y-84791596D01*
X141788340Y-84868227D01*
X141782927Y-84943052D01*
X141771770Y-85007842D01*
X141755214Y-85054373D01*
X141750126Y-85062387D01*
X141689855Y-85122207D01*
X141618269Y-85158035D01*
X141540592Y-85168520D01*
X141462048Y-85152310D01*
X141440189Y-85142592D01*
X141397622Y-85112643D01*
X141360263Y-85072933D01*
X141356732Y-85067897D01*
X141342381Y-85043624D01*
X141332894Y-85017678D01*
X141327290Y-84983522D01*
X141324586Y-84934619D01*
X141323799Y-84864435D01*
X141323786Y-84848700D01*
X141323822Y-84843692D01*
X141468929Y-84843692D01*
X141469773Y-84909930D01*
X141473096Y-84953886D01*
X141480083Y-84982279D01*
X141491916Y-85001825D01*
X141497957Y-85008357D01*
X141532686Y-85033180D01*
X141566403Y-85032048D01*
X141600495Y-85010516D01*
X141620829Y-84987529D01*
X141632871Y-84953978D01*
X141639634Y-84901069D01*
X141640098Y-84894899D01*
X141641252Y-84799013D01*
X141629188Y-84727799D01*
X141604070Y-84681694D01*
X141566060Y-84661135D01*
X141552492Y-84660014D01*
X141516864Y-84665652D01*
X141492494Y-84685186D01*
X141477593Y-84722542D01*
X141470375Y-84781650D01*
X141468929Y-84843692D01*
X141323822Y-84843692D01*
X141324326Y-84773913D01*
X141326596Y-84721659D01*
X141331568Y-84685449D01*
X141340213Y-84658799D01*
X141353505Y-84635222D01*
X141356443Y-84630838D01*
X141405813Y-84571749D01*
X141459609Y-84537447D01*
X141525102Y-84523831D01*
X141547342Y-84523165D01*
X141630615Y-84535462D01*
G37*
X141630615Y-84535462D02*
X141698645Y-84571233D01*
X141748851Y-84628801D01*
X141766685Y-84665812D01*
X141780563Y-84721382D01*
X141787667Y-84791596D01*
X141788340Y-84868227D01*
X141782927Y-84943052D01*
X141771770Y-85007842D01*
X141755214Y-85054373D01*
X141750126Y-85062387D01*
X141689855Y-85122207D01*
X141618269Y-85158035D01*
X141540592Y-85168520D01*
X141462048Y-85152310D01*
X141440189Y-85142592D01*
X141397622Y-85112643D01*
X141360263Y-85072933D01*
X141356732Y-85067897D01*
X141342381Y-85043624D01*
X141332894Y-85017678D01*
X141327290Y-84983522D01*
X141324586Y-84934619D01*
X141323799Y-84864435D01*
X141323786Y-84848700D01*
X141323822Y-84843692D01*
X141468929Y-84843692D01*
X141469773Y-84909930D01*
X141473096Y-84953886D01*
X141480083Y-84982279D01*
X141491916Y-85001825D01*
X141497957Y-85008357D01*
X141532686Y-85033180D01*
X141566403Y-85032048D01*
X141600495Y-85010516D01*
X141620829Y-84987529D01*
X141632871Y-84953978D01*
X141639634Y-84901069D01*
X141640098Y-84894899D01*
X141641252Y-84799013D01*
X141629188Y-84727799D01*
X141604070Y-84681694D01*
X141566060Y-84661135D01*
X141552492Y-84660014D01*
X141516864Y-84665652D01*
X141492494Y-84685186D01*
X141477593Y-84722542D01*
X141470375Y-84781650D01*
X141468929Y-84843692D01*
X141323822Y-84843692D01*
X141324326Y-84773913D01*
X141326596Y-84721659D01*
X141331568Y-84685449D01*
X141340213Y-84658799D01*
X141353505Y-84635222D01*
X141356443Y-84630838D01*
X141405813Y-84571749D01*
X141459609Y-84537447D01*
X141525102Y-84523831D01*
X141547342Y-84523165D01*
X141630615Y-84535462D01*
G36*
X142757803Y-84544739D02*
G01*
X142815027Y-84583235D01*
X142859249Y-84638835D01*
X142885667Y-84709586D01*
X142891010Y-84761662D01*
X142890403Y-84783393D01*
X142885322Y-84800031D01*
X142871355Y-84814937D01*
X142844089Y-84831473D01*
X142799112Y-84852998D01*
X142732011Y-84882874D01*
X142731671Y-84883024D01*
X142669907Y-84911313D01*
X142619259Y-84936433D01*
X142584904Y-84955679D01*
X142572018Y-84966348D01*
X142572014Y-84966434D01*
X142583372Y-84989666D01*
X142609931Y-85015274D01*
X142640423Y-85033721D01*
X142655870Y-85037386D01*
X142698015Y-85024712D01*
X142734308Y-84992971D01*
X142752017Y-84958072D01*
X142769052Y-84932345D01*
X142802422Y-84903046D01*
X142841649Y-84877735D01*
X142876256Y-84863971D01*
X142883493Y-84863214D01*
X142891639Y-84875660D01*
X142892130Y-84907472D01*
X142886143Y-84950366D01*
X142874857Y-84996058D01*
X142859450Y-85036261D01*
X142858671Y-85037822D01*
X142812304Y-85102562D01*
X142752211Y-85146597D01*
X142683965Y-85168211D01*
X142613138Y-85165685D01*
X142545304Y-85137304D01*
X142542288Y-85135308D01*
X142488927Y-85086948D01*
X142453840Y-85023852D01*
X142434422Y-84940887D01*
X142431816Y-84917578D01*
X142427201Y-84807555D01*
X142432733Y-84756248D01*
X142572014Y-84756248D01*
X142573824Y-84788253D01*
X142583722Y-84797593D01*
X142608398Y-84790605D01*
X142647295Y-84774087D01*
X142690775Y-84753381D01*
X142691856Y-84752833D01*
X142728709Y-84733449D01*
X142743500Y-84720513D01*
X142739853Y-84706951D01*
X142724495Y-84689132D01*
X142685423Y-84663345D01*
X142643346Y-84661450D01*
X142605603Y-84680217D01*
X142579534Y-84716415D01*
X142572014Y-84756248D01*
X142432733Y-84756248D01*
X142436694Y-84719527D01*
X142461050Y-84649712D01*
X142494956Y-84600802D01*
X142556153Y-84551378D01*
X142623563Y-84526859D01*
X142692380Y-84525297D01*
X142757803Y-84544739D01*
G37*
X142757803Y-84544739D02*
X142815027Y-84583235D01*
X142859249Y-84638835D01*
X142885667Y-84709586D01*
X142891010Y-84761662D01*
X142890403Y-84783393D01*
X142885322Y-84800031D01*
X142871355Y-84814937D01*
X142844089Y-84831473D01*
X142799112Y-84852998D01*
X142732011Y-84882874D01*
X142731671Y-84883024D01*
X142669907Y-84911313D01*
X142619259Y-84936433D01*
X142584904Y-84955679D01*
X142572018Y-84966348D01*
X142572014Y-84966434D01*
X142583372Y-84989666D01*
X142609931Y-85015274D01*
X142640423Y-85033721D01*
X142655870Y-85037386D01*
X142698015Y-85024712D01*
X142734308Y-84992971D01*
X142752017Y-84958072D01*
X142769052Y-84932345D01*
X142802422Y-84903046D01*
X142841649Y-84877735D01*
X142876256Y-84863971D01*
X142883493Y-84863214D01*
X142891639Y-84875660D01*
X142892130Y-84907472D01*
X142886143Y-84950366D01*
X142874857Y-84996058D01*
X142859450Y-85036261D01*
X142858671Y-85037822D01*
X142812304Y-85102562D01*
X142752211Y-85146597D01*
X142683965Y-85168211D01*
X142613138Y-85165685D01*
X142545304Y-85137304D01*
X142542288Y-85135308D01*
X142488927Y-85086948D01*
X142453840Y-85023852D01*
X142434422Y-84940887D01*
X142431816Y-84917578D01*
X142427201Y-84807555D01*
X142432733Y-84756248D01*
X142572014Y-84756248D01*
X142573824Y-84788253D01*
X142583722Y-84797593D01*
X142608398Y-84790605D01*
X142647295Y-84774087D01*
X142690775Y-84753381D01*
X142691856Y-84752833D01*
X142728709Y-84733449D01*
X142743500Y-84720513D01*
X142739853Y-84706951D01*
X142724495Y-84689132D01*
X142685423Y-84663345D01*
X142643346Y-84661450D01*
X142605603Y-84680217D01*
X142579534Y-84716415D01*
X142572014Y-84756248D01*
X142432733Y-84756248D01*
X142436694Y-84719527D01*
X142461050Y-84649712D01*
X142494956Y-84600802D01*
X142556153Y-84551378D01*
X142623563Y-84526859D01*
X142692380Y-84525297D01*
X142757803Y-84544739D01*
G36*
X143965386Y-84464789D02*
G01*
X143969639Y-84524113D01*
X143974525Y-84559072D01*
X143981295Y-84574320D01*
X143991202Y-84574515D01*
X143994414Y-84572695D01*
X144037144Y-84559515D01*
X144092727Y-84560285D01*
X144149237Y-84573833D01*
X144184582Y-84591361D01*
X144220821Y-84619361D01*
X144247313Y-84651049D01*
X144265499Y-84691313D01*
X144276822Y-84745043D01*
X144282722Y-84817126D01*
X144284643Y-84912451D01*
X144284677Y-84930737D01*
X144284700Y-85136146D01*
X144238991Y-85152080D01*
X144206527Y-85162920D01*
X144188715Y-85167968D01*
X144188191Y-85168014D01*
X144186437Y-85154328D01*
X144184944Y-85116576D01*
X144183826Y-85059724D01*
X144183197Y-84988734D01*
X144183100Y-84945573D01*
X144182898Y-84860473D01*
X144181858Y-84799481D01*
X144179331Y-84757677D01*
X144174664Y-84730142D01*
X144167207Y-84711956D01*
X144156311Y-84698198D01*
X144149507Y-84691573D01*
X144102772Y-84664875D01*
X144051772Y-84662875D01*
X144005501Y-84685455D01*
X143996944Y-84693607D01*
X143984393Y-84708936D01*
X143975688Y-84727118D01*
X143970131Y-84753409D01*
X143967026Y-84793062D01*
X143965676Y-84851332D01*
X143965386Y-84931673D01*
X143965386Y-85136146D01*
X143919677Y-85152080D01*
X143887213Y-85162920D01*
X143869401Y-85167968D01*
X143868877Y-85168014D01*
X143867537Y-85154123D01*
X143866328Y-85114939D01*
X143865301Y-85054200D01*
X143864502Y-84975641D01*
X143863981Y-84882998D01*
X143863786Y-84780009D01*
X143863786Y-84382842D01*
X143910957Y-84362944D01*
X143958129Y-84343047D01*
X143965386Y-84464789D01*
G37*
X143965386Y-84464789D02*
X143969639Y-84524113D01*
X143974525Y-84559072D01*
X143981295Y-84574320D01*
X143991202Y-84574515D01*
X143994414Y-84572695D01*
X144037144Y-84559515D01*
X144092727Y-84560285D01*
X144149237Y-84573833D01*
X144184582Y-84591361D01*
X144220821Y-84619361D01*
X144247313Y-84651049D01*
X144265499Y-84691313D01*
X144276822Y-84745043D01*
X144282722Y-84817126D01*
X144284643Y-84912451D01*
X144284677Y-84930737D01*
X144284700Y-85136146D01*
X144238991Y-85152080D01*
X144206527Y-85162920D01*
X144188715Y-85167968D01*
X144188191Y-85168014D01*
X144186437Y-85154328D01*
X144184944Y-85116576D01*
X144183826Y-85059724D01*
X144183197Y-84988734D01*
X144183100Y-84945573D01*
X144182898Y-84860473D01*
X144181858Y-84799481D01*
X144179331Y-84757677D01*
X144174664Y-84730142D01*
X144167207Y-84711956D01*
X144156311Y-84698198D01*
X144149507Y-84691573D01*
X144102772Y-84664875D01*
X144051772Y-84662875D01*
X144005501Y-84685455D01*
X143996944Y-84693607D01*
X143984393Y-84708936D01*
X143975688Y-84727118D01*
X143970131Y-84753409D01*
X143967026Y-84793062D01*
X143965676Y-84851332D01*
X143965386Y-84931673D01*
X143965386Y-85136146D01*
X143919677Y-85152080D01*
X143887213Y-85162920D01*
X143869401Y-85167968D01*
X143868877Y-85168014D01*
X143867537Y-85154123D01*
X143866328Y-85114939D01*
X143865301Y-85054200D01*
X143864502Y-84975641D01*
X143863981Y-84882998D01*
X143863786Y-84780009D01*
X143863786Y-84382842D01*
X143910957Y-84362944D01*
X143958129Y-84343047D01*
X143965386Y-84464789D01*
G36*
X144629244Y-84564468D02*
G01*
X144686116Y-84585587D01*
X144686767Y-84585993D01*
X144721940Y-84611880D01*
X144747907Y-84642133D01*
X144766170Y-84681558D01*
X144778232Y-84734962D01*
X144785596Y-84807151D01*
X144789764Y-84902932D01*
X144790129Y-84916578D01*
X144795376Y-85122342D01*
X144751216Y-85145178D01*
X144719263Y-85160610D01*
X144699970Y-85167923D01*
X144699078Y-85168014D01*
X144695739Y-85154522D01*
X144693087Y-85118126D01*
X144691456Y-85064952D01*
X144691100Y-85021893D01*
X144691092Y-84952141D01*
X144687903Y-84908337D01*
X144676788Y-84887444D01*
X144653001Y-84886425D01*
X144611796Y-84902241D01*
X144549586Y-84931315D01*
X144503841Y-84955463D01*
X144480313Y-84976413D01*
X144473396Y-84999247D01*
X144473386Y-85000377D01*
X144484799Y-85039712D01*
X144518592Y-85060962D01*
X144570309Y-85064039D01*
X144607561Y-85063506D01*
X144627203Y-85074235D01*
X144639452Y-85100005D01*
X144646502Y-85132837D01*
X144636342Y-85151466D01*
X144632517Y-85154132D01*
X144596501Y-85164840D01*
X144546066Y-85166356D01*
X144494126Y-85159259D01*
X144457322Y-85146288D01*
X144406438Y-85103085D01*
X144377514Y-85042946D01*
X144371786Y-84995962D01*
X144376157Y-84953582D01*
X144391975Y-84918988D01*
X144423297Y-84888263D01*
X144474178Y-84857490D01*
X144548676Y-84822752D01*
X144553214Y-84820788D01*
X144620321Y-84789787D01*
X144661732Y-84764362D01*
X144679481Y-84741514D01*
X144675607Y-84718245D01*
X144652143Y-84691556D01*
X144645127Y-84685414D01*
X144598130Y-84661600D01*
X144549433Y-84662603D01*
X144507022Y-84685951D01*
X144478884Y-84729175D01*
X144476269Y-84737660D01*
X144450808Y-84778808D01*
X144418501Y-84798628D01*
X144371786Y-84818270D01*
X144371786Y-84767450D01*
X144385996Y-84693582D01*
X144428175Y-84625827D01*
X144450124Y-84603161D01*
X144500017Y-84574069D01*
X144563467Y-84560900D01*
X144629244Y-84564468D01*
G37*
X144629244Y-84564468D02*
X144686116Y-84585587D01*
X144686767Y-84585993D01*
X144721940Y-84611880D01*
X144747907Y-84642133D01*
X144766170Y-84681558D01*
X144778232Y-84734962D01*
X144785596Y-84807151D01*
X144789764Y-84902932D01*
X144790129Y-84916578D01*
X144795376Y-85122342D01*
X144751216Y-85145178D01*
X144719263Y-85160610D01*
X144699970Y-85167923D01*
X144699078Y-85168014D01*
X144695739Y-85154522D01*
X144693087Y-85118126D01*
X144691456Y-85064952D01*
X144691100Y-85021893D01*
X144691092Y-84952141D01*
X144687903Y-84908337D01*
X144676788Y-84887444D01*
X144653001Y-84886425D01*
X144611796Y-84902241D01*
X144549586Y-84931315D01*
X144503841Y-84955463D01*
X144480313Y-84976413D01*
X144473396Y-84999247D01*
X144473386Y-85000377D01*
X144484799Y-85039712D01*
X144518592Y-85060962D01*
X144570309Y-85064039D01*
X144607561Y-85063506D01*
X144627203Y-85074235D01*
X144639452Y-85100005D01*
X144646502Y-85132837D01*
X144636342Y-85151466D01*
X144632517Y-85154132D01*
X144596501Y-85164840D01*
X144546066Y-85166356D01*
X144494126Y-85159259D01*
X144457322Y-85146288D01*
X144406438Y-85103085D01*
X144377514Y-85042946D01*
X144371786Y-84995962D01*
X144376157Y-84953582D01*
X144391975Y-84918988D01*
X144423297Y-84888263D01*
X144474178Y-84857490D01*
X144548676Y-84822752D01*
X144553214Y-84820788D01*
X144620321Y-84789787D01*
X144661732Y-84764362D01*
X144679481Y-84741514D01*
X144675607Y-84718245D01*
X144652143Y-84691556D01*
X144645127Y-84685414D01*
X144598130Y-84661600D01*
X144549433Y-84662603D01*
X144507022Y-84685951D01*
X144478884Y-84729175D01*
X144476269Y-84737660D01*
X144450808Y-84778808D01*
X144418501Y-84798628D01*
X144371786Y-84818270D01*
X144371786Y-84767450D01*
X144385996Y-84693582D01*
X144428175Y-84625827D01*
X144450124Y-84603161D01*
X144500017Y-84574069D01*
X144563467Y-84560900D01*
X144629244Y-84564468D01*
G36*
X145119426Y-84563255D02*
G01*
X145185358Y-84587584D01*
X145238773Y-84630617D01*
X145259664Y-84660909D01*
X145282439Y-84716494D01*
X145281966Y-84756686D01*
X145258062Y-84783717D01*
X145249217Y-84788313D01*
X145211030Y-84802644D01*
X145191528Y-84798972D01*
X145184922Y-84774907D01*
X145184586Y-84761614D01*
X145172492Y-84712710D01*
X145140971Y-84678499D01*
X145097159Y-84661976D01*
X145048195Y-84666134D01*
X145008394Y-84687727D01*
X144994950Y-84700044D01*
X144985421Y-84714987D01*
X144978985Y-84737575D01*
X144974817Y-84772828D01*
X144972097Y-84825766D01*
X144970002Y-84901407D01*
X144969460Y-84925357D01*
X144967481Y-85007290D01*
X144965231Y-85064955D01*
X144961857Y-85103108D01*
X144956506Y-85126504D01*
X144948324Y-85139898D01*
X144936459Y-85148045D01*
X144928862Y-85151644D01*
X144896602Y-85163952D01*
X144877611Y-85168014D01*
X144871336Y-85154448D01*
X144867506Y-85113434D01*
X144866100Y-85044499D01*
X144867098Y-84947169D01*
X144867408Y-84932157D01*
X144869601Y-84843359D01*
X144872193Y-84778519D01*
X144875882Y-84732567D01*
X144881364Y-84700435D01*
X144889335Y-84677053D01*
X144900493Y-84657352D01*
X144906330Y-84648910D01*
X144939796Y-84611557D01*
X144977227Y-84582503D01*
X144981809Y-84579967D01*
X145048926Y-84559943D01*
X145119426Y-84563255D01*
G37*
X145119426Y-84563255D02*
X145185358Y-84587584D01*
X145238773Y-84630617D01*
X145259664Y-84660909D01*
X145282439Y-84716494D01*
X145281966Y-84756686D01*
X145258062Y-84783717D01*
X145249217Y-84788313D01*
X145211030Y-84802644D01*
X145191528Y-84798972D01*
X145184922Y-84774907D01*
X145184586Y-84761614D01*
X145172492Y-84712710D01*
X145140971Y-84678499D01*
X145097159Y-84661976D01*
X145048195Y-84666134D01*
X145008394Y-84687727D01*
X144994950Y-84700044D01*
X144985421Y-84714987D01*
X144978985Y-84737575D01*
X144974817Y-84772828D01*
X144972097Y-84825766D01*
X144970002Y-84901407D01*
X144969460Y-84925357D01*
X144967481Y-85007290D01*
X144965231Y-85064955D01*
X144961857Y-85103108D01*
X144956506Y-85126504D01*
X144948324Y-85139898D01*
X144936459Y-85148045D01*
X144928862Y-85151644D01*
X144896602Y-85163952D01*
X144877611Y-85168014D01*
X144871336Y-85154448D01*
X144867506Y-85113434D01*
X144866100Y-85044499D01*
X144867098Y-84947169D01*
X144867408Y-84932157D01*
X144869601Y-84843359D01*
X144872193Y-84778519D01*
X144875882Y-84732567D01*
X144881364Y-84700435D01*
X144889335Y-84677053D01*
X144900493Y-84657352D01*
X144906330Y-84648910D01*
X144939796Y-84611557D01*
X144977227Y-84582503D01*
X144981809Y-84579967D01*
X145048926Y-84559943D01*
X145119426Y-84563255D01*
G36*
X145779617Y-84678858D02*
G01*
X145779433Y-84787337D01*
X145778719Y-84870787D01*
X145777175Y-84933204D01*
X145774501Y-84978585D01*
X145770394Y-85010929D01*
X145764555Y-85034233D01*
X145756682Y-85052495D01*
X145750721Y-85062918D01*
X145701355Y-85119445D01*
X145638764Y-85154877D01*
X145569513Y-85167590D01*
X145500168Y-85155963D01*
X145458875Y-85135068D01*
X145415525Y-85098922D01*
X145385981Y-85054776D01*
X145368155Y-84996962D01*
X145359963Y-84919813D01*
X145358802Y-84863214D01*
X145358958Y-84859147D01*
X145460357Y-84859147D01*
X145460976Y-84924050D01*
X145463814Y-84967014D01*
X145470340Y-84995122D01*
X145482023Y-85015453D01*
X145495983Y-85030788D01*
X145542865Y-85060390D01*
X145593201Y-85062919D01*
X145640776Y-85038205D01*
X145644479Y-85034856D01*
X145660283Y-85017435D01*
X145670193Y-84996709D01*
X145675558Y-84965862D01*
X145677728Y-84918077D01*
X145678071Y-84865248D01*
X145677327Y-84798881D01*
X145674248Y-84754606D01*
X145667561Y-84725509D01*
X145655996Y-84704673D01*
X145646513Y-84693607D01*
X145602460Y-84665698D01*
X145551724Y-84662343D01*
X145503296Y-84683659D01*
X145493950Y-84691573D01*
X145478040Y-84709147D01*
X145468110Y-84730087D01*
X145462778Y-84761282D01*
X145460663Y-84809622D01*
X145460357Y-84859147D01*
X145358958Y-84859147D01*
X145362310Y-84772068D01*
X145374226Y-84703586D01*
X145396635Y-84652100D01*
X145431624Y-84611943D01*
X145458875Y-84591361D01*
X145508407Y-84569125D01*
X145565816Y-84558804D01*
X145619182Y-84561567D01*
X145649043Y-84572712D01*
X145660761Y-84575883D01*
X145668537Y-84564057D01*
X145673965Y-84532366D01*
X145678071Y-84484093D01*
X145682567Y-84430329D01*
X145688813Y-84397982D01*
X145700176Y-84379485D01*
X145720028Y-84367270D01*
X145732500Y-84361862D01*
X145779671Y-84342101D01*
X145779617Y-84678858D01*
G37*
X145779617Y-84678858D02*
X145779433Y-84787337D01*
X145778719Y-84870787D01*
X145777175Y-84933204D01*
X145774501Y-84978585D01*
X145770394Y-85010929D01*
X145764555Y-85034233D01*
X145756682Y-85052495D01*
X145750721Y-85062918D01*
X145701355Y-85119445D01*
X145638764Y-85154877D01*
X145569513Y-85167590D01*
X145500168Y-85155963D01*
X145458875Y-85135068D01*
X145415525Y-85098922D01*
X145385981Y-85054776D01*
X145368155Y-84996962D01*
X145359963Y-84919813D01*
X145358802Y-84863214D01*
X145358958Y-84859147D01*
X145460357Y-84859147D01*
X145460976Y-84924050D01*
X145463814Y-84967014D01*
X145470340Y-84995122D01*
X145482023Y-85015453D01*
X145495983Y-85030788D01*
X145542865Y-85060390D01*
X145593201Y-85062919D01*
X145640776Y-85038205D01*
X145644479Y-85034856D01*
X145660283Y-85017435D01*
X145670193Y-84996709D01*
X145675558Y-84965862D01*
X145677728Y-84918077D01*
X145678071Y-84865248D01*
X145677327Y-84798881D01*
X145674248Y-84754606D01*
X145667561Y-84725509D01*
X145655996Y-84704673D01*
X145646513Y-84693607D01*
X145602460Y-84665698D01*
X145551724Y-84662343D01*
X145503296Y-84683659D01*
X145493950Y-84691573D01*
X145478040Y-84709147D01*
X145468110Y-84730087D01*
X145462778Y-84761282D01*
X145460663Y-84809622D01*
X145460357Y-84859147D01*
X145358958Y-84859147D01*
X145362310Y-84772068D01*
X145374226Y-84703586D01*
X145396635Y-84652100D01*
X145431624Y-84611943D01*
X145458875Y-84591361D01*
X145508407Y-84569125D01*
X145565816Y-84558804D01*
X145619182Y-84561567D01*
X145649043Y-84572712D01*
X145660761Y-84575883D01*
X145668537Y-84564057D01*
X145673965Y-84532366D01*
X145678071Y-84484093D01*
X145682567Y-84430329D01*
X145688813Y-84397982D01*
X145700176Y-84379485D01*
X145720028Y-84367270D01*
X145732500Y-84361862D01*
X145779671Y-84342101D01*
X145779617Y-84678858D01*
G36*
X146369333Y-84572163D02*
G01*
X146371548Y-84610350D01*
X146373284Y-84668386D01*
X146374399Y-84741680D01*
X146374757Y-84818555D01*
X146374757Y-85078696D01*
X146328826Y-85124627D01*
X146297175Y-85152929D01*
X146269390Y-85164393D01*
X146231415Y-85163668D01*
X146216340Y-85161821D01*
X146169226Y-85156448D01*
X146130256Y-85153369D01*
X146120757Y-85153085D01*
X146088733Y-85154945D01*
X146042932Y-85159614D01*
X146025174Y-85161821D01*
X145981557Y-85165235D01*
X145952245Y-85157820D01*
X145923180Y-85134927D01*
X145912688Y-85124627D01*
X145866757Y-85078696D01*
X145866757Y-84592102D01*
X145903726Y-84575258D01*
X145935559Y-84562782D01*
X145954183Y-84558414D01*
X145958958Y-84572218D01*
X145963421Y-84610786D01*
X145967275Y-84669856D01*
X145970222Y-84745163D01*
X145971643Y-84808786D01*
X145975614Y-85059157D01*
X146010259Y-85064056D01*
X146041768Y-85060631D01*
X146057208Y-85049541D01*
X146061523Y-85028808D01*
X146065208Y-84984645D01*
X146067969Y-84922646D01*
X146069512Y-84848409D01*
X146069735Y-84810206D01*
X146069957Y-84590283D01*
X146115666Y-84574349D01*
X146148018Y-84563515D01*
X146165615Y-84558462D01*
X146166123Y-84558414D01*
X146167888Y-84572148D01*
X146169829Y-84610230D01*
X146171782Y-84667982D01*
X146173584Y-84740727D01*
X146174843Y-84808786D01*
X146178814Y-85059157D01*
X146265900Y-85059157D01*
X146269896Y-84830740D01*
X146273892Y-84602322D01*
X146316347Y-84580368D01*
X146347692Y-84565293D01*
X146366244Y-84558451D01*
X146366779Y-84558414D01*
X146369333Y-84572163D01*
G37*
X146369333Y-84572163D02*
X146371548Y-84610350D01*
X146373284Y-84668386D01*
X146374399Y-84741680D01*
X146374757Y-84818555D01*
X146374757Y-85078696D01*
X146328826Y-85124627D01*
X146297175Y-85152929D01*
X146269390Y-85164393D01*
X146231415Y-85163668D01*
X146216340Y-85161821D01*
X146169226Y-85156448D01*
X146130256Y-85153369D01*
X146120757Y-85153085D01*
X146088733Y-85154945D01*
X146042932Y-85159614D01*
X146025174Y-85161821D01*
X145981557Y-85165235D01*
X145952245Y-85157820D01*
X145923180Y-85134927D01*
X145912688Y-85124627D01*
X145866757Y-85078696D01*
X145866757Y-84592102D01*
X145903726Y-84575258D01*
X145935559Y-84562782D01*
X145954183Y-84558414D01*
X145958958Y-84572218D01*
X145963421Y-84610786D01*
X145967275Y-84669856D01*
X145970222Y-84745163D01*
X145971643Y-84808786D01*
X145975614Y-85059157D01*
X146010259Y-85064056D01*
X146041768Y-85060631D01*
X146057208Y-85049541D01*
X146061523Y-85028808D01*
X146065208Y-84984645D01*
X146067969Y-84922646D01*
X146069512Y-84848409D01*
X146069735Y-84810206D01*
X146069957Y-84590283D01*
X146115666Y-84574349D01*
X146148018Y-84563515D01*
X146165615Y-84558462D01*
X146166123Y-84558414D01*
X146167888Y-84572148D01*
X146169829Y-84610230D01*
X146171782Y-84667982D01*
X146173584Y-84740727D01*
X146174843Y-84808786D01*
X146178814Y-85059157D01*
X146265900Y-85059157D01*
X146269896Y-84830740D01*
X146273892Y-84602322D01*
X146316347Y-84580368D01*
X146347692Y-84565293D01*
X146366244Y-84558451D01*
X146366779Y-84558414D01*
X146369333Y-84572163D01*
G36*
X146734376Y-84569835D02*
G01*
X146776167Y-84588844D01*
X146808969Y-84611878D01*
X146833003Y-84637633D01*
X146849597Y-84670858D01*
X146860077Y-84716300D01*
X146865771Y-84778707D01*
X146868007Y-84862827D01*
X146868243Y-84918221D01*
X146868243Y-85134326D01*
X146831274Y-85151170D01*
X146802156Y-85163481D01*
X146787731Y-85168014D01*
X146784972Y-85154525D01*
X146782782Y-85118153D01*
X146781442Y-85065042D01*
X146781157Y-85022872D01*
X146779934Y-84961947D01*
X146776636Y-84913615D01*
X146771821Y-84884018D01*
X146767996Y-84877729D01*
X146742283Y-84884152D01*
X146701918Y-84900625D01*
X146655179Y-84922958D01*
X146610345Y-84946957D01*
X146575693Y-84968430D01*
X146559502Y-84983185D01*
X146559438Y-84983345D01*
X146560830Y-85010652D01*
X146573318Y-85036719D01*
X146595243Y-85057892D01*
X146627243Y-85064974D01*
X146654592Y-85064149D01*
X146693326Y-85063542D01*
X146713658Y-85072616D01*
X146725869Y-85096592D01*
X146727409Y-85101113D01*
X146732703Y-85135306D01*
X146718547Y-85156068D01*
X146681648Y-85165962D01*
X146641789Y-85167792D01*
X146570062Y-85154227D01*
X146532932Y-85134855D01*
X146487076Y-85089345D01*
X146462756Y-85033483D01*
X146460573Y-84974457D01*
X146481129Y-84919453D01*
X146512049Y-84884986D01*
X146542920Y-84865689D01*
X146591442Y-84841259D01*
X146647985Y-84816485D01*
X146657410Y-84812699D01*
X146719519Y-84785291D01*
X146755322Y-84761134D01*
X146766837Y-84737119D01*
X146756080Y-84710135D01*
X146737614Y-84689043D01*
X146693969Y-84663072D01*
X146645946Y-84661124D01*
X146601906Y-84681137D01*
X146570209Y-84721051D01*
X146566049Y-84731348D01*
X146541827Y-84769224D01*
X146506465Y-84797342D01*
X146461843Y-84820417D01*
X146461843Y-84754985D01*
X146464469Y-84715006D01*
X146475730Y-84683497D01*
X146500699Y-84649878D01*
X146524669Y-84623984D01*
X146561941Y-84587317D01*
X146590901Y-84567621D01*
X146622005Y-84559720D01*
X146657213Y-84558414D01*
X146734376Y-84569835D01*
G37*
X146734376Y-84569835D02*
X146776167Y-84588844D01*
X146808969Y-84611878D01*
X146833003Y-84637633D01*
X146849597Y-84670858D01*
X146860077Y-84716300D01*
X146865771Y-84778707D01*
X146868007Y-84862827D01*
X146868243Y-84918221D01*
X146868243Y-85134326D01*
X146831274Y-85151170D01*
X146802156Y-85163481D01*
X146787731Y-85168014D01*
X146784972Y-85154525D01*
X146782782Y-85118153D01*
X146781442Y-85065042D01*
X146781157Y-85022872D01*
X146779934Y-84961947D01*
X146776636Y-84913615D01*
X146771821Y-84884018D01*
X146767996Y-84877729D01*
X146742283Y-84884152D01*
X146701918Y-84900625D01*
X146655179Y-84922958D01*
X146610345Y-84946957D01*
X146575693Y-84968430D01*
X146559502Y-84983185D01*
X146559438Y-84983345D01*
X146560830Y-85010652D01*
X146573318Y-85036719D01*
X146595243Y-85057892D01*
X146627243Y-85064974D01*
X146654592Y-85064149D01*
X146693326Y-85063542D01*
X146713658Y-85072616D01*
X146725869Y-85096592D01*
X146727409Y-85101113D01*
X146732703Y-85135306D01*
X146718547Y-85156068D01*
X146681648Y-85165962D01*
X146641789Y-85167792D01*
X146570062Y-85154227D01*
X146532932Y-85134855D01*
X146487076Y-85089345D01*
X146462756Y-85033483D01*
X146460573Y-84974457D01*
X146481129Y-84919453D01*
X146512049Y-84884986D01*
X146542920Y-84865689D01*
X146591442Y-84841259D01*
X146647985Y-84816485D01*
X146657410Y-84812699D01*
X146719519Y-84785291D01*
X146755322Y-84761134D01*
X146766837Y-84737119D01*
X146756080Y-84710135D01*
X146737614Y-84689043D01*
X146693969Y-84663072D01*
X146645946Y-84661124D01*
X146601906Y-84681137D01*
X146570209Y-84721051D01*
X146566049Y-84731348D01*
X146541827Y-84769224D01*
X146506465Y-84797342D01*
X146461843Y-84820417D01*
X146461843Y-84754985D01*
X146464469Y-84715006D01*
X146475730Y-84683497D01*
X146500699Y-84649878D01*
X146524669Y-84623984D01*
X146561941Y-84587317D01*
X146590901Y-84567621D01*
X146622005Y-84559720D01*
X146657213Y-84558414D01*
X146734376Y-84569835D01*
G36*
X147242100Y-84572252D02*
G01*
X147259448Y-84579834D01*
X147300856Y-84612628D01*
X147336265Y-84660047D01*
X147358164Y-84710651D01*
X147361729Y-84735598D01*
X147349779Y-84770427D01*
X147323567Y-84788857D01*
X147295464Y-84800016D01*
X147282595Y-84802072D01*
X147276329Y-84787149D01*
X147263956Y-84754675D01*
X147258528Y-84740002D01*
X147228090Y-84689244D01*
X147184020Y-84663927D01*
X147127510Y-84664706D01*
X147123325Y-84665703D01*
X147093155Y-84680007D01*
X147070976Y-84707893D01*
X147055827Y-84752787D01*
X147046750Y-84818115D01*
X147042786Y-84907304D01*
X147042414Y-84954761D01*
X147042230Y-85029571D01*
X147041022Y-85080569D01*
X147037809Y-85112971D01*
X147031609Y-85131995D01*
X147021440Y-85142856D01*
X147006319Y-85150772D01*
X147005446Y-85151170D01*
X146976328Y-85163481D01*
X146961903Y-85168014D01*
X146959686Y-85154309D01*
X146957789Y-85116425D01*
X146956347Y-85059215D01*
X146955498Y-84987527D01*
X146955329Y-84935065D01*
X146956192Y-84833547D01*
X146959570Y-84756532D01*
X146966642Y-84699523D01*
X146978588Y-84658026D01*
X146996590Y-84627543D01*
X147021827Y-84603580D01*
X147046747Y-84586855D01*
X147106671Y-84564597D01*
X147176411Y-84559576D01*
X147242100Y-84572252D01*
G37*
X147242100Y-84572252D02*
X147259448Y-84579834D01*
X147300856Y-84612628D01*
X147336265Y-84660047D01*
X147358164Y-84710651D01*
X147361729Y-84735598D01*
X147349779Y-84770427D01*
X147323567Y-84788857D01*
X147295464Y-84800016D01*
X147282595Y-84802072D01*
X147276329Y-84787149D01*
X147263956Y-84754675D01*
X147258528Y-84740002D01*
X147228090Y-84689244D01*
X147184020Y-84663927D01*
X147127510Y-84664706D01*
X147123325Y-84665703D01*
X147093155Y-84680007D01*
X147070976Y-84707893D01*
X147055827Y-84752787D01*
X147046750Y-84818115D01*
X147042786Y-84907304D01*
X147042414Y-84954761D01*
X147042230Y-85029571D01*
X147041022Y-85080569D01*
X147037809Y-85112971D01*
X147031609Y-85131995D01*
X147021440Y-85142856D01*
X147006319Y-85150772D01*
X147005446Y-85151170D01*
X146976328Y-85163481D01*
X146961903Y-85168014D01*
X146959686Y-85154309D01*
X146957789Y-85116425D01*
X146956347Y-85059215D01*
X146955498Y-84987527D01*
X146955329Y-84935065D01*
X146956192Y-84833547D01*
X146959570Y-84756532D01*
X146966642Y-84699523D01*
X146978588Y-84658026D01*
X146996590Y-84627543D01*
X147021827Y-84603580D01*
X147046747Y-84586855D01*
X147106671Y-84564597D01*
X147176411Y-84559576D01*
X147242100Y-84572252D01*
G36*
X147743095Y-84580466D02*
G01*
X147800521Y-84617997D01*
X147828219Y-84651596D01*
X147850162Y-84712564D01*
X147851905Y-84760808D01*
X147847957Y-84825316D01*
X147699186Y-84890434D01*
X147626849Y-84923702D01*
X147579584Y-84950464D01*
X147555007Y-84973644D01*
X147550737Y-84996167D01*
X147564389Y-85020955D01*
X147579443Y-85037386D01*
X147623246Y-85063735D01*
X147670889Y-85065581D01*
X147714645Y-85045046D01*
X147746789Y-85004252D01*
X147752538Y-84989847D01*
X147780076Y-84944856D01*
X147811758Y-84925682D01*
X147855214Y-84909279D01*
X147855214Y-84971466D01*
X147851372Y-85013783D01*
X147836323Y-85049469D01*
X147804780Y-85090443D01*
X147800092Y-85095767D01*
X147765006Y-85132220D01*
X147734847Y-85151783D01*
X147697115Y-85160783D01*
X147665835Y-85163730D01*
X147609885Y-85164465D01*
X147570055Y-85155160D01*
X147545208Y-85141346D01*
X147506156Y-85110967D01*
X147479125Y-85078113D01*
X147462017Y-85036794D01*
X147452738Y-84981021D01*
X147449193Y-84904805D01*
X147448910Y-84866122D01*
X147449872Y-84819747D01*
X147537507Y-84819747D01*
X147538523Y-84844626D01*
X147541056Y-84848700D01*
X147557774Y-84843165D01*
X147593749Y-84828517D01*
X147641831Y-84807690D01*
X147651886Y-84803214D01*
X147712652Y-84772314D01*
X147746132Y-84745157D01*
X147753490Y-84719720D01*
X147735891Y-84693981D01*
X147721356Y-84682609D01*
X147668910Y-84659864D01*
X147619822Y-84663622D01*
X147578727Y-84691384D01*
X147550258Y-84740652D01*
X147541131Y-84779757D01*
X147537507Y-84819747D01*
X147449872Y-84819747D01*
X147450785Y-84775749D01*
X147457696Y-84708884D01*
X147471384Y-84660195D01*
X147493596Y-84624349D01*
X147526074Y-84596013D01*
X147540233Y-84586855D01*
X147604553Y-84563007D01*
X147674973Y-84561506D01*
X147743095Y-84580466D01*
G37*
X147743095Y-84580466D02*
X147800521Y-84617997D01*
X147828219Y-84651596D01*
X147850162Y-84712564D01*
X147851905Y-84760808D01*
X147847957Y-84825316D01*
X147699186Y-84890434D01*
X147626849Y-84923702D01*
X147579584Y-84950464D01*
X147555007Y-84973644D01*
X147550737Y-84996167D01*
X147564389Y-85020955D01*
X147579443Y-85037386D01*
X147623246Y-85063735D01*
X147670889Y-85065581D01*
X147714645Y-85045046D01*
X147746789Y-85004252D01*
X147752538Y-84989847D01*
X147780076Y-84944856D01*
X147811758Y-84925682D01*
X147855214Y-84909279D01*
X147855214Y-84971466D01*
X147851372Y-85013783D01*
X147836323Y-85049469D01*
X147804780Y-85090443D01*
X147800092Y-85095767D01*
X147765006Y-85132220D01*
X147734847Y-85151783D01*
X147697115Y-85160783D01*
X147665835Y-85163730D01*
X147609885Y-85164465D01*
X147570055Y-85155160D01*
X147545208Y-85141346D01*
X147506156Y-85110967D01*
X147479125Y-85078113D01*
X147462017Y-85036794D01*
X147452738Y-84981021D01*
X147449193Y-84904805D01*
X147448910Y-84866122D01*
X147449872Y-84819747D01*
X147537507Y-84819747D01*
X147538523Y-84844626D01*
X147541056Y-84848700D01*
X147557774Y-84843165D01*
X147593749Y-84828517D01*
X147641831Y-84807690D01*
X147651886Y-84803214D01*
X147712652Y-84772314D01*
X147746132Y-84745157D01*
X147753490Y-84719720D01*
X147735891Y-84693981D01*
X147721356Y-84682609D01*
X147668910Y-84659864D01*
X147619822Y-84663622D01*
X147578727Y-84691384D01*
X147550258Y-84740652D01*
X147541131Y-84779757D01*
X147537507Y-84819747D01*
X147449872Y-84819747D01*
X147450785Y-84775749D01*
X147457696Y-84708884D01*
X147471384Y-84660195D01*
X147493596Y-84624349D01*
X147526074Y-84596013D01*
X147540233Y-84586855D01*
X147604553Y-84563007D01*
X147674973Y-84561506D01*
X147743095Y-84580466D01*
G36*
X144693410Y-79855848D02*
G01*
X144771954Y-79856278D01*
X144828798Y-79857442D01*
X144867605Y-79859707D01*
X144892038Y-79863440D01*
X144905762Y-79869006D01*
X144912440Y-79876773D01*
X144915736Y-79887105D01*
X144916056Y-79888443D01*
X144921062Y-79912579D01*
X144930329Y-79960201D01*
X144942892Y-80026241D01*
X144957787Y-80105628D01*
X144974051Y-80193296D01*
X144974619Y-80196375D01*
X144990910Y-80282289D01*
X145006152Y-80358196D01*
X145019361Y-80419545D01*
X145029554Y-80461782D01*
X145035748Y-80480355D01*
X145036043Y-80480684D01*
X145054288Y-80489753D01*
X145091905Y-80504867D01*
X145140771Y-80522762D01*
X145141043Y-80522858D01*
X145202593Y-80545993D01*
X145275157Y-80575465D01*
X145343557Y-80605097D01*
X145346794Y-80606562D01*
X145458202Y-80657126D01*
X145704899Y-80488660D01*
X145780577Y-80437303D01*
X145849131Y-80391389D01*
X145906588Y-80353530D01*
X145948976Y-80326337D01*
X145972325Y-80312421D01*
X145974542Y-80311389D01*
X145991510Y-80315984D01*
X146023201Y-80338155D01*
X146070852Y-80378947D01*
X146135698Y-80439405D01*
X146201897Y-80503727D01*
X146265714Y-80567112D01*
X146322829Y-80624951D01*
X146369805Y-80673675D01*
X146403203Y-80709710D01*
X146419585Y-80729484D01*
X146420194Y-80730502D01*
X146422005Y-80744072D01*
X146415183Y-80766233D01*
X146398040Y-80799978D01*
X146368893Y-80848300D01*
X146326055Y-80914192D01*
X146268948Y-80999017D01*
X146218266Y-81073677D01*
X146172961Y-81140640D01*
X146135650Y-81196016D01*
X146108952Y-81235920D01*
X146095485Y-81256462D01*
X146094637Y-81257856D01*
X146096281Y-81277538D01*
X146108745Y-81315793D01*
X146129548Y-81365389D01*
X146136962Y-81381228D01*
X146169314Y-81451790D01*
X146203828Y-81531853D01*
X146231865Y-81601129D01*
X146252068Y-81652545D01*
X146268115Y-81691619D01*
X146277388Y-81712041D01*
X146278541Y-81713614D01*
X146295596Y-81716221D01*
X146335798Y-81723363D01*
X146393802Y-81734023D01*
X146464263Y-81747185D01*
X146541835Y-81761833D01*
X146621172Y-81776949D01*
X146696931Y-81791518D01*
X146763764Y-81804522D01*
X146816328Y-81814945D01*
X146849276Y-81821770D01*
X146857357Y-81823699D01*
X146865705Y-81828462D01*
X146872006Y-81839218D01*
X146876545Y-81859598D01*
X146879604Y-81893234D01*
X146881467Y-81943755D01*
X146882418Y-82014792D01*
X146882740Y-82109976D01*
X146882757Y-82148992D01*
X146882757Y-82466299D01*
X146806557Y-82481339D01*
X146764163Y-82489495D01*
X146700900Y-82501399D01*
X146624462Y-82515616D01*
X146542543Y-82530710D01*
X146519900Y-82534855D01*
X146444306Y-82549553D01*
X146378453Y-82564005D01*
X146327866Y-82576875D01*
X146298074Y-82586822D01*
X146293112Y-82589787D01*
X146280926Y-82610783D01*
X146263453Y-82651467D01*
X146244077Y-82703822D01*
X146240234Y-82715100D01*
X146214839Y-82785023D01*
X146183317Y-82863918D01*
X146152469Y-82934766D01*
X146152317Y-82935095D01*
X146100947Y-83046233D01*
X146269899Y-83294753D01*
X146438852Y-83543272D01*
X146221929Y-83760558D01*
X146156319Y-83825226D01*
X146096479Y-83882233D01*
X146045767Y-83928533D01*
X146007546Y-83961084D01*
X145985175Y-83976843D01*
X145981966Y-83977843D01*
X145963126Y-83969969D01*
X145924680Y-83948078D01*
X145870830Y-83914767D01*
X145805776Y-83872631D01*
X145735440Y-83825443D01*
X145664055Y-83777310D01*
X145600408Y-83735428D01*
X145548541Y-83702371D01*
X145512495Y-83680718D01*
X145496367Y-83673043D01*
X145476689Y-83679537D01*
X145439375Y-83696650D01*
X145392121Y-83720826D01*
X145387112Y-83723513D01*
X145323477Y-83755427D01*
X145279841Y-83771079D01*
X145252702Y-83771245D01*
X145238557Y-83756704D01*
X145238475Y-83756500D01*
X145231405Y-83739279D01*
X145214542Y-83698399D01*
X145189195Y-83637025D01*
X145156671Y-83558319D01*
X145118278Y-83465447D01*
X145075322Y-83361572D01*
X145033722Y-83261002D01*
X144988004Y-83150016D01*
X144946026Y-83047203D01*
X144909048Y-82955715D01*
X144878327Y-82878701D01*
X144855122Y-82819315D01*
X144840690Y-82780709D01*
X144836243Y-82766300D01*
X144847396Y-82749772D01*
X144876569Y-82723430D01*
X144915471Y-82694387D01*
X145026257Y-82602539D01*
X145112851Y-82497259D01*
X145174216Y-82380766D01*
X145209315Y-82255276D01*
X145217108Y-82123007D01*
X145211443Y-82061957D01*
X145180578Y-81935295D01*
X145127420Y-81823441D01*
X145055267Y-81727501D01*
X144967417Y-81648576D01*
X144867165Y-81587770D01*
X144757810Y-81546187D01*
X144642647Y-81524928D01*
X144524975Y-81525099D01*
X144408090Y-81547801D01*
X144295289Y-81594138D01*
X144189869Y-81665213D01*
X144145868Y-81705411D01*
X144061479Y-81808629D01*
X144002722Y-81921425D01*
X143969204Y-82040510D01*
X143960535Y-82162595D01*
X143976323Y-82284393D01*
X144016178Y-82402616D01*
X144079707Y-82513975D01*
X144166521Y-82615184D01*
X144263529Y-82694387D01*
X144303937Y-82724662D01*
X144332482Y-82750719D01*
X144342757Y-82766325D01*
X144337377Y-82783343D01*
X144322075Y-82824000D01*
X144298112Y-82885142D01*
X144266744Y-82963619D01*
X144229232Y-83056280D01*
X144186833Y-83159972D01*
X144145163Y-83261026D01*
X144099190Y-83372107D01*
X144056607Y-83475041D01*
X144018721Y-83566665D01*
X143986840Y-83643816D01*
X143962271Y-83703331D01*
X143946320Y-83742044D01*
X143940410Y-83756500D01*
X143926448Y-83771185D01*
X143899440Y-83771142D01*
X143855913Y-83755599D01*
X143792390Y-83723784D01*
X143791888Y-83723513D01*
X143744060Y-83698823D01*
X143705397Y-83680838D01*
X143683595Y-83673114D01*
X143682633Y-83673043D01*
X143666221Y-83680878D01*
X143629987Y-83702665D01*
X143577974Y-83735828D01*
X143514225Y-83777791D01*
X143443560Y-83825443D01*
X143371616Y-83873691D01*
X143306774Y-83915651D01*
X143253235Y-83948727D01*
X143215197Y-83970321D01*
X143197033Y-83977843D01*
X143180308Y-83967957D01*
X143146680Y-83940326D01*
X143099510Y-83897995D01*
X143042158Y-83844005D01*
X142977984Y-83781399D01*
X142956997Y-83760483D01*
X142739999Y-83543123D01*
X142905168Y-83300720D01*
X142955364Y-83226281D01*
X142999419Y-83159472D01*
X143034862Y-83104165D01*
X143059219Y-83064229D01*
X143070022Y-83043536D01*
X143070338Y-83042063D01*
X143064643Y-83022558D01*
X143049326Y-82983322D01*
X143027037Y-82930930D01*
X143011393Y-82895855D01*
X142982141Y-82828701D01*
X142954594Y-82760858D01*
X142933237Y-82703534D01*
X142927435Y-82686072D01*
X142910952Y-82639438D01*
X142894840Y-82603405D01*
X142885990Y-82589787D01*
X142866460Y-82581452D01*
X142823834Y-82569637D01*
X142763645Y-82555681D01*
X142691422Y-82540922D01*
X142659100Y-82534855D01*
X142577022Y-82519773D01*
X142498295Y-82505169D01*
X142430609Y-82492480D01*
X142381660Y-82483142D01*
X142372443Y-82481339D01*
X142296243Y-82466299D01*
X142296243Y-82148992D01*
X142296414Y-82044654D01*
X142297116Y-81965713D01*
X142298634Y-81908538D01*
X142301249Y-81869499D01*
X142305246Y-81844965D01*
X142310909Y-81831305D01*
X142318520Y-81824889D01*
X142321643Y-81823699D01*
X142340478Y-81819480D01*
X142382088Y-81811062D01*
X142441130Y-81799461D01*
X142512257Y-81785695D01*
X142590125Y-81770780D01*
X142669387Y-81755732D01*
X142744698Y-81741569D01*
X142810713Y-81729306D01*
X142862087Y-81719961D01*
X142893475Y-81714550D01*
X142900459Y-81713614D01*
X142906785Y-81701096D01*
X142920790Y-81667746D01*
X142939855Y-81619877D01*
X142947134Y-81601129D01*
X142976496Y-81528695D01*
X143011071Y-81448670D01*
X143042037Y-81381228D01*
X143064823Y-81329659D01*
X143079982Y-81287285D01*
X143085042Y-81261334D01*
X143084236Y-81257856D01*
X143073541Y-81241436D01*
X143049120Y-81204917D01*
X143013595Y-81152187D01*
X142969587Y-81087135D01*
X142919717Y-81013651D01*
X142909856Y-80999145D01*
X142851992Y-80913204D01*
X142809456Y-80847761D01*
X142780554Y-80799804D01*
X142763590Y-80766320D01*
X142756867Y-80744295D01*
X142758690Y-80730717D01*
X142758736Y-80730631D01*
X142773086Y-80712797D01*
X142804823Y-80678317D01*
X142850510Y-80630768D01*
X142906704Y-80573722D01*
X142969968Y-80510755D01*
X142977102Y-80503727D01*
X143056830Y-80426520D01*
X143118357Y-80369830D01*
X143162921Y-80332610D01*
X143191757Y-80313815D01*
X143204458Y-80311389D01*
X143222994Y-80321971D01*
X143261461Y-80346416D01*
X143315886Y-80382112D01*
X143382298Y-80426447D01*
X143456725Y-80476811D01*
X143474101Y-80488660D01*
X143720797Y-80657126D01*
X143832206Y-80606562D01*
X143899957Y-80577095D01*
X143972683Y-80547459D01*
X144035203Y-80523830D01*
X144037957Y-80522858D01*
X144086860Y-80504957D01*
X144124557Y-80489820D01*
X144142925Y-80480710D01*
X144142956Y-80480684D01*
X144148785Y-80464217D01*
X144158692Y-80423719D01*
X144171695Y-80363742D01*
X144186809Y-80288840D01*
X144203052Y-80203564D01*
X144204381Y-80196375D01*
X144220675Y-80108514D01*
X144235633Y-80028760D01*
X144248291Y-79962181D01*
X144257686Y-79913847D01*
X144262854Y-79888825D01*
X144262944Y-79888443D01*
X144266089Y-79877799D01*
X144272204Y-79869762D01*
X144284953Y-79863967D01*
X144308000Y-79860047D01*
X144345009Y-79857635D01*
X144399644Y-79856365D01*
X144475567Y-79855871D01*
X144576444Y-79855786D01*
X144589500Y-79855786D01*
X144693410Y-79855848D01*
G37*
X144693410Y-79855848D02*
X144771954Y-79856278D01*
X144828798Y-79857442D01*
X144867605Y-79859707D01*
X144892038Y-79863440D01*
X144905762Y-79869006D01*
X144912440Y-79876773D01*
X144915736Y-79887105D01*
X144916056Y-79888443D01*
X144921062Y-79912579D01*
X144930329Y-79960201D01*
X144942892Y-80026241D01*
X144957787Y-80105628D01*
X144974051Y-80193296D01*
X144974619Y-80196375D01*
X144990910Y-80282289D01*
X145006152Y-80358196D01*
X145019361Y-80419545D01*
X145029554Y-80461782D01*
X145035748Y-80480355D01*
X145036043Y-80480684D01*
X145054288Y-80489753D01*
X145091905Y-80504867D01*
X145140771Y-80522762D01*
X145141043Y-80522858D01*
X145202593Y-80545993D01*
X145275157Y-80575465D01*
X145343557Y-80605097D01*
X145346794Y-80606562D01*
X145458202Y-80657126D01*
X145704899Y-80488660D01*
X145780577Y-80437303D01*
X145849131Y-80391389D01*
X145906588Y-80353530D01*
X145948976Y-80326337D01*
X145972325Y-80312421D01*
X145974542Y-80311389D01*
X145991510Y-80315984D01*
X146023201Y-80338155D01*
X146070852Y-80378947D01*
X146135698Y-80439405D01*
X146201897Y-80503727D01*
X146265714Y-80567112D01*
X146322829Y-80624951D01*
X146369805Y-80673675D01*
X146403203Y-80709710D01*
X146419585Y-80729484D01*
X146420194Y-80730502D01*
X146422005Y-80744072D01*
X146415183Y-80766233D01*
X146398040Y-80799978D01*
X146368893Y-80848300D01*
X146326055Y-80914192D01*
X146268948Y-80999017D01*
X146218266Y-81073677D01*
X146172961Y-81140640D01*
X146135650Y-81196016D01*
X146108952Y-81235920D01*
X146095485Y-81256462D01*
X146094637Y-81257856D01*
X146096281Y-81277538D01*
X146108745Y-81315793D01*
X146129548Y-81365389D01*
X146136962Y-81381228D01*
X146169314Y-81451790D01*
X146203828Y-81531853D01*
X146231865Y-81601129D01*
X146252068Y-81652545D01*
X146268115Y-81691619D01*
X146277388Y-81712041D01*
X146278541Y-81713614D01*
X146295596Y-81716221D01*
X146335798Y-81723363D01*
X146393802Y-81734023D01*
X146464263Y-81747185D01*
X146541835Y-81761833D01*
X146621172Y-81776949D01*
X146696931Y-81791518D01*
X146763764Y-81804522D01*
X146816328Y-81814945D01*
X146849276Y-81821770D01*
X146857357Y-81823699D01*
X146865705Y-81828462D01*
X146872006Y-81839218D01*
X146876545Y-81859598D01*
X146879604Y-81893234D01*
X146881467Y-81943755D01*
X146882418Y-82014792D01*
X146882740Y-82109976D01*
X146882757Y-82148992D01*
X146882757Y-82466299D01*
X146806557Y-82481339D01*
X146764163Y-82489495D01*
X146700900Y-82501399D01*
X146624462Y-82515616D01*
X146542543Y-82530710D01*
X146519900Y-82534855D01*
X146444306Y-82549553D01*
X146378453Y-82564005D01*
X146327866Y-82576875D01*
X146298074Y-82586822D01*
X146293112Y-82589787D01*
X146280926Y-82610783D01*
X146263453Y-82651467D01*
X146244077Y-82703822D01*
X146240234Y-82715100D01*
X146214839Y-82785023D01*
X146183317Y-82863918D01*
X146152469Y-82934766D01*
X146152317Y-82935095D01*
X146100947Y-83046233D01*
X146269899Y-83294753D01*
X146438852Y-83543272D01*
X146221929Y-83760558D01*
X146156319Y-83825226D01*
X146096479Y-83882233D01*
X146045767Y-83928533D01*
X146007546Y-83961084D01*
X145985175Y-83976843D01*
X145981966Y-83977843D01*
X145963126Y-83969969D01*
X145924680Y-83948078D01*
X145870830Y-83914767D01*
X145805776Y-83872631D01*
X145735440Y-83825443D01*
X145664055Y-83777310D01*
X145600408Y-83735428D01*
X145548541Y-83702371D01*
X145512495Y-83680718D01*
X145496367Y-83673043D01*
X145476689Y-83679537D01*
X145439375Y-83696650D01*
X145392121Y-83720826D01*
X145387112Y-83723513D01*
X145323477Y-83755427D01*
X145279841Y-83771079D01*
X145252702Y-83771245D01*
X145238557Y-83756704D01*
X145238475Y-83756500D01*
X145231405Y-83739279D01*
X145214542Y-83698399D01*
X145189195Y-83637025D01*
X145156671Y-83558319D01*
X145118278Y-83465447D01*
X145075322Y-83361572D01*
X145033722Y-83261002D01*
X144988004Y-83150016D01*
X144946026Y-83047203D01*
X144909048Y-82955715D01*
X144878327Y-82878701D01*
X144855122Y-82819315D01*
X144840690Y-82780709D01*
X144836243Y-82766300D01*
X144847396Y-82749772D01*
X144876569Y-82723430D01*
X144915471Y-82694387D01*
X145026257Y-82602539D01*
X145112851Y-82497259D01*
X145174216Y-82380766D01*
X145209315Y-82255276D01*
X145217108Y-82123007D01*
X145211443Y-82061957D01*
X145180578Y-81935295D01*
X145127420Y-81823441D01*
X145055267Y-81727501D01*
X144967417Y-81648576D01*
X144867165Y-81587770D01*
X144757810Y-81546187D01*
X144642647Y-81524928D01*
X144524975Y-81525099D01*
X144408090Y-81547801D01*
X144295289Y-81594138D01*
X144189869Y-81665213D01*
X144145868Y-81705411D01*
X144061479Y-81808629D01*
X144002722Y-81921425D01*
X143969204Y-82040510D01*
X143960535Y-82162595D01*
X143976323Y-82284393D01*
X144016178Y-82402616D01*
X144079707Y-82513975D01*
X144166521Y-82615184D01*
X144263529Y-82694387D01*
X144303937Y-82724662D01*
X144332482Y-82750719D01*
X144342757Y-82766325D01*
X144337377Y-82783343D01*
X144322075Y-82824000D01*
X144298112Y-82885142D01*
X144266744Y-82963619D01*
X144229232Y-83056280D01*
X144186833Y-83159972D01*
X144145163Y-83261026D01*
X144099190Y-83372107D01*
X144056607Y-83475041D01*
X144018721Y-83566665D01*
X143986840Y-83643816D01*
X143962271Y-83703331D01*
X143946320Y-83742044D01*
X143940410Y-83756500D01*
X143926448Y-83771185D01*
X143899440Y-83771142D01*
X143855913Y-83755599D01*
X143792390Y-83723784D01*
X143791888Y-83723513D01*
X143744060Y-83698823D01*
X143705397Y-83680838D01*
X143683595Y-83673114D01*
X143682633Y-83673043D01*
X143666221Y-83680878D01*
X143629987Y-83702665D01*
X143577974Y-83735828D01*
X143514225Y-83777791D01*
X143443560Y-83825443D01*
X143371616Y-83873691D01*
X143306774Y-83915651D01*
X143253235Y-83948727D01*
X143215197Y-83970321D01*
X143197033Y-83977843D01*
X143180308Y-83967957D01*
X143146680Y-83940326D01*
X143099510Y-83897995D01*
X143042158Y-83844005D01*
X142977984Y-83781399D01*
X142956997Y-83760483D01*
X142739999Y-83543123D01*
X142905168Y-83300720D01*
X142955364Y-83226281D01*
X142999419Y-83159472D01*
X143034862Y-83104165D01*
X143059219Y-83064229D01*
X143070022Y-83043536D01*
X143070338Y-83042063D01*
X143064643Y-83022558D01*
X143049326Y-82983322D01*
X143027037Y-82930930D01*
X143011393Y-82895855D01*
X142982141Y-82828701D01*
X142954594Y-82760858D01*
X142933237Y-82703534D01*
X142927435Y-82686072D01*
X142910952Y-82639438D01*
X142894840Y-82603405D01*
X142885990Y-82589787D01*
X142866460Y-82581452D01*
X142823834Y-82569637D01*
X142763645Y-82555681D01*
X142691422Y-82540922D01*
X142659100Y-82534855D01*
X142577022Y-82519773D01*
X142498295Y-82505169D01*
X142430609Y-82492480D01*
X142381660Y-82483142D01*
X142372443Y-82481339D01*
X142296243Y-82466299D01*
X142296243Y-82148992D01*
X142296414Y-82044654D01*
X142297116Y-81965713D01*
X142298634Y-81908538D01*
X142301249Y-81869499D01*
X142305246Y-81844965D01*
X142310909Y-81831305D01*
X142318520Y-81824889D01*
X142321643Y-81823699D01*
X142340478Y-81819480D01*
X142382088Y-81811062D01*
X142441130Y-81799461D01*
X142512257Y-81785695D01*
X142590125Y-81770780D01*
X142669387Y-81755732D01*
X142744698Y-81741569D01*
X142810713Y-81729306D01*
X142862087Y-81719961D01*
X142893475Y-81714550D01*
X142900459Y-81713614D01*
X142906785Y-81701096D01*
X142920790Y-81667746D01*
X142939855Y-81619877D01*
X142947134Y-81601129D01*
X142976496Y-81528695D01*
X143011071Y-81448670D01*
X143042037Y-81381228D01*
X143064823Y-81329659D01*
X143079982Y-81287285D01*
X143085042Y-81261334D01*
X143084236Y-81257856D01*
X143073541Y-81241436D01*
X143049120Y-81204917D01*
X143013595Y-81152187D01*
X142969587Y-81087135D01*
X142919717Y-81013651D01*
X142909856Y-80999145D01*
X142851992Y-80913204D01*
X142809456Y-80847761D01*
X142780554Y-80799804D01*
X142763590Y-80766320D01*
X142756867Y-80744295D01*
X142758690Y-80730717D01*
X142758736Y-80730631D01*
X142773086Y-80712797D01*
X142804823Y-80678317D01*
X142850510Y-80630768D01*
X142906704Y-80573722D01*
X142969968Y-80510755D01*
X142977102Y-80503727D01*
X143056830Y-80426520D01*
X143118357Y-80369830D01*
X143162921Y-80332610D01*
X143191757Y-80313815D01*
X143204458Y-80311389D01*
X143222994Y-80321971D01*
X143261461Y-80346416D01*
X143315886Y-80382112D01*
X143382298Y-80426447D01*
X143456725Y-80476811D01*
X143474101Y-80488660D01*
X143720797Y-80657126D01*
X143832206Y-80606562D01*
X143899957Y-80577095D01*
X143972683Y-80547459D01*
X144035203Y-80523830D01*
X144037957Y-80522858D01*
X144086860Y-80504957D01*
X144124557Y-80489820D01*
X144142925Y-80480710D01*
X144142956Y-80480684D01*
X144148785Y-80464217D01*
X144158692Y-80423719D01*
X144171695Y-80363742D01*
X144186809Y-80288840D01*
X144203052Y-80203564D01*
X144204381Y-80196375D01*
X144220675Y-80108514D01*
X144235633Y-80028760D01*
X144248291Y-79962181D01*
X144257686Y-79913847D01*
X144262854Y-79888825D01*
X144262944Y-79888443D01*
X144266089Y-79877799D01*
X144272204Y-79869762D01*
X144284953Y-79863967D01*
X144308000Y-79860047D01*
X144345009Y-79857635D01*
X144399644Y-79856365D01*
X144475567Y-79855871D01*
X144576444Y-79855786D01*
X144589500Y-79855786D01*
X144693410Y-79855848D01*
D15*
%TO.C,C2*%
X154717500Y-89896000D02*
G75*
G03*
X154717500Y-89896000I-3270000J0D01*
G01*
X154677500Y-89896000D02*
X148217500Y-89896000D01*
X154677500Y-89936000D02*
X148217500Y-89936000D01*
X154677500Y-89976000D02*
X148217500Y-89976000D01*
X154675500Y-90016000D02*
X148219500Y-90016000D01*
X154674500Y-90056000D02*
X148220500Y-90056000D01*
X154671500Y-90096000D02*
X148223500Y-90096000D01*
X154669500Y-90136000D02*
X152487500Y-90136000D01*
X150407500Y-90136000D02*
X148225500Y-90136000D01*
X154665500Y-90176000D02*
X152487500Y-90176000D01*
X150407500Y-90176000D02*
X148229500Y-90176000D01*
X154662500Y-90216000D02*
X152487500Y-90216000D01*
X150407500Y-90216000D02*
X148232500Y-90216000D01*
X154658500Y-90256000D02*
X152487500Y-90256000D01*
X150407500Y-90256000D02*
X148236500Y-90256000D01*
X154653500Y-90296000D02*
X152487500Y-90296000D01*
X150407500Y-90296000D02*
X148241500Y-90296000D01*
X154648500Y-90336000D02*
X152487500Y-90336000D01*
X150407500Y-90336000D02*
X148246500Y-90336000D01*
X154642500Y-90376000D02*
X152487500Y-90376000D01*
X150407500Y-90376000D02*
X148252500Y-90376000D01*
X154636500Y-90416000D02*
X152487500Y-90416000D01*
X150407500Y-90416000D02*
X148258500Y-90416000D01*
X154629500Y-90456000D02*
X152487500Y-90456000D01*
X150407500Y-90456000D02*
X148265500Y-90456000D01*
X154622500Y-90496000D02*
X152487500Y-90496000D01*
X150407500Y-90496000D02*
X148272500Y-90496000D01*
X154614500Y-90536000D02*
X152487500Y-90536000D01*
X150407500Y-90536000D02*
X148280500Y-90536000D01*
X154606500Y-90576000D02*
X152487500Y-90576000D01*
X150407500Y-90576000D02*
X148288500Y-90576000D01*
X154597500Y-90617000D02*
X152487500Y-90617000D01*
X150407500Y-90617000D02*
X148297500Y-90617000D01*
X154588500Y-90657000D02*
X152487500Y-90657000D01*
X150407500Y-90657000D02*
X148306500Y-90657000D01*
X154578500Y-90697000D02*
X152487500Y-90697000D01*
X150407500Y-90697000D02*
X148316500Y-90697000D01*
X154568500Y-90737000D02*
X152487500Y-90737000D01*
X150407500Y-90737000D02*
X148326500Y-90737000D01*
X154557500Y-90777000D02*
X152487500Y-90777000D01*
X150407500Y-90777000D02*
X148337500Y-90777000D01*
X154545500Y-90817000D02*
X152487500Y-90817000D01*
X150407500Y-90817000D02*
X148349500Y-90817000D01*
X154533500Y-90857000D02*
X152487500Y-90857000D01*
X150407500Y-90857000D02*
X148361500Y-90857000D01*
X154521500Y-90897000D02*
X152487500Y-90897000D01*
X150407500Y-90897000D02*
X148373500Y-90897000D01*
X154508500Y-90937000D02*
X152487500Y-90937000D01*
X150407500Y-90937000D02*
X148386500Y-90937000D01*
X154494500Y-90977000D02*
X152487500Y-90977000D01*
X150407500Y-90977000D02*
X148400500Y-90977000D01*
X154480500Y-91017000D02*
X152487500Y-91017000D01*
X150407500Y-91017000D02*
X148414500Y-91017000D01*
X154465500Y-91057000D02*
X152487500Y-91057000D01*
X150407500Y-91057000D02*
X148429500Y-91057000D01*
X154449500Y-91097000D02*
X152487500Y-91097000D01*
X150407500Y-91097000D02*
X148445500Y-91097000D01*
X154433500Y-91137000D02*
X152487500Y-91137000D01*
X150407500Y-91137000D02*
X148461500Y-91137000D01*
X154417500Y-91177000D02*
X152487500Y-91177000D01*
X150407500Y-91177000D02*
X148477500Y-91177000D01*
X154399500Y-91217000D02*
X152487500Y-91217000D01*
X150407500Y-91217000D02*
X148495500Y-91217000D01*
X154381500Y-91257000D02*
X152487500Y-91257000D01*
X150407500Y-91257000D02*
X148513500Y-91257000D01*
X154363500Y-91297000D02*
X152487500Y-91297000D01*
X150407500Y-91297000D02*
X148531500Y-91297000D01*
X154343500Y-91337000D02*
X152487500Y-91337000D01*
X150407500Y-91337000D02*
X148551500Y-91337000D01*
X154323500Y-91377000D02*
X152487500Y-91377000D01*
X150407500Y-91377000D02*
X148571500Y-91377000D01*
X154303500Y-91417000D02*
X152487500Y-91417000D01*
X150407500Y-91417000D02*
X148591500Y-91417000D01*
X154281500Y-91457000D02*
X152487500Y-91457000D01*
X150407500Y-91457000D02*
X148613500Y-91457000D01*
X154259500Y-91497000D02*
X152487500Y-91497000D01*
X150407500Y-91497000D02*
X148635500Y-91497000D01*
X154237500Y-91537000D02*
X152487500Y-91537000D01*
X150407500Y-91537000D02*
X148657500Y-91537000D01*
X154213500Y-91577000D02*
X152487500Y-91577000D01*
X150407500Y-91577000D02*
X148681500Y-91577000D01*
X154189500Y-91617000D02*
X152487500Y-91617000D01*
X150407500Y-91617000D02*
X148705500Y-91617000D01*
X154163500Y-91657000D02*
X152487500Y-91657000D01*
X150407500Y-91657000D02*
X148731500Y-91657000D01*
X154137500Y-91697000D02*
X152487500Y-91697000D01*
X150407500Y-91697000D02*
X148757500Y-91697000D01*
X154111500Y-91737000D02*
X152487500Y-91737000D01*
X150407500Y-91737000D02*
X148783500Y-91737000D01*
X154083500Y-91777000D02*
X152487500Y-91777000D01*
X150407500Y-91777000D02*
X148811500Y-91777000D01*
X154054500Y-91817000D02*
X152487500Y-91817000D01*
X150407500Y-91817000D02*
X148840500Y-91817000D01*
X154025500Y-91857000D02*
X152487500Y-91857000D01*
X150407500Y-91857000D02*
X148869500Y-91857000D01*
X153995500Y-91897000D02*
X152487500Y-91897000D01*
X150407500Y-91897000D02*
X148899500Y-91897000D01*
X153963500Y-91937000D02*
X152487500Y-91937000D01*
X150407500Y-91937000D02*
X148931500Y-91937000D01*
X153931500Y-91977000D02*
X152487500Y-91977000D01*
X150407500Y-91977000D02*
X148963500Y-91977000D01*
X153897500Y-92017000D02*
X152487500Y-92017000D01*
X150407500Y-92017000D02*
X148997500Y-92017000D01*
X153863500Y-92057000D02*
X152487500Y-92057000D01*
X150407500Y-92057000D02*
X149031500Y-92057000D01*
X153827500Y-92097000D02*
X152487500Y-92097000D01*
X150407500Y-92097000D02*
X149067500Y-92097000D01*
X153790500Y-92137000D02*
X152487500Y-92137000D01*
X150407500Y-92137000D02*
X149104500Y-92137000D01*
X153752500Y-92177000D02*
X152487500Y-92177000D01*
X150407500Y-92177000D02*
X149142500Y-92177000D01*
X153712500Y-92217000D02*
X149182500Y-92217000D01*
X153671500Y-92257000D02*
X149223500Y-92257000D01*
X153629500Y-92297000D02*
X149265500Y-92297000D01*
X153584500Y-92337000D02*
X149310500Y-92337000D01*
X153539500Y-92377000D02*
X149355500Y-92377000D01*
X153491500Y-92417000D02*
X149403500Y-92417000D01*
X153442500Y-92457000D02*
X149452500Y-92457000D01*
X153391500Y-92497000D02*
X149503500Y-92497000D01*
X153337500Y-92537000D02*
X149557500Y-92537000D01*
X153281500Y-92577000D02*
X149613500Y-92577000D01*
X153223500Y-92617000D02*
X149671500Y-92617000D01*
X153161500Y-92657000D02*
X149733500Y-92657000D01*
X153097500Y-92697000D02*
X149797500Y-92697000D01*
X153028500Y-92737000D02*
X149866500Y-92737000D01*
X152956500Y-92777000D02*
X149938500Y-92777000D01*
X152879500Y-92817000D02*
X150015500Y-92817000D01*
X152797500Y-92857000D02*
X150097500Y-92857000D01*
X152709500Y-92897000D02*
X150185500Y-92897000D01*
X152612500Y-92937000D02*
X150282500Y-92937000D01*
X152506500Y-92977000D02*
X150388500Y-92977000D01*
X152387500Y-93017000D02*
X150507500Y-93017000D01*
X152249500Y-93057000D02*
X150645500Y-93057000D01*
X152080500Y-93097000D02*
X150814500Y-93097000D01*
X151849500Y-93137000D02*
X151045500Y-93137000D01*
X153286500Y-86395759D02*
X153286500Y-87025759D01*
X153601500Y-86710759D02*
X152971500Y-86710759D01*
%TO.C,C1*%
X154284500Y-97415500D02*
X148944500Y-97415500D01*
X154284500Y-93973500D02*
X148944500Y-93973500D01*
X154284500Y-97415500D02*
X154284500Y-96749500D01*
X154284500Y-94639500D02*
X154284500Y-93973500D01*
X148944500Y-97415500D02*
X148944500Y-96749500D01*
X148944500Y-94639500D02*
X148944500Y-93973500D01*
%TO.C,R3*%
X141996000Y-97341000D02*
X141996000Y-87571000D01*
X147066000Y-97341000D02*
X147066000Y-87571000D01*
X141996000Y-97341000D02*
X147066000Y-97341000D01*
X141996000Y-87571000D02*
X147066000Y-87571000D01*
%TO.C,J3*%
X165172000Y-112264500D02*
X163842000Y-112264500D01*
X165172000Y-110934500D02*
X165172000Y-112264500D01*
X165172000Y-109664500D02*
X162512000Y-109664500D01*
X162512000Y-109664500D02*
X162512000Y-104524500D01*
X165172000Y-109664500D02*
X165172000Y-104524500D01*
X165172000Y-104524500D02*
X162512000Y-104524500D01*
%TO.C,U1*%
X148423000Y-81121500D02*
X158663000Y-81121500D01*
X148423000Y-85762500D02*
X158663000Y-85762500D01*
X148423000Y-81121500D02*
X148423000Y-85762500D01*
X158663000Y-81121500D02*
X158663000Y-85762500D01*
X148423000Y-82631500D02*
X158663000Y-82631500D01*
X151693000Y-81121500D02*
X151693000Y-82631500D01*
X155394000Y-81121500D02*
X155394000Y-82631500D01*
%TO.C,R2*%
X157448500Y-95035500D02*
X157448500Y-94705500D01*
X157448500Y-94705500D02*
X163988500Y-94705500D01*
X163988500Y-94705500D02*
X163988500Y-95035500D01*
X157448500Y-97115500D02*
X157448500Y-97445500D01*
X157448500Y-97445500D02*
X163988500Y-97445500D01*
X163988500Y-97445500D02*
X163988500Y-97115500D01*
%TO.C,J4*%
X142561000Y-99825500D02*
X142561000Y-102485500D01*
X157861000Y-99825500D02*
X142561000Y-99825500D01*
X157861000Y-102485500D02*
X142561000Y-102485500D01*
X157861000Y-99825500D02*
X157861000Y-102485500D01*
X159131000Y-99825500D02*
X160461000Y-99825500D01*
X160461000Y-99825500D02*
X160461000Y-101155500D01*
%TO.C,R1*%
X157448500Y-89435000D02*
X157448500Y-89765000D01*
X163988500Y-89435000D02*
X157448500Y-89435000D01*
X163988500Y-89765000D02*
X163988500Y-89435000D01*
X157448500Y-92175000D02*
X157448500Y-91845000D01*
X163988500Y-92175000D02*
X157448500Y-92175000D01*
X163988500Y-91845000D02*
X163988500Y-92175000D01*
%TO.C,J5*%
X160461000Y-109604500D02*
X160461000Y-110934500D01*
X159131000Y-109604500D02*
X160461000Y-109604500D01*
X157861000Y-109604500D02*
X157861000Y-112264500D01*
X157861000Y-112264500D02*
X142561000Y-112264500D01*
X157861000Y-109604500D02*
X142561000Y-109604500D01*
X142561000Y-109604500D02*
X142561000Y-112264500D01*
%TO.C,J2*%
X165108500Y-87702500D02*
X163778500Y-87702500D01*
X165108500Y-86372500D02*
X165108500Y-87702500D01*
X165108500Y-85102500D02*
X162448500Y-85102500D01*
X162448500Y-85102500D02*
X162448500Y-82502500D01*
X165108500Y-85102500D02*
X165108500Y-82502500D01*
X165108500Y-82502500D02*
X162448500Y-82502500D01*
%TO.C,J1*%
X142624500Y-107311500D02*
X142624500Y-105981500D01*
X143954500Y-107311500D02*
X142624500Y-107311500D01*
X145224500Y-107311500D02*
X145224500Y-104651500D01*
X145224500Y-104651500D02*
X160524500Y-104651500D01*
X145224500Y-107311500D02*
X160524500Y-107311500D01*
X160524500Y-107311500D02*
X160524500Y-104651500D01*
%TD*%
M02*
