M48
; DRILL file {KiCad (5.1.12-1-10_14)} date 2021 December 29, Wednesday 19:39:13
; FORMAT={-:-/ absolute / inch / decimal}
; #@! TF.CreationDate,2021-12-29T19:39:13+01:00
; #@! TF.GenerationSoftware,Kicad,Pcbnew,(5.1.12-1-10_14)
; #@! TF.FileFunction,Plated,1,2,PTH
FMAT,2
INCH
T1C0.0315
T2C0.0394
T3C0.0433
%
G90
G05
T1
X5.69Y-3.54
X5.69Y-3.64
X5.69Y-3.74
X5.8706Y-3.7675
X5.9625Y-3.49
X5.9625Y-3.5884
X6.0675Y-3.7675
X6.1775Y-3.575
X6.1775Y-3.7825
X6.4775Y-3.575
X6.4775Y-3.7825
T2
X5.665Y-3.9825
X5.665Y-4.3675
X5.6675Y-4.1725
X5.765Y-3.9825
X5.765Y-4.3675
X5.7675Y-4.1725
X5.865Y-3.9825
X5.865Y-4.3675
X5.8675Y-4.1725
X5.965Y-3.9825
X5.965Y-4.3675
X5.9675Y-4.1725
X6.065Y-3.9825
X6.065Y-4.3675
X6.0675Y-4.1725
X6.165Y-3.9825
X6.165Y-4.3675
X6.1675Y-4.1725
X6.265Y-3.9825
X6.265Y-4.3675
X6.2675Y-4.1725
X6.448Y-3.3005
X6.448Y-3.4005
X6.4505Y-4.1675
X6.4505Y-4.2675
X6.4505Y-4.3675
T3
X5.945Y-3.3225
X6.045Y-3.3225
X6.145Y-3.3225
T0
M30
