%TF.GenerationSoftware,KiCad,Pcbnew,(5.1.12-1-10_14)*%
%TF.CreationDate,2021-12-29T19:37:03+01:00*%
%TF.ProjectId,contraddictionLamp_signals,636f6e74-7261-4646-9469-6374696f6e4c,1*%
%TF.SameCoordinates,Original*%
%TF.FileFunction,Copper,L2,Bot*%
%TF.FilePolarity,Positive*%
%FSLAX46Y46*%
G04 Gerber Fmt 4.6, Leading zero omitted, Abs format (unit mm)*
G04 Created by KiCad (PCBNEW (5.1.12-1-10_14)) date 2021-12-29 19:37:03*
%MOMM*%
%LPD*%
G01*
G04 APERTURE LIST*
%TA.AperFunction,ComponentPad*%
%ADD10C,1.600000*%
%TD*%
%TA.AperFunction,ComponentPad*%
%ADD11R,1.600000X1.600000*%
%TD*%
%TA.AperFunction,ComponentPad*%
%ADD12C,1.440000*%
%TD*%
%TA.AperFunction,ComponentPad*%
%ADD13O,1.700000X1.700000*%
%TD*%
%TA.AperFunction,ComponentPad*%
%ADD14R,1.700000X1.700000*%
%TD*%
%TA.AperFunction,ComponentPad*%
%ADD15O,1.905000X2.000000*%
%TD*%
%TA.AperFunction,ComponentPad*%
%ADD16R,1.905000X2.000000*%
%TD*%
%TA.AperFunction,ComponentPad*%
%ADD17O,1.600000X1.600000*%
%TD*%
%TA.AperFunction,Conductor*%
%ADD18C,0.250000*%
%TD*%
%TA.AperFunction,Conductor*%
%ADD19C,0.254000*%
%TD*%
%TA.AperFunction,Conductor*%
%ADD20C,0.100000*%
%TD*%
G04 APERTURE END LIST*
D10*
%TO.P,C2,2*%
%TO.N,GND*%
X151447500Y-91146000D03*
D11*
%TO.P,C2,1*%
%TO.N,/out-v*%
X151447500Y-88646000D03*
%TD*%
D10*
%TO.P,C1,2*%
%TO.N,/in-v*%
X149114500Y-95694500D03*
%TO.P,C1,1*%
%TO.N,GND*%
X154114500Y-95694500D03*
%TD*%
D12*
%TO.P,R3,3*%
%TO.N,N/C*%
X144526000Y-94996000D03*
%TO.P,R3,2*%
%TO.N,/adj-v*%
X144526000Y-92456000D03*
%TO.P,R3,1*%
%TO.N,GND*%
X144526000Y-89916000D03*
%TD*%
D13*
%TO.P,J3,3*%
%TO.N,/btn-gnd*%
X163842000Y-105854500D03*
%TO.P,J3,2*%
X163842000Y-108394500D03*
D14*
%TO.P,J3,1*%
%TO.N,/out-v*%
X163842000Y-110934500D03*
%TD*%
D15*
%TO.P,U1,3*%
%TO.N,/in-v*%
X156083000Y-84391500D03*
%TO.P,U1,2*%
%TO.N,/out-v*%
X153543000Y-84391500D03*
D16*
%TO.P,U1,1*%
%TO.N,/adj-v*%
X151003000Y-84391500D03*
%TD*%
D17*
%TO.P,R2,2*%
%TO.N,/out-v*%
X164528500Y-96075500D03*
D10*
%TO.P,R2,1*%
%TO.N,/adj-v*%
X156908500Y-96075500D03*
%TD*%
D13*
%TO.P,J4,7*%
%TO.N,/in-v*%
X143891000Y-101155500D03*
%TO.P,J4,6*%
X146431000Y-101155500D03*
%TO.P,J4,5*%
X148971000Y-101155500D03*
%TO.P,J4,4*%
X151511000Y-101155500D03*
%TO.P,J4,3*%
X154051000Y-101155500D03*
%TO.P,J4,2*%
X156591000Y-101155500D03*
D14*
%TO.P,J4,1*%
X159131000Y-101155500D03*
%TD*%
D17*
%TO.P,R1,2*%
%TO.N,/btn-gnd*%
X156908500Y-90805000D03*
D10*
%TO.P,R1,1*%
%TO.N,GND*%
X164528500Y-90805000D03*
%TD*%
D13*
%TO.P,J5,7*%
%TO.N,/out-v*%
X143891000Y-110934500D03*
%TO.P,J5,6*%
X146431000Y-110934500D03*
%TO.P,J5,5*%
X148971000Y-110934500D03*
%TO.P,J5,4*%
X151511000Y-110934500D03*
%TO.P,J5,3*%
X154051000Y-110934500D03*
%TO.P,J5,2*%
X156591000Y-110934500D03*
D14*
%TO.P,J5,1*%
X159131000Y-110934500D03*
%TD*%
D13*
%TO.P,J2,2*%
%TO.N,/in-v*%
X163778500Y-83832500D03*
D14*
%TO.P,J2,1*%
%TO.N,GND*%
X163778500Y-86372500D03*
%TD*%
D13*
%TO.P,J1,7*%
%TO.N,GND*%
X159194500Y-105981500D03*
%TO.P,J1,6*%
X156654500Y-105981500D03*
%TO.P,J1,5*%
X154114500Y-105981500D03*
%TO.P,J1,4*%
X151574500Y-105981500D03*
%TO.P,J1,3*%
X149034500Y-105981500D03*
%TO.P,J1,2*%
X146494500Y-105981500D03*
D14*
%TO.P,J1,1*%
X143954500Y-105981500D03*
%TD*%
D18*
%TO.N,GND*%
X159194500Y-105981500D02*
X143954500Y-105981500D01*
%TO.N,/btn-gnd*%
X163842000Y-105918000D02*
X163842000Y-108458000D01*
X163842000Y-97738500D02*
X163842000Y-105854500D01*
X156908500Y-90805000D02*
X163842000Y-97738500D01*
%TD*%
D19*
%TO.N,GND*%
X151958536Y-77611083D02*
X151710220Y-77982715D01*
X151539176Y-78395651D01*
X151451979Y-78834021D01*
X151451979Y-79280979D01*
X151539176Y-79719349D01*
X151710220Y-80132285D01*
X151958536Y-80503917D01*
X152274583Y-80819964D01*
X152646215Y-81068280D01*
X153059151Y-81239324D01*
X153497521Y-81326521D01*
X153944479Y-81326521D01*
X154382849Y-81239324D01*
X154795785Y-81068280D01*
X155167417Y-80819964D01*
X155483464Y-80503917D01*
X155731780Y-80132285D01*
X155902824Y-79719349D01*
X155990021Y-79280979D01*
X155990021Y-78834021D01*
X155902824Y-78395651D01*
X155731780Y-77982715D01*
X155483464Y-77611083D01*
X155367381Y-77495000D01*
X166916500Y-77495000D01*
X166916501Y-116180000D01*
X155379881Y-116180000D01*
X155495964Y-116063917D01*
X155744280Y-115692285D01*
X155915324Y-115279349D01*
X156002521Y-114840979D01*
X156002521Y-114394021D01*
X155915324Y-113955651D01*
X155744280Y-113542715D01*
X155495964Y-113171083D01*
X155179917Y-112855036D01*
X154808285Y-112606720D01*
X154395349Y-112435676D01*
X154255643Y-112407887D01*
X154484158Y-112362432D01*
X154754411Y-112250490D01*
X154997632Y-112087975D01*
X155204475Y-111881132D01*
X155321000Y-111706740D01*
X155437525Y-111881132D01*
X155644368Y-112087975D01*
X155887589Y-112250490D01*
X156157842Y-112362432D01*
X156444740Y-112419500D01*
X156737260Y-112419500D01*
X157024158Y-112362432D01*
X157294411Y-112250490D01*
X157537632Y-112087975D01*
X157669487Y-111956120D01*
X157691498Y-112028680D01*
X157750463Y-112138994D01*
X157829815Y-112235685D01*
X157926506Y-112315037D01*
X158036820Y-112374002D01*
X158156518Y-112410312D01*
X158281000Y-112422572D01*
X159981000Y-112422572D01*
X160105482Y-112410312D01*
X160225180Y-112374002D01*
X160335494Y-112315037D01*
X160432185Y-112235685D01*
X160511537Y-112138994D01*
X160570502Y-112028680D01*
X160606812Y-111908982D01*
X160619072Y-111784500D01*
X160619072Y-110084500D01*
X160606812Y-109960018D01*
X160570502Y-109840320D01*
X160511537Y-109730006D01*
X160432185Y-109633315D01*
X160335494Y-109553963D01*
X160225180Y-109494998D01*
X160105482Y-109458688D01*
X159981000Y-109446428D01*
X158281000Y-109446428D01*
X158156518Y-109458688D01*
X158036820Y-109494998D01*
X157926506Y-109553963D01*
X157829815Y-109633315D01*
X157750463Y-109730006D01*
X157691498Y-109840320D01*
X157669487Y-109912880D01*
X157537632Y-109781025D01*
X157294411Y-109618510D01*
X157024158Y-109506568D01*
X156737260Y-109449500D01*
X156444740Y-109449500D01*
X156157842Y-109506568D01*
X155887589Y-109618510D01*
X155644368Y-109781025D01*
X155437525Y-109987868D01*
X155321000Y-110162260D01*
X155204475Y-109987868D01*
X154997632Y-109781025D01*
X154754411Y-109618510D01*
X154484158Y-109506568D01*
X154197260Y-109449500D01*
X153904740Y-109449500D01*
X153617842Y-109506568D01*
X153347589Y-109618510D01*
X153104368Y-109781025D01*
X152897525Y-109987868D01*
X152781000Y-110162260D01*
X152664475Y-109987868D01*
X152457632Y-109781025D01*
X152214411Y-109618510D01*
X151944158Y-109506568D01*
X151657260Y-109449500D01*
X151364740Y-109449500D01*
X151077842Y-109506568D01*
X150807589Y-109618510D01*
X150564368Y-109781025D01*
X150357525Y-109987868D01*
X150241000Y-110162260D01*
X150124475Y-109987868D01*
X149917632Y-109781025D01*
X149674411Y-109618510D01*
X149404158Y-109506568D01*
X149117260Y-109449500D01*
X148824740Y-109449500D01*
X148537842Y-109506568D01*
X148267589Y-109618510D01*
X148024368Y-109781025D01*
X147817525Y-109987868D01*
X147701000Y-110162260D01*
X147584475Y-109987868D01*
X147377632Y-109781025D01*
X147134411Y-109618510D01*
X146864158Y-109506568D01*
X146577260Y-109449500D01*
X146284740Y-109449500D01*
X145997842Y-109506568D01*
X145727589Y-109618510D01*
X145484368Y-109781025D01*
X145277525Y-109987868D01*
X145161000Y-110162260D01*
X145044475Y-109987868D01*
X144837632Y-109781025D01*
X144594411Y-109618510D01*
X144324158Y-109506568D01*
X144037260Y-109449500D01*
X143744740Y-109449500D01*
X143457842Y-109506568D01*
X143187589Y-109618510D01*
X142944368Y-109781025D01*
X142737525Y-109987868D01*
X142575010Y-110231089D01*
X142463068Y-110501342D01*
X142406000Y-110788240D01*
X142406000Y-111080760D01*
X142463068Y-111367658D01*
X142575010Y-111637911D01*
X142737525Y-111881132D01*
X142944368Y-112087975D01*
X143187589Y-112250490D01*
X143457842Y-112362432D01*
X143744740Y-112419500D01*
X144037260Y-112419500D01*
X144324158Y-112362432D01*
X144594411Y-112250490D01*
X144837632Y-112087975D01*
X145044475Y-111881132D01*
X145161000Y-111706740D01*
X145277525Y-111881132D01*
X145484368Y-112087975D01*
X145727589Y-112250490D01*
X145997842Y-112362432D01*
X146284740Y-112419500D01*
X146577260Y-112419500D01*
X146864158Y-112362432D01*
X147134411Y-112250490D01*
X147377632Y-112087975D01*
X147584475Y-111881132D01*
X147701000Y-111706740D01*
X147817525Y-111881132D01*
X148024368Y-112087975D01*
X148267589Y-112250490D01*
X148537842Y-112362432D01*
X148824740Y-112419500D01*
X149117260Y-112419500D01*
X149404158Y-112362432D01*
X149674411Y-112250490D01*
X149917632Y-112087975D01*
X150124475Y-111881132D01*
X150241000Y-111706740D01*
X150357525Y-111881132D01*
X150564368Y-112087975D01*
X150807589Y-112250490D01*
X151077842Y-112362432D01*
X151364740Y-112419500D01*
X151657260Y-112419500D01*
X151944158Y-112362432D01*
X152214411Y-112250490D01*
X152457632Y-112087975D01*
X152664475Y-111881132D01*
X152781000Y-111706740D01*
X152897525Y-111881132D01*
X153104368Y-112087975D01*
X153347589Y-112250490D01*
X153584156Y-112348479D01*
X153510021Y-112348479D01*
X153071651Y-112435676D01*
X152658715Y-112606720D01*
X152287083Y-112855036D01*
X151971036Y-113171083D01*
X151722720Y-113542715D01*
X151551676Y-113955651D01*
X151464479Y-114394021D01*
X151464479Y-114840979D01*
X151551676Y-115279349D01*
X151722720Y-115692285D01*
X151971036Y-116063917D01*
X152087119Y-116180000D01*
X140995000Y-116180000D01*
X140995000Y-106831500D01*
X142466428Y-106831500D01*
X142478688Y-106955982D01*
X142514998Y-107075680D01*
X142573963Y-107185994D01*
X142653315Y-107282685D01*
X142750006Y-107362037D01*
X142860320Y-107421002D01*
X142980018Y-107457312D01*
X143104500Y-107469572D01*
X143668750Y-107466500D01*
X143827500Y-107307750D01*
X143827500Y-106108500D01*
X144081500Y-106108500D01*
X144081500Y-107307750D01*
X144240250Y-107466500D01*
X144804500Y-107469572D01*
X144928982Y-107457312D01*
X145048680Y-107421002D01*
X145158994Y-107362037D01*
X145255685Y-107282685D01*
X145335037Y-107185994D01*
X145394002Y-107075680D01*
X145418466Y-106995034D01*
X145494231Y-107079088D01*
X145727580Y-107253141D01*
X145990401Y-107378325D01*
X146137610Y-107422976D01*
X146367500Y-107301655D01*
X146367500Y-106108500D01*
X146621500Y-106108500D01*
X146621500Y-107301655D01*
X146851390Y-107422976D01*
X146998599Y-107378325D01*
X147261420Y-107253141D01*
X147494769Y-107079088D01*
X147689678Y-106862855D01*
X147764500Y-106737245D01*
X147839322Y-106862855D01*
X148034231Y-107079088D01*
X148267580Y-107253141D01*
X148530401Y-107378325D01*
X148677610Y-107422976D01*
X148907500Y-107301655D01*
X148907500Y-106108500D01*
X149161500Y-106108500D01*
X149161500Y-107301655D01*
X149391390Y-107422976D01*
X149538599Y-107378325D01*
X149801420Y-107253141D01*
X150034769Y-107079088D01*
X150229678Y-106862855D01*
X150304500Y-106737245D01*
X150379322Y-106862855D01*
X150574231Y-107079088D01*
X150807580Y-107253141D01*
X151070401Y-107378325D01*
X151217610Y-107422976D01*
X151447500Y-107301655D01*
X151447500Y-106108500D01*
X151701500Y-106108500D01*
X151701500Y-107301655D01*
X151931390Y-107422976D01*
X152078599Y-107378325D01*
X152341420Y-107253141D01*
X152574769Y-107079088D01*
X152769678Y-106862855D01*
X152844500Y-106737245D01*
X152919322Y-106862855D01*
X153114231Y-107079088D01*
X153347580Y-107253141D01*
X153610401Y-107378325D01*
X153757610Y-107422976D01*
X153987500Y-107301655D01*
X153987500Y-106108500D01*
X154241500Y-106108500D01*
X154241500Y-107301655D01*
X154471390Y-107422976D01*
X154618599Y-107378325D01*
X154881420Y-107253141D01*
X155114769Y-107079088D01*
X155309678Y-106862855D01*
X155384500Y-106737245D01*
X155459322Y-106862855D01*
X155654231Y-107079088D01*
X155887580Y-107253141D01*
X156150401Y-107378325D01*
X156297610Y-107422976D01*
X156527500Y-107301655D01*
X156527500Y-106108500D01*
X156781500Y-106108500D01*
X156781500Y-107301655D01*
X157011390Y-107422976D01*
X157158599Y-107378325D01*
X157421420Y-107253141D01*
X157654769Y-107079088D01*
X157849678Y-106862855D01*
X157924500Y-106737245D01*
X157999322Y-106862855D01*
X158194231Y-107079088D01*
X158427580Y-107253141D01*
X158690401Y-107378325D01*
X158837610Y-107422976D01*
X159067500Y-107301655D01*
X159067500Y-106108500D01*
X159321500Y-106108500D01*
X159321500Y-107301655D01*
X159551390Y-107422976D01*
X159698599Y-107378325D01*
X159961420Y-107253141D01*
X160194769Y-107079088D01*
X160389678Y-106862855D01*
X160538657Y-106612752D01*
X160635981Y-106338391D01*
X160515314Y-106108500D01*
X159321500Y-106108500D01*
X159067500Y-106108500D01*
X156781500Y-106108500D01*
X156527500Y-106108500D01*
X154241500Y-106108500D01*
X153987500Y-106108500D01*
X151701500Y-106108500D01*
X151447500Y-106108500D01*
X149161500Y-106108500D01*
X148907500Y-106108500D01*
X146621500Y-106108500D01*
X146367500Y-106108500D01*
X144081500Y-106108500D01*
X143827500Y-106108500D01*
X142628250Y-106108500D01*
X142469500Y-106267250D01*
X142466428Y-106831500D01*
X140995000Y-106831500D01*
X140995000Y-105131500D01*
X142466428Y-105131500D01*
X142469500Y-105695750D01*
X142628250Y-105854500D01*
X143827500Y-105854500D01*
X143827500Y-104655250D01*
X144081500Y-104655250D01*
X144081500Y-105854500D01*
X146367500Y-105854500D01*
X146367500Y-104661345D01*
X146621500Y-104661345D01*
X146621500Y-105854500D01*
X148907500Y-105854500D01*
X148907500Y-104661345D01*
X149161500Y-104661345D01*
X149161500Y-105854500D01*
X151447500Y-105854500D01*
X151447500Y-104661345D01*
X151701500Y-104661345D01*
X151701500Y-105854500D01*
X153987500Y-105854500D01*
X153987500Y-104661345D01*
X154241500Y-104661345D01*
X154241500Y-105854500D01*
X156527500Y-105854500D01*
X156527500Y-104661345D01*
X156781500Y-104661345D01*
X156781500Y-105854500D01*
X159067500Y-105854500D01*
X159067500Y-104661345D01*
X159321500Y-104661345D01*
X159321500Y-105854500D01*
X160515314Y-105854500D01*
X160635981Y-105624609D01*
X160538657Y-105350248D01*
X160389678Y-105100145D01*
X160194769Y-104883912D01*
X159961420Y-104709859D01*
X159698599Y-104584675D01*
X159551390Y-104540024D01*
X159321500Y-104661345D01*
X159067500Y-104661345D01*
X158837610Y-104540024D01*
X158690401Y-104584675D01*
X158427580Y-104709859D01*
X158194231Y-104883912D01*
X157999322Y-105100145D01*
X157924500Y-105225755D01*
X157849678Y-105100145D01*
X157654769Y-104883912D01*
X157421420Y-104709859D01*
X157158599Y-104584675D01*
X157011390Y-104540024D01*
X156781500Y-104661345D01*
X156527500Y-104661345D01*
X156297610Y-104540024D01*
X156150401Y-104584675D01*
X155887580Y-104709859D01*
X155654231Y-104883912D01*
X155459322Y-105100145D01*
X155384500Y-105225755D01*
X155309678Y-105100145D01*
X155114769Y-104883912D01*
X154881420Y-104709859D01*
X154618599Y-104584675D01*
X154471390Y-104540024D01*
X154241500Y-104661345D01*
X153987500Y-104661345D01*
X153757610Y-104540024D01*
X153610401Y-104584675D01*
X153347580Y-104709859D01*
X153114231Y-104883912D01*
X152919322Y-105100145D01*
X152844500Y-105225755D01*
X152769678Y-105100145D01*
X152574769Y-104883912D01*
X152341420Y-104709859D01*
X152078599Y-104584675D01*
X151931390Y-104540024D01*
X151701500Y-104661345D01*
X151447500Y-104661345D01*
X151217610Y-104540024D01*
X151070401Y-104584675D01*
X150807580Y-104709859D01*
X150574231Y-104883912D01*
X150379322Y-105100145D01*
X150304500Y-105225755D01*
X150229678Y-105100145D01*
X150034769Y-104883912D01*
X149801420Y-104709859D01*
X149538599Y-104584675D01*
X149391390Y-104540024D01*
X149161500Y-104661345D01*
X148907500Y-104661345D01*
X148677610Y-104540024D01*
X148530401Y-104584675D01*
X148267580Y-104709859D01*
X148034231Y-104883912D01*
X147839322Y-105100145D01*
X147764500Y-105225755D01*
X147689678Y-105100145D01*
X147494769Y-104883912D01*
X147261420Y-104709859D01*
X146998599Y-104584675D01*
X146851390Y-104540024D01*
X146621500Y-104661345D01*
X146367500Y-104661345D01*
X146137610Y-104540024D01*
X145990401Y-104584675D01*
X145727580Y-104709859D01*
X145494231Y-104883912D01*
X145418466Y-104967966D01*
X145394002Y-104887320D01*
X145335037Y-104777006D01*
X145255685Y-104680315D01*
X145158994Y-104600963D01*
X145048680Y-104541998D01*
X144928982Y-104505688D01*
X144804500Y-104493428D01*
X144240250Y-104496500D01*
X144081500Y-104655250D01*
X143827500Y-104655250D01*
X143668750Y-104496500D01*
X143104500Y-104493428D01*
X142980018Y-104505688D01*
X142860320Y-104541998D01*
X142750006Y-104600963D01*
X142653315Y-104680315D01*
X142573963Y-104777006D01*
X142514998Y-104887320D01*
X142478688Y-105007018D01*
X142466428Y-105131500D01*
X140995000Y-105131500D01*
X140995000Y-101009240D01*
X142406000Y-101009240D01*
X142406000Y-101301760D01*
X142463068Y-101588658D01*
X142575010Y-101858911D01*
X142737525Y-102102132D01*
X142944368Y-102308975D01*
X143187589Y-102471490D01*
X143457842Y-102583432D01*
X143744740Y-102640500D01*
X144037260Y-102640500D01*
X144324158Y-102583432D01*
X144594411Y-102471490D01*
X144837632Y-102308975D01*
X145044475Y-102102132D01*
X145161000Y-101927740D01*
X145277525Y-102102132D01*
X145484368Y-102308975D01*
X145727589Y-102471490D01*
X145997842Y-102583432D01*
X146284740Y-102640500D01*
X146577260Y-102640500D01*
X146864158Y-102583432D01*
X147134411Y-102471490D01*
X147377632Y-102308975D01*
X147584475Y-102102132D01*
X147701000Y-101927740D01*
X147817525Y-102102132D01*
X148024368Y-102308975D01*
X148267589Y-102471490D01*
X148537842Y-102583432D01*
X148824740Y-102640500D01*
X149117260Y-102640500D01*
X149404158Y-102583432D01*
X149674411Y-102471490D01*
X149917632Y-102308975D01*
X150124475Y-102102132D01*
X150241000Y-101927740D01*
X150357525Y-102102132D01*
X150564368Y-102308975D01*
X150807589Y-102471490D01*
X151077842Y-102583432D01*
X151364740Y-102640500D01*
X151657260Y-102640500D01*
X151944158Y-102583432D01*
X152214411Y-102471490D01*
X152457632Y-102308975D01*
X152664475Y-102102132D01*
X152781000Y-101927740D01*
X152897525Y-102102132D01*
X153104368Y-102308975D01*
X153347589Y-102471490D01*
X153617842Y-102583432D01*
X153904740Y-102640500D01*
X154197260Y-102640500D01*
X154484158Y-102583432D01*
X154754411Y-102471490D01*
X154997632Y-102308975D01*
X155204475Y-102102132D01*
X155321000Y-101927740D01*
X155437525Y-102102132D01*
X155644368Y-102308975D01*
X155887589Y-102471490D01*
X156157842Y-102583432D01*
X156444740Y-102640500D01*
X156737260Y-102640500D01*
X157024158Y-102583432D01*
X157294411Y-102471490D01*
X157537632Y-102308975D01*
X157669487Y-102177120D01*
X157691498Y-102249680D01*
X157750463Y-102359994D01*
X157829815Y-102456685D01*
X157926506Y-102536037D01*
X158036820Y-102595002D01*
X158156518Y-102631312D01*
X158281000Y-102643572D01*
X159981000Y-102643572D01*
X160105482Y-102631312D01*
X160225180Y-102595002D01*
X160335494Y-102536037D01*
X160432185Y-102456685D01*
X160511537Y-102359994D01*
X160570502Y-102249680D01*
X160606812Y-102129982D01*
X160619072Y-102005500D01*
X160619072Y-100305500D01*
X160606812Y-100181018D01*
X160570502Y-100061320D01*
X160511537Y-99951006D01*
X160432185Y-99854315D01*
X160335494Y-99774963D01*
X160225180Y-99715998D01*
X160105482Y-99679688D01*
X159981000Y-99667428D01*
X158281000Y-99667428D01*
X158156518Y-99679688D01*
X158036820Y-99715998D01*
X157926506Y-99774963D01*
X157829815Y-99854315D01*
X157750463Y-99951006D01*
X157691498Y-100061320D01*
X157669487Y-100133880D01*
X157537632Y-100002025D01*
X157294411Y-99839510D01*
X157024158Y-99727568D01*
X156737260Y-99670500D01*
X156444740Y-99670500D01*
X156157842Y-99727568D01*
X155887589Y-99839510D01*
X155644368Y-100002025D01*
X155437525Y-100208868D01*
X155321000Y-100383260D01*
X155204475Y-100208868D01*
X154997632Y-100002025D01*
X154754411Y-99839510D01*
X154484158Y-99727568D01*
X154197260Y-99670500D01*
X153904740Y-99670500D01*
X153617842Y-99727568D01*
X153347589Y-99839510D01*
X153104368Y-100002025D01*
X152897525Y-100208868D01*
X152781000Y-100383260D01*
X152664475Y-100208868D01*
X152457632Y-100002025D01*
X152214411Y-99839510D01*
X151944158Y-99727568D01*
X151657260Y-99670500D01*
X151364740Y-99670500D01*
X151077842Y-99727568D01*
X150807589Y-99839510D01*
X150564368Y-100002025D01*
X150357525Y-100208868D01*
X150241000Y-100383260D01*
X150124475Y-100208868D01*
X149917632Y-100002025D01*
X149674411Y-99839510D01*
X149404158Y-99727568D01*
X149117260Y-99670500D01*
X148824740Y-99670500D01*
X148537842Y-99727568D01*
X148267589Y-99839510D01*
X148024368Y-100002025D01*
X147817525Y-100208868D01*
X147701000Y-100383260D01*
X147584475Y-100208868D01*
X147377632Y-100002025D01*
X147134411Y-99839510D01*
X146864158Y-99727568D01*
X146577260Y-99670500D01*
X146284740Y-99670500D01*
X145997842Y-99727568D01*
X145727589Y-99839510D01*
X145484368Y-100002025D01*
X145277525Y-100208868D01*
X145161000Y-100383260D01*
X145044475Y-100208868D01*
X144837632Y-100002025D01*
X144594411Y-99839510D01*
X144324158Y-99727568D01*
X144037260Y-99670500D01*
X143744740Y-99670500D01*
X143457842Y-99727568D01*
X143187589Y-99839510D01*
X142944368Y-100002025D01*
X142737525Y-100208868D01*
X142575010Y-100452089D01*
X142463068Y-100722342D01*
X142406000Y-101009240D01*
X140995000Y-101009240D01*
X140995000Y-92322544D01*
X143171000Y-92322544D01*
X143171000Y-92589456D01*
X143223072Y-92851239D01*
X143325215Y-93097833D01*
X143473503Y-93319762D01*
X143662238Y-93508497D01*
X143884167Y-93656785D01*
X144051266Y-93726000D01*
X143884167Y-93795215D01*
X143662238Y-93943503D01*
X143473503Y-94132238D01*
X143325215Y-94354167D01*
X143223072Y-94600761D01*
X143171000Y-94862544D01*
X143171000Y-95129456D01*
X143223072Y-95391239D01*
X143325215Y-95637833D01*
X143473503Y-95859762D01*
X143662238Y-96048497D01*
X143884167Y-96196785D01*
X144130761Y-96298928D01*
X144392544Y-96351000D01*
X144659456Y-96351000D01*
X144921239Y-96298928D01*
X145167833Y-96196785D01*
X145389762Y-96048497D01*
X145578497Y-95859762D01*
X145726785Y-95637833D01*
X145761855Y-95553165D01*
X147679500Y-95553165D01*
X147679500Y-95835835D01*
X147734647Y-96113074D01*
X147842820Y-96374227D01*
X147999863Y-96609259D01*
X148199741Y-96809137D01*
X148434773Y-96966180D01*
X148695926Y-97074353D01*
X148973165Y-97129500D01*
X149255835Y-97129500D01*
X149533074Y-97074353D01*
X149794227Y-96966180D01*
X150029259Y-96809137D01*
X150151194Y-96687202D01*
X153301403Y-96687202D01*
X153372986Y-96931171D01*
X153628496Y-97052071D01*
X153902684Y-97120800D01*
X154185012Y-97134717D01*
X154464630Y-97093287D01*
X154730792Y-96998103D01*
X154856014Y-96931171D01*
X154927597Y-96687202D01*
X154114500Y-95874105D01*
X153301403Y-96687202D01*
X150151194Y-96687202D01*
X150229137Y-96609259D01*
X150386180Y-96374227D01*
X150494353Y-96113074D01*
X150549500Y-95835835D01*
X150549500Y-95765012D01*
X152674283Y-95765012D01*
X152715713Y-96044630D01*
X152810897Y-96310792D01*
X152877829Y-96436014D01*
X153121798Y-96507597D01*
X153934895Y-95694500D01*
X154294105Y-95694500D01*
X155107202Y-96507597D01*
X155351171Y-96436014D01*
X155472071Y-96180504D01*
X155473500Y-96174803D01*
X155473500Y-96216835D01*
X155528647Y-96494074D01*
X155636820Y-96755227D01*
X155793863Y-96990259D01*
X155993741Y-97190137D01*
X156228773Y-97347180D01*
X156489926Y-97455353D01*
X156767165Y-97510500D01*
X157049835Y-97510500D01*
X157327074Y-97455353D01*
X157588227Y-97347180D01*
X157823259Y-97190137D01*
X158023137Y-96990259D01*
X158180180Y-96755227D01*
X158288353Y-96494074D01*
X158343500Y-96216835D01*
X158343500Y-95934165D01*
X158288353Y-95656926D01*
X158180180Y-95395773D01*
X158023137Y-95160741D01*
X157823259Y-94960863D01*
X157588227Y-94803820D01*
X157327074Y-94695647D01*
X157049835Y-94640500D01*
X156767165Y-94640500D01*
X156489926Y-94695647D01*
X156228773Y-94803820D01*
X155993741Y-94960863D01*
X155793863Y-95160741D01*
X155636820Y-95395773D01*
X155551443Y-95601891D01*
X155513287Y-95344370D01*
X155418103Y-95078208D01*
X155351171Y-94952986D01*
X155107202Y-94881403D01*
X154294105Y-95694500D01*
X153934895Y-95694500D01*
X153121798Y-94881403D01*
X152877829Y-94952986D01*
X152756929Y-95208496D01*
X152688200Y-95482684D01*
X152674283Y-95765012D01*
X150549500Y-95765012D01*
X150549500Y-95553165D01*
X150494353Y-95275926D01*
X150386180Y-95014773D01*
X150229137Y-94779741D01*
X150151194Y-94701798D01*
X153301403Y-94701798D01*
X154114500Y-95514895D01*
X154927597Y-94701798D01*
X154856014Y-94457829D01*
X154600504Y-94336929D01*
X154326316Y-94268200D01*
X154043988Y-94254283D01*
X153764370Y-94295713D01*
X153498208Y-94390897D01*
X153372986Y-94457829D01*
X153301403Y-94701798D01*
X150151194Y-94701798D01*
X150029259Y-94579863D01*
X149794227Y-94422820D01*
X149533074Y-94314647D01*
X149255835Y-94259500D01*
X148973165Y-94259500D01*
X148695926Y-94314647D01*
X148434773Y-94422820D01*
X148199741Y-94579863D01*
X147999863Y-94779741D01*
X147842820Y-95014773D01*
X147734647Y-95275926D01*
X147679500Y-95553165D01*
X145761855Y-95553165D01*
X145828928Y-95391239D01*
X145881000Y-95129456D01*
X145881000Y-94862544D01*
X145828928Y-94600761D01*
X145726785Y-94354167D01*
X145578497Y-94132238D01*
X145389762Y-93943503D01*
X145167833Y-93795215D01*
X145000734Y-93726000D01*
X145167833Y-93656785D01*
X145389762Y-93508497D01*
X145578497Y-93319762D01*
X145726785Y-93097833D01*
X145828928Y-92851239D01*
X145881000Y-92589456D01*
X145881000Y-92322544D01*
X145844432Y-92138702D01*
X150634403Y-92138702D01*
X150705986Y-92382671D01*
X150961496Y-92503571D01*
X151235684Y-92572300D01*
X151518012Y-92586217D01*
X151797630Y-92544787D01*
X152063792Y-92449603D01*
X152189014Y-92382671D01*
X152260597Y-92138702D01*
X151447500Y-91325605D01*
X150634403Y-92138702D01*
X145844432Y-92138702D01*
X145828928Y-92060761D01*
X145726785Y-91814167D01*
X145578497Y-91592238D01*
X145389762Y-91403503D01*
X145167833Y-91255215D01*
X145074396Y-91216512D01*
X150007283Y-91216512D01*
X150048713Y-91496130D01*
X150143897Y-91762292D01*
X150210829Y-91887514D01*
X150454798Y-91959097D01*
X151267895Y-91146000D01*
X151627105Y-91146000D01*
X152440202Y-91959097D01*
X152684171Y-91887514D01*
X152805071Y-91632004D01*
X152873800Y-91357816D01*
X152887717Y-91075488D01*
X152846287Y-90795870D01*
X152799009Y-90663665D01*
X155473500Y-90663665D01*
X155473500Y-90946335D01*
X155528647Y-91223574D01*
X155636820Y-91484727D01*
X155793863Y-91719759D01*
X155993741Y-91919637D01*
X156228773Y-92076680D01*
X156489926Y-92184853D01*
X156767165Y-92240000D01*
X157049835Y-92240000D01*
X157232387Y-92203688D01*
X163082000Y-98053302D01*
X163082001Y-104576321D01*
X162895368Y-104701025D01*
X162688525Y-104907868D01*
X162526010Y-105151089D01*
X162414068Y-105421342D01*
X162357000Y-105708240D01*
X162357000Y-106000760D01*
X162414068Y-106287658D01*
X162526010Y-106557911D01*
X162688525Y-106801132D01*
X162895368Y-107007975D01*
X163069760Y-107124500D01*
X162895368Y-107241025D01*
X162688525Y-107447868D01*
X162526010Y-107691089D01*
X162414068Y-107961342D01*
X162357000Y-108248240D01*
X162357000Y-108540760D01*
X162414068Y-108827658D01*
X162526010Y-109097911D01*
X162688525Y-109341132D01*
X162820380Y-109472987D01*
X162747820Y-109494998D01*
X162637506Y-109553963D01*
X162540815Y-109633315D01*
X162461463Y-109730006D01*
X162402498Y-109840320D01*
X162366188Y-109960018D01*
X162353928Y-110084500D01*
X162353928Y-111784500D01*
X162366188Y-111908982D01*
X162402498Y-112028680D01*
X162461463Y-112138994D01*
X162540815Y-112235685D01*
X162637506Y-112315037D01*
X162747820Y-112374002D01*
X162867518Y-112410312D01*
X162992000Y-112422572D01*
X164692000Y-112422572D01*
X164816482Y-112410312D01*
X164936180Y-112374002D01*
X165046494Y-112315037D01*
X165143185Y-112235685D01*
X165222537Y-112138994D01*
X165281502Y-112028680D01*
X165317812Y-111908982D01*
X165330072Y-111784500D01*
X165330072Y-110084500D01*
X165317812Y-109960018D01*
X165281502Y-109840320D01*
X165222537Y-109730006D01*
X165143185Y-109633315D01*
X165046494Y-109553963D01*
X164936180Y-109494998D01*
X164863620Y-109472987D01*
X164995475Y-109341132D01*
X165157990Y-109097911D01*
X165269932Y-108827658D01*
X165327000Y-108540760D01*
X165327000Y-108248240D01*
X165269932Y-107961342D01*
X165157990Y-107691089D01*
X164995475Y-107447868D01*
X164788632Y-107241025D01*
X164614240Y-107124500D01*
X164788632Y-107007975D01*
X164995475Y-106801132D01*
X165157990Y-106557911D01*
X165269932Y-106287658D01*
X165327000Y-106000760D01*
X165327000Y-105708240D01*
X165269932Y-105421342D01*
X165157990Y-105151089D01*
X164995475Y-104907868D01*
X164788632Y-104701025D01*
X164602000Y-104576322D01*
X164602000Y-97775825D01*
X164605676Y-97738500D01*
X164602000Y-97701175D01*
X164602000Y-97701167D01*
X164591003Y-97589514D01*
X164567035Y-97510500D01*
X164669835Y-97510500D01*
X164947074Y-97455353D01*
X165208227Y-97347180D01*
X165443259Y-97190137D01*
X165643137Y-96990259D01*
X165800180Y-96755227D01*
X165908353Y-96494074D01*
X165963500Y-96216835D01*
X165963500Y-95934165D01*
X165908353Y-95656926D01*
X165800180Y-95395773D01*
X165643137Y-95160741D01*
X165443259Y-94960863D01*
X165208227Y-94803820D01*
X164947074Y-94695647D01*
X164669835Y-94640500D01*
X164387165Y-94640500D01*
X164109926Y-94695647D01*
X163848773Y-94803820D01*
X163613741Y-94960863D01*
X163413863Y-95160741D01*
X163256820Y-95395773D01*
X163148647Y-95656926D01*
X163096647Y-95918345D01*
X158976004Y-91797702D01*
X163715403Y-91797702D01*
X163786986Y-92041671D01*
X164042496Y-92162571D01*
X164316684Y-92231300D01*
X164599012Y-92245217D01*
X164878630Y-92203787D01*
X165144792Y-92108603D01*
X165270014Y-92041671D01*
X165341597Y-91797702D01*
X164528500Y-90984605D01*
X163715403Y-91797702D01*
X158976004Y-91797702D01*
X158307188Y-91128887D01*
X158343500Y-90946335D01*
X158343500Y-90875512D01*
X163088283Y-90875512D01*
X163129713Y-91155130D01*
X163224897Y-91421292D01*
X163291829Y-91546514D01*
X163535798Y-91618097D01*
X164348895Y-90805000D01*
X164708105Y-90805000D01*
X165521202Y-91618097D01*
X165765171Y-91546514D01*
X165886071Y-91291004D01*
X165954800Y-91016816D01*
X165968717Y-90734488D01*
X165927287Y-90454870D01*
X165832103Y-90188708D01*
X165765171Y-90063486D01*
X165521202Y-89991903D01*
X164708105Y-90805000D01*
X164348895Y-90805000D01*
X163535798Y-89991903D01*
X163291829Y-90063486D01*
X163170929Y-90318996D01*
X163102200Y-90593184D01*
X163088283Y-90875512D01*
X158343500Y-90875512D01*
X158343500Y-90663665D01*
X158288353Y-90386426D01*
X158180180Y-90125273D01*
X158023137Y-89890241D01*
X157945194Y-89812298D01*
X163715403Y-89812298D01*
X164528500Y-90625395D01*
X165341597Y-89812298D01*
X165270014Y-89568329D01*
X165014504Y-89447429D01*
X164740316Y-89378700D01*
X164457988Y-89364783D01*
X164178370Y-89406213D01*
X163912208Y-89501397D01*
X163786986Y-89568329D01*
X163715403Y-89812298D01*
X157945194Y-89812298D01*
X157823259Y-89690363D01*
X157588227Y-89533320D01*
X157327074Y-89425147D01*
X157049835Y-89370000D01*
X156767165Y-89370000D01*
X156489926Y-89425147D01*
X156228773Y-89533320D01*
X155993741Y-89690363D01*
X155793863Y-89890241D01*
X155636820Y-90125273D01*
X155528647Y-90386426D01*
X155473500Y-90663665D01*
X152799009Y-90663665D01*
X152751103Y-90529708D01*
X152684171Y-90404486D01*
X152440202Y-90332903D01*
X151627105Y-91146000D01*
X151267895Y-91146000D01*
X150454798Y-90332903D01*
X150210829Y-90404486D01*
X150089929Y-90659996D01*
X150021200Y-90934184D01*
X150007283Y-91216512D01*
X145074396Y-91216512D01*
X144999676Y-91185562D01*
X145114353Y-91143875D01*
X145220068Y-91087368D01*
X145281955Y-90851560D01*
X144526000Y-90095605D01*
X143770045Y-90851560D01*
X143831932Y-91087368D01*
X144047007Y-91187764D01*
X143884167Y-91255215D01*
X143662238Y-91403503D01*
X143473503Y-91592238D01*
X143325215Y-91814167D01*
X143223072Y-92060761D01*
X143171000Y-92322544D01*
X140995000Y-92322544D01*
X140995000Y-89989680D01*
X143166439Y-89989680D01*
X143206937Y-90253501D01*
X143298125Y-90504353D01*
X143354632Y-90610068D01*
X143590440Y-90671955D01*
X144346395Y-89916000D01*
X144705605Y-89916000D01*
X145461560Y-90671955D01*
X145697368Y-90610068D01*
X145810266Y-90368210D01*
X145873811Y-90108973D01*
X145885561Y-89842320D01*
X145845063Y-89578499D01*
X145753875Y-89327647D01*
X145697368Y-89221932D01*
X145461560Y-89160045D01*
X144705605Y-89916000D01*
X144346395Y-89916000D01*
X143590440Y-89160045D01*
X143354632Y-89221932D01*
X143241734Y-89463790D01*
X143178189Y-89723027D01*
X143166439Y-89989680D01*
X140995000Y-89989680D01*
X140995000Y-88980440D01*
X143770045Y-88980440D01*
X144526000Y-89736395D01*
X145281955Y-88980440D01*
X145220068Y-88744632D01*
X144978210Y-88631734D01*
X144718973Y-88568189D01*
X144452320Y-88556439D01*
X144188499Y-88596937D01*
X143937647Y-88688125D01*
X143831932Y-88744632D01*
X143770045Y-88980440D01*
X140995000Y-88980440D01*
X140995000Y-87846000D01*
X150009428Y-87846000D01*
X150009428Y-89446000D01*
X150021688Y-89570482D01*
X150057998Y-89690180D01*
X150116963Y-89800494D01*
X150196315Y-89897185D01*
X150293006Y-89976537D01*
X150403320Y-90035502D01*
X150523018Y-90071812D01*
X150647500Y-90084072D01*
X150654715Y-90084072D01*
X150634403Y-90153298D01*
X151447500Y-90966395D01*
X152260597Y-90153298D01*
X152240285Y-90084072D01*
X152247500Y-90084072D01*
X152371982Y-90071812D01*
X152491680Y-90035502D01*
X152601994Y-89976537D01*
X152698685Y-89897185D01*
X152778037Y-89800494D01*
X152837002Y-89690180D01*
X152873312Y-89570482D01*
X152885572Y-89446000D01*
X152885572Y-87846000D01*
X152873312Y-87721518D01*
X152837002Y-87601820D01*
X152778037Y-87491506D01*
X152698685Y-87394815D01*
X152601994Y-87315463D01*
X152491680Y-87256498D01*
X152379604Y-87222500D01*
X162290428Y-87222500D01*
X162302688Y-87346982D01*
X162338998Y-87466680D01*
X162397963Y-87576994D01*
X162477315Y-87673685D01*
X162574006Y-87753037D01*
X162684320Y-87812002D01*
X162804018Y-87848312D01*
X162928500Y-87860572D01*
X163492750Y-87857500D01*
X163651500Y-87698750D01*
X163651500Y-86499500D01*
X163905500Y-86499500D01*
X163905500Y-87698750D01*
X164064250Y-87857500D01*
X164628500Y-87860572D01*
X164752982Y-87848312D01*
X164872680Y-87812002D01*
X164982994Y-87753037D01*
X165079685Y-87673685D01*
X165159037Y-87576994D01*
X165218002Y-87466680D01*
X165254312Y-87346982D01*
X165266572Y-87222500D01*
X165263500Y-86658250D01*
X165104750Y-86499500D01*
X163905500Y-86499500D01*
X163651500Y-86499500D01*
X162452250Y-86499500D01*
X162293500Y-86658250D01*
X162290428Y-87222500D01*
X152379604Y-87222500D01*
X152371982Y-87220188D01*
X152247500Y-87207928D01*
X150647500Y-87207928D01*
X150523018Y-87220188D01*
X150403320Y-87256498D01*
X150293006Y-87315463D01*
X150196315Y-87394815D01*
X150116963Y-87491506D01*
X150057998Y-87601820D01*
X150021688Y-87721518D01*
X150009428Y-87846000D01*
X140995000Y-87846000D01*
X140995000Y-83391500D01*
X149412428Y-83391500D01*
X149412428Y-85391500D01*
X149424688Y-85515982D01*
X149460998Y-85635680D01*
X149519963Y-85745994D01*
X149599315Y-85842685D01*
X149696006Y-85922037D01*
X149806320Y-85981002D01*
X149926018Y-86017312D01*
X150050500Y-86029572D01*
X151955500Y-86029572D01*
X152079982Y-86017312D01*
X152199680Y-85981002D01*
X152309994Y-85922037D01*
X152406685Y-85842685D01*
X152486037Y-85745994D01*
X152530905Y-85662053D01*
X152656766Y-85765345D01*
X152932552Y-85912755D01*
X153231797Y-86003530D01*
X153543000Y-86034181D01*
X153854204Y-86003530D01*
X154153449Y-85912755D01*
X154429235Y-85765345D01*
X154670963Y-85566963D01*
X154813000Y-85393891D01*
X154955037Y-85566963D01*
X155196766Y-85765345D01*
X155472552Y-85912755D01*
X155771797Y-86003530D01*
X156083000Y-86034181D01*
X156394204Y-86003530D01*
X156693449Y-85912755D01*
X156969235Y-85765345D01*
X157210963Y-85566963D01*
X157247452Y-85522500D01*
X162290428Y-85522500D01*
X162293500Y-86086750D01*
X162452250Y-86245500D01*
X163651500Y-86245500D01*
X163651500Y-86225500D01*
X163905500Y-86225500D01*
X163905500Y-86245500D01*
X165104750Y-86245500D01*
X165263500Y-86086750D01*
X165266572Y-85522500D01*
X165254312Y-85398018D01*
X165218002Y-85278320D01*
X165159037Y-85168006D01*
X165079685Y-85071315D01*
X164982994Y-84991963D01*
X164872680Y-84932998D01*
X164800120Y-84910987D01*
X164931975Y-84779132D01*
X165094490Y-84535911D01*
X165206432Y-84265658D01*
X165263500Y-83978760D01*
X165263500Y-83686240D01*
X165206432Y-83399342D01*
X165094490Y-83129089D01*
X164931975Y-82885868D01*
X164725132Y-82679025D01*
X164481911Y-82516510D01*
X164211658Y-82404568D01*
X163924760Y-82347500D01*
X163632240Y-82347500D01*
X163345342Y-82404568D01*
X163075089Y-82516510D01*
X162831868Y-82679025D01*
X162625025Y-82885868D01*
X162462510Y-83129089D01*
X162350568Y-83399342D01*
X162293500Y-83686240D01*
X162293500Y-83978760D01*
X162350568Y-84265658D01*
X162462510Y-84535911D01*
X162625025Y-84779132D01*
X162756880Y-84910987D01*
X162684320Y-84932998D01*
X162574006Y-84991963D01*
X162477315Y-85071315D01*
X162397963Y-85168006D01*
X162338998Y-85278320D01*
X162302688Y-85398018D01*
X162290428Y-85522500D01*
X157247452Y-85522500D01*
X157409345Y-85325234D01*
X157556755Y-85049448D01*
X157647530Y-84750203D01*
X157670500Y-84516985D01*
X157670500Y-84266014D01*
X157647530Y-84032796D01*
X157556755Y-83733551D01*
X157409345Y-83457765D01*
X157210963Y-83216037D01*
X156969234Y-83017655D01*
X156693448Y-82870245D01*
X156394203Y-82779470D01*
X156083000Y-82748819D01*
X155771796Y-82779470D01*
X155472551Y-82870245D01*
X155196765Y-83017655D01*
X154955037Y-83216037D01*
X154813000Y-83389109D01*
X154670963Y-83216037D01*
X154429234Y-83017655D01*
X154153448Y-82870245D01*
X153854203Y-82779470D01*
X153543000Y-82748819D01*
X153231796Y-82779470D01*
X152932551Y-82870245D01*
X152656765Y-83017655D01*
X152530905Y-83120946D01*
X152486037Y-83037006D01*
X152406685Y-82940315D01*
X152309994Y-82860963D01*
X152199680Y-82801998D01*
X152079982Y-82765688D01*
X151955500Y-82753428D01*
X150050500Y-82753428D01*
X149926018Y-82765688D01*
X149806320Y-82801998D01*
X149696006Y-82860963D01*
X149599315Y-82940315D01*
X149519963Y-83037006D01*
X149460998Y-83147320D01*
X149424688Y-83267018D01*
X149412428Y-83391500D01*
X140995000Y-83391500D01*
X140995000Y-77495000D01*
X152074619Y-77495000D01*
X151958536Y-77611083D01*
%TA.AperFunction,Conductor*%
D20*
G36*
X151958536Y-77611083D02*
G01*
X151710220Y-77982715D01*
X151539176Y-78395651D01*
X151451979Y-78834021D01*
X151451979Y-79280979D01*
X151539176Y-79719349D01*
X151710220Y-80132285D01*
X151958536Y-80503917D01*
X152274583Y-80819964D01*
X152646215Y-81068280D01*
X153059151Y-81239324D01*
X153497521Y-81326521D01*
X153944479Y-81326521D01*
X154382849Y-81239324D01*
X154795785Y-81068280D01*
X155167417Y-80819964D01*
X155483464Y-80503917D01*
X155731780Y-80132285D01*
X155902824Y-79719349D01*
X155990021Y-79280979D01*
X155990021Y-78834021D01*
X155902824Y-78395651D01*
X155731780Y-77982715D01*
X155483464Y-77611083D01*
X155367381Y-77495000D01*
X166916500Y-77495000D01*
X166916501Y-116180000D01*
X155379881Y-116180000D01*
X155495964Y-116063917D01*
X155744280Y-115692285D01*
X155915324Y-115279349D01*
X156002521Y-114840979D01*
X156002521Y-114394021D01*
X155915324Y-113955651D01*
X155744280Y-113542715D01*
X155495964Y-113171083D01*
X155179917Y-112855036D01*
X154808285Y-112606720D01*
X154395349Y-112435676D01*
X154255643Y-112407887D01*
X154484158Y-112362432D01*
X154754411Y-112250490D01*
X154997632Y-112087975D01*
X155204475Y-111881132D01*
X155321000Y-111706740D01*
X155437525Y-111881132D01*
X155644368Y-112087975D01*
X155887589Y-112250490D01*
X156157842Y-112362432D01*
X156444740Y-112419500D01*
X156737260Y-112419500D01*
X157024158Y-112362432D01*
X157294411Y-112250490D01*
X157537632Y-112087975D01*
X157669487Y-111956120D01*
X157691498Y-112028680D01*
X157750463Y-112138994D01*
X157829815Y-112235685D01*
X157926506Y-112315037D01*
X158036820Y-112374002D01*
X158156518Y-112410312D01*
X158281000Y-112422572D01*
X159981000Y-112422572D01*
X160105482Y-112410312D01*
X160225180Y-112374002D01*
X160335494Y-112315037D01*
X160432185Y-112235685D01*
X160511537Y-112138994D01*
X160570502Y-112028680D01*
X160606812Y-111908982D01*
X160619072Y-111784500D01*
X160619072Y-110084500D01*
X160606812Y-109960018D01*
X160570502Y-109840320D01*
X160511537Y-109730006D01*
X160432185Y-109633315D01*
X160335494Y-109553963D01*
X160225180Y-109494998D01*
X160105482Y-109458688D01*
X159981000Y-109446428D01*
X158281000Y-109446428D01*
X158156518Y-109458688D01*
X158036820Y-109494998D01*
X157926506Y-109553963D01*
X157829815Y-109633315D01*
X157750463Y-109730006D01*
X157691498Y-109840320D01*
X157669487Y-109912880D01*
X157537632Y-109781025D01*
X157294411Y-109618510D01*
X157024158Y-109506568D01*
X156737260Y-109449500D01*
X156444740Y-109449500D01*
X156157842Y-109506568D01*
X155887589Y-109618510D01*
X155644368Y-109781025D01*
X155437525Y-109987868D01*
X155321000Y-110162260D01*
X155204475Y-109987868D01*
X154997632Y-109781025D01*
X154754411Y-109618510D01*
X154484158Y-109506568D01*
X154197260Y-109449500D01*
X153904740Y-109449500D01*
X153617842Y-109506568D01*
X153347589Y-109618510D01*
X153104368Y-109781025D01*
X152897525Y-109987868D01*
X152781000Y-110162260D01*
X152664475Y-109987868D01*
X152457632Y-109781025D01*
X152214411Y-109618510D01*
X151944158Y-109506568D01*
X151657260Y-109449500D01*
X151364740Y-109449500D01*
X151077842Y-109506568D01*
X150807589Y-109618510D01*
X150564368Y-109781025D01*
X150357525Y-109987868D01*
X150241000Y-110162260D01*
X150124475Y-109987868D01*
X149917632Y-109781025D01*
X149674411Y-109618510D01*
X149404158Y-109506568D01*
X149117260Y-109449500D01*
X148824740Y-109449500D01*
X148537842Y-109506568D01*
X148267589Y-109618510D01*
X148024368Y-109781025D01*
X147817525Y-109987868D01*
X147701000Y-110162260D01*
X147584475Y-109987868D01*
X147377632Y-109781025D01*
X147134411Y-109618510D01*
X146864158Y-109506568D01*
X146577260Y-109449500D01*
X146284740Y-109449500D01*
X145997842Y-109506568D01*
X145727589Y-109618510D01*
X145484368Y-109781025D01*
X145277525Y-109987868D01*
X145161000Y-110162260D01*
X145044475Y-109987868D01*
X144837632Y-109781025D01*
X144594411Y-109618510D01*
X144324158Y-109506568D01*
X144037260Y-109449500D01*
X143744740Y-109449500D01*
X143457842Y-109506568D01*
X143187589Y-109618510D01*
X142944368Y-109781025D01*
X142737525Y-109987868D01*
X142575010Y-110231089D01*
X142463068Y-110501342D01*
X142406000Y-110788240D01*
X142406000Y-111080760D01*
X142463068Y-111367658D01*
X142575010Y-111637911D01*
X142737525Y-111881132D01*
X142944368Y-112087975D01*
X143187589Y-112250490D01*
X143457842Y-112362432D01*
X143744740Y-112419500D01*
X144037260Y-112419500D01*
X144324158Y-112362432D01*
X144594411Y-112250490D01*
X144837632Y-112087975D01*
X145044475Y-111881132D01*
X145161000Y-111706740D01*
X145277525Y-111881132D01*
X145484368Y-112087975D01*
X145727589Y-112250490D01*
X145997842Y-112362432D01*
X146284740Y-112419500D01*
X146577260Y-112419500D01*
X146864158Y-112362432D01*
X147134411Y-112250490D01*
X147377632Y-112087975D01*
X147584475Y-111881132D01*
X147701000Y-111706740D01*
X147817525Y-111881132D01*
X148024368Y-112087975D01*
X148267589Y-112250490D01*
X148537842Y-112362432D01*
X148824740Y-112419500D01*
X149117260Y-112419500D01*
X149404158Y-112362432D01*
X149674411Y-112250490D01*
X149917632Y-112087975D01*
X150124475Y-111881132D01*
X150241000Y-111706740D01*
X150357525Y-111881132D01*
X150564368Y-112087975D01*
X150807589Y-112250490D01*
X151077842Y-112362432D01*
X151364740Y-112419500D01*
X151657260Y-112419500D01*
X151944158Y-112362432D01*
X152214411Y-112250490D01*
X152457632Y-112087975D01*
X152664475Y-111881132D01*
X152781000Y-111706740D01*
X152897525Y-111881132D01*
X153104368Y-112087975D01*
X153347589Y-112250490D01*
X153584156Y-112348479D01*
X153510021Y-112348479D01*
X153071651Y-112435676D01*
X152658715Y-112606720D01*
X152287083Y-112855036D01*
X151971036Y-113171083D01*
X151722720Y-113542715D01*
X151551676Y-113955651D01*
X151464479Y-114394021D01*
X151464479Y-114840979D01*
X151551676Y-115279349D01*
X151722720Y-115692285D01*
X151971036Y-116063917D01*
X152087119Y-116180000D01*
X140995000Y-116180000D01*
X140995000Y-106831500D01*
X142466428Y-106831500D01*
X142478688Y-106955982D01*
X142514998Y-107075680D01*
X142573963Y-107185994D01*
X142653315Y-107282685D01*
X142750006Y-107362037D01*
X142860320Y-107421002D01*
X142980018Y-107457312D01*
X143104500Y-107469572D01*
X143668750Y-107466500D01*
X143827500Y-107307750D01*
X143827500Y-106108500D01*
X144081500Y-106108500D01*
X144081500Y-107307750D01*
X144240250Y-107466500D01*
X144804500Y-107469572D01*
X144928982Y-107457312D01*
X145048680Y-107421002D01*
X145158994Y-107362037D01*
X145255685Y-107282685D01*
X145335037Y-107185994D01*
X145394002Y-107075680D01*
X145418466Y-106995034D01*
X145494231Y-107079088D01*
X145727580Y-107253141D01*
X145990401Y-107378325D01*
X146137610Y-107422976D01*
X146367500Y-107301655D01*
X146367500Y-106108500D01*
X146621500Y-106108500D01*
X146621500Y-107301655D01*
X146851390Y-107422976D01*
X146998599Y-107378325D01*
X147261420Y-107253141D01*
X147494769Y-107079088D01*
X147689678Y-106862855D01*
X147764500Y-106737245D01*
X147839322Y-106862855D01*
X148034231Y-107079088D01*
X148267580Y-107253141D01*
X148530401Y-107378325D01*
X148677610Y-107422976D01*
X148907500Y-107301655D01*
X148907500Y-106108500D01*
X149161500Y-106108500D01*
X149161500Y-107301655D01*
X149391390Y-107422976D01*
X149538599Y-107378325D01*
X149801420Y-107253141D01*
X150034769Y-107079088D01*
X150229678Y-106862855D01*
X150304500Y-106737245D01*
X150379322Y-106862855D01*
X150574231Y-107079088D01*
X150807580Y-107253141D01*
X151070401Y-107378325D01*
X151217610Y-107422976D01*
X151447500Y-107301655D01*
X151447500Y-106108500D01*
X151701500Y-106108500D01*
X151701500Y-107301655D01*
X151931390Y-107422976D01*
X152078599Y-107378325D01*
X152341420Y-107253141D01*
X152574769Y-107079088D01*
X152769678Y-106862855D01*
X152844500Y-106737245D01*
X152919322Y-106862855D01*
X153114231Y-107079088D01*
X153347580Y-107253141D01*
X153610401Y-107378325D01*
X153757610Y-107422976D01*
X153987500Y-107301655D01*
X153987500Y-106108500D01*
X154241500Y-106108500D01*
X154241500Y-107301655D01*
X154471390Y-107422976D01*
X154618599Y-107378325D01*
X154881420Y-107253141D01*
X155114769Y-107079088D01*
X155309678Y-106862855D01*
X155384500Y-106737245D01*
X155459322Y-106862855D01*
X155654231Y-107079088D01*
X155887580Y-107253141D01*
X156150401Y-107378325D01*
X156297610Y-107422976D01*
X156527500Y-107301655D01*
X156527500Y-106108500D01*
X156781500Y-106108500D01*
X156781500Y-107301655D01*
X157011390Y-107422976D01*
X157158599Y-107378325D01*
X157421420Y-107253141D01*
X157654769Y-107079088D01*
X157849678Y-106862855D01*
X157924500Y-106737245D01*
X157999322Y-106862855D01*
X158194231Y-107079088D01*
X158427580Y-107253141D01*
X158690401Y-107378325D01*
X158837610Y-107422976D01*
X159067500Y-107301655D01*
X159067500Y-106108500D01*
X159321500Y-106108500D01*
X159321500Y-107301655D01*
X159551390Y-107422976D01*
X159698599Y-107378325D01*
X159961420Y-107253141D01*
X160194769Y-107079088D01*
X160389678Y-106862855D01*
X160538657Y-106612752D01*
X160635981Y-106338391D01*
X160515314Y-106108500D01*
X159321500Y-106108500D01*
X159067500Y-106108500D01*
X156781500Y-106108500D01*
X156527500Y-106108500D01*
X154241500Y-106108500D01*
X153987500Y-106108500D01*
X151701500Y-106108500D01*
X151447500Y-106108500D01*
X149161500Y-106108500D01*
X148907500Y-106108500D01*
X146621500Y-106108500D01*
X146367500Y-106108500D01*
X144081500Y-106108500D01*
X143827500Y-106108500D01*
X142628250Y-106108500D01*
X142469500Y-106267250D01*
X142466428Y-106831500D01*
X140995000Y-106831500D01*
X140995000Y-105131500D01*
X142466428Y-105131500D01*
X142469500Y-105695750D01*
X142628250Y-105854500D01*
X143827500Y-105854500D01*
X143827500Y-104655250D01*
X144081500Y-104655250D01*
X144081500Y-105854500D01*
X146367500Y-105854500D01*
X146367500Y-104661345D01*
X146621500Y-104661345D01*
X146621500Y-105854500D01*
X148907500Y-105854500D01*
X148907500Y-104661345D01*
X149161500Y-104661345D01*
X149161500Y-105854500D01*
X151447500Y-105854500D01*
X151447500Y-104661345D01*
X151701500Y-104661345D01*
X151701500Y-105854500D01*
X153987500Y-105854500D01*
X153987500Y-104661345D01*
X154241500Y-104661345D01*
X154241500Y-105854500D01*
X156527500Y-105854500D01*
X156527500Y-104661345D01*
X156781500Y-104661345D01*
X156781500Y-105854500D01*
X159067500Y-105854500D01*
X159067500Y-104661345D01*
X159321500Y-104661345D01*
X159321500Y-105854500D01*
X160515314Y-105854500D01*
X160635981Y-105624609D01*
X160538657Y-105350248D01*
X160389678Y-105100145D01*
X160194769Y-104883912D01*
X159961420Y-104709859D01*
X159698599Y-104584675D01*
X159551390Y-104540024D01*
X159321500Y-104661345D01*
X159067500Y-104661345D01*
X158837610Y-104540024D01*
X158690401Y-104584675D01*
X158427580Y-104709859D01*
X158194231Y-104883912D01*
X157999322Y-105100145D01*
X157924500Y-105225755D01*
X157849678Y-105100145D01*
X157654769Y-104883912D01*
X157421420Y-104709859D01*
X157158599Y-104584675D01*
X157011390Y-104540024D01*
X156781500Y-104661345D01*
X156527500Y-104661345D01*
X156297610Y-104540024D01*
X156150401Y-104584675D01*
X155887580Y-104709859D01*
X155654231Y-104883912D01*
X155459322Y-105100145D01*
X155384500Y-105225755D01*
X155309678Y-105100145D01*
X155114769Y-104883912D01*
X154881420Y-104709859D01*
X154618599Y-104584675D01*
X154471390Y-104540024D01*
X154241500Y-104661345D01*
X153987500Y-104661345D01*
X153757610Y-104540024D01*
X153610401Y-104584675D01*
X153347580Y-104709859D01*
X153114231Y-104883912D01*
X152919322Y-105100145D01*
X152844500Y-105225755D01*
X152769678Y-105100145D01*
X152574769Y-104883912D01*
X152341420Y-104709859D01*
X152078599Y-104584675D01*
X151931390Y-104540024D01*
X151701500Y-104661345D01*
X151447500Y-104661345D01*
X151217610Y-104540024D01*
X151070401Y-104584675D01*
X150807580Y-104709859D01*
X150574231Y-104883912D01*
X150379322Y-105100145D01*
X150304500Y-105225755D01*
X150229678Y-105100145D01*
X150034769Y-104883912D01*
X149801420Y-104709859D01*
X149538599Y-104584675D01*
X149391390Y-104540024D01*
X149161500Y-104661345D01*
X148907500Y-104661345D01*
X148677610Y-104540024D01*
X148530401Y-104584675D01*
X148267580Y-104709859D01*
X148034231Y-104883912D01*
X147839322Y-105100145D01*
X147764500Y-105225755D01*
X147689678Y-105100145D01*
X147494769Y-104883912D01*
X147261420Y-104709859D01*
X146998599Y-104584675D01*
X146851390Y-104540024D01*
X146621500Y-104661345D01*
X146367500Y-104661345D01*
X146137610Y-104540024D01*
X145990401Y-104584675D01*
X145727580Y-104709859D01*
X145494231Y-104883912D01*
X145418466Y-104967966D01*
X145394002Y-104887320D01*
X145335037Y-104777006D01*
X145255685Y-104680315D01*
X145158994Y-104600963D01*
X145048680Y-104541998D01*
X144928982Y-104505688D01*
X144804500Y-104493428D01*
X144240250Y-104496500D01*
X144081500Y-104655250D01*
X143827500Y-104655250D01*
X143668750Y-104496500D01*
X143104500Y-104493428D01*
X142980018Y-104505688D01*
X142860320Y-104541998D01*
X142750006Y-104600963D01*
X142653315Y-104680315D01*
X142573963Y-104777006D01*
X142514998Y-104887320D01*
X142478688Y-105007018D01*
X142466428Y-105131500D01*
X140995000Y-105131500D01*
X140995000Y-101009240D01*
X142406000Y-101009240D01*
X142406000Y-101301760D01*
X142463068Y-101588658D01*
X142575010Y-101858911D01*
X142737525Y-102102132D01*
X142944368Y-102308975D01*
X143187589Y-102471490D01*
X143457842Y-102583432D01*
X143744740Y-102640500D01*
X144037260Y-102640500D01*
X144324158Y-102583432D01*
X144594411Y-102471490D01*
X144837632Y-102308975D01*
X145044475Y-102102132D01*
X145161000Y-101927740D01*
X145277525Y-102102132D01*
X145484368Y-102308975D01*
X145727589Y-102471490D01*
X145997842Y-102583432D01*
X146284740Y-102640500D01*
X146577260Y-102640500D01*
X146864158Y-102583432D01*
X147134411Y-102471490D01*
X147377632Y-102308975D01*
X147584475Y-102102132D01*
X147701000Y-101927740D01*
X147817525Y-102102132D01*
X148024368Y-102308975D01*
X148267589Y-102471490D01*
X148537842Y-102583432D01*
X148824740Y-102640500D01*
X149117260Y-102640500D01*
X149404158Y-102583432D01*
X149674411Y-102471490D01*
X149917632Y-102308975D01*
X150124475Y-102102132D01*
X150241000Y-101927740D01*
X150357525Y-102102132D01*
X150564368Y-102308975D01*
X150807589Y-102471490D01*
X151077842Y-102583432D01*
X151364740Y-102640500D01*
X151657260Y-102640500D01*
X151944158Y-102583432D01*
X152214411Y-102471490D01*
X152457632Y-102308975D01*
X152664475Y-102102132D01*
X152781000Y-101927740D01*
X152897525Y-102102132D01*
X153104368Y-102308975D01*
X153347589Y-102471490D01*
X153617842Y-102583432D01*
X153904740Y-102640500D01*
X154197260Y-102640500D01*
X154484158Y-102583432D01*
X154754411Y-102471490D01*
X154997632Y-102308975D01*
X155204475Y-102102132D01*
X155321000Y-101927740D01*
X155437525Y-102102132D01*
X155644368Y-102308975D01*
X155887589Y-102471490D01*
X156157842Y-102583432D01*
X156444740Y-102640500D01*
X156737260Y-102640500D01*
X157024158Y-102583432D01*
X157294411Y-102471490D01*
X157537632Y-102308975D01*
X157669487Y-102177120D01*
X157691498Y-102249680D01*
X157750463Y-102359994D01*
X157829815Y-102456685D01*
X157926506Y-102536037D01*
X158036820Y-102595002D01*
X158156518Y-102631312D01*
X158281000Y-102643572D01*
X159981000Y-102643572D01*
X160105482Y-102631312D01*
X160225180Y-102595002D01*
X160335494Y-102536037D01*
X160432185Y-102456685D01*
X160511537Y-102359994D01*
X160570502Y-102249680D01*
X160606812Y-102129982D01*
X160619072Y-102005500D01*
X160619072Y-100305500D01*
X160606812Y-100181018D01*
X160570502Y-100061320D01*
X160511537Y-99951006D01*
X160432185Y-99854315D01*
X160335494Y-99774963D01*
X160225180Y-99715998D01*
X160105482Y-99679688D01*
X159981000Y-99667428D01*
X158281000Y-99667428D01*
X158156518Y-99679688D01*
X158036820Y-99715998D01*
X157926506Y-99774963D01*
X157829815Y-99854315D01*
X157750463Y-99951006D01*
X157691498Y-100061320D01*
X157669487Y-100133880D01*
X157537632Y-100002025D01*
X157294411Y-99839510D01*
X157024158Y-99727568D01*
X156737260Y-99670500D01*
X156444740Y-99670500D01*
X156157842Y-99727568D01*
X155887589Y-99839510D01*
X155644368Y-100002025D01*
X155437525Y-100208868D01*
X155321000Y-100383260D01*
X155204475Y-100208868D01*
X154997632Y-100002025D01*
X154754411Y-99839510D01*
X154484158Y-99727568D01*
X154197260Y-99670500D01*
X153904740Y-99670500D01*
X153617842Y-99727568D01*
X153347589Y-99839510D01*
X153104368Y-100002025D01*
X152897525Y-100208868D01*
X152781000Y-100383260D01*
X152664475Y-100208868D01*
X152457632Y-100002025D01*
X152214411Y-99839510D01*
X151944158Y-99727568D01*
X151657260Y-99670500D01*
X151364740Y-99670500D01*
X151077842Y-99727568D01*
X150807589Y-99839510D01*
X150564368Y-100002025D01*
X150357525Y-100208868D01*
X150241000Y-100383260D01*
X150124475Y-100208868D01*
X149917632Y-100002025D01*
X149674411Y-99839510D01*
X149404158Y-99727568D01*
X149117260Y-99670500D01*
X148824740Y-99670500D01*
X148537842Y-99727568D01*
X148267589Y-99839510D01*
X148024368Y-100002025D01*
X147817525Y-100208868D01*
X147701000Y-100383260D01*
X147584475Y-100208868D01*
X147377632Y-100002025D01*
X147134411Y-99839510D01*
X146864158Y-99727568D01*
X146577260Y-99670500D01*
X146284740Y-99670500D01*
X145997842Y-99727568D01*
X145727589Y-99839510D01*
X145484368Y-100002025D01*
X145277525Y-100208868D01*
X145161000Y-100383260D01*
X145044475Y-100208868D01*
X144837632Y-100002025D01*
X144594411Y-99839510D01*
X144324158Y-99727568D01*
X144037260Y-99670500D01*
X143744740Y-99670500D01*
X143457842Y-99727568D01*
X143187589Y-99839510D01*
X142944368Y-100002025D01*
X142737525Y-100208868D01*
X142575010Y-100452089D01*
X142463068Y-100722342D01*
X142406000Y-101009240D01*
X140995000Y-101009240D01*
X140995000Y-92322544D01*
X143171000Y-92322544D01*
X143171000Y-92589456D01*
X143223072Y-92851239D01*
X143325215Y-93097833D01*
X143473503Y-93319762D01*
X143662238Y-93508497D01*
X143884167Y-93656785D01*
X144051266Y-93726000D01*
X143884167Y-93795215D01*
X143662238Y-93943503D01*
X143473503Y-94132238D01*
X143325215Y-94354167D01*
X143223072Y-94600761D01*
X143171000Y-94862544D01*
X143171000Y-95129456D01*
X143223072Y-95391239D01*
X143325215Y-95637833D01*
X143473503Y-95859762D01*
X143662238Y-96048497D01*
X143884167Y-96196785D01*
X144130761Y-96298928D01*
X144392544Y-96351000D01*
X144659456Y-96351000D01*
X144921239Y-96298928D01*
X145167833Y-96196785D01*
X145389762Y-96048497D01*
X145578497Y-95859762D01*
X145726785Y-95637833D01*
X145761855Y-95553165D01*
X147679500Y-95553165D01*
X147679500Y-95835835D01*
X147734647Y-96113074D01*
X147842820Y-96374227D01*
X147999863Y-96609259D01*
X148199741Y-96809137D01*
X148434773Y-96966180D01*
X148695926Y-97074353D01*
X148973165Y-97129500D01*
X149255835Y-97129500D01*
X149533074Y-97074353D01*
X149794227Y-96966180D01*
X150029259Y-96809137D01*
X150151194Y-96687202D01*
X153301403Y-96687202D01*
X153372986Y-96931171D01*
X153628496Y-97052071D01*
X153902684Y-97120800D01*
X154185012Y-97134717D01*
X154464630Y-97093287D01*
X154730792Y-96998103D01*
X154856014Y-96931171D01*
X154927597Y-96687202D01*
X154114500Y-95874105D01*
X153301403Y-96687202D01*
X150151194Y-96687202D01*
X150229137Y-96609259D01*
X150386180Y-96374227D01*
X150494353Y-96113074D01*
X150549500Y-95835835D01*
X150549500Y-95765012D01*
X152674283Y-95765012D01*
X152715713Y-96044630D01*
X152810897Y-96310792D01*
X152877829Y-96436014D01*
X153121798Y-96507597D01*
X153934895Y-95694500D01*
X154294105Y-95694500D01*
X155107202Y-96507597D01*
X155351171Y-96436014D01*
X155472071Y-96180504D01*
X155473500Y-96174803D01*
X155473500Y-96216835D01*
X155528647Y-96494074D01*
X155636820Y-96755227D01*
X155793863Y-96990259D01*
X155993741Y-97190137D01*
X156228773Y-97347180D01*
X156489926Y-97455353D01*
X156767165Y-97510500D01*
X157049835Y-97510500D01*
X157327074Y-97455353D01*
X157588227Y-97347180D01*
X157823259Y-97190137D01*
X158023137Y-96990259D01*
X158180180Y-96755227D01*
X158288353Y-96494074D01*
X158343500Y-96216835D01*
X158343500Y-95934165D01*
X158288353Y-95656926D01*
X158180180Y-95395773D01*
X158023137Y-95160741D01*
X157823259Y-94960863D01*
X157588227Y-94803820D01*
X157327074Y-94695647D01*
X157049835Y-94640500D01*
X156767165Y-94640500D01*
X156489926Y-94695647D01*
X156228773Y-94803820D01*
X155993741Y-94960863D01*
X155793863Y-95160741D01*
X155636820Y-95395773D01*
X155551443Y-95601891D01*
X155513287Y-95344370D01*
X155418103Y-95078208D01*
X155351171Y-94952986D01*
X155107202Y-94881403D01*
X154294105Y-95694500D01*
X153934895Y-95694500D01*
X153121798Y-94881403D01*
X152877829Y-94952986D01*
X152756929Y-95208496D01*
X152688200Y-95482684D01*
X152674283Y-95765012D01*
X150549500Y-95765012D01*
X150549500Y-95553165D01*
X150494353Y-95275926D01*
X150386180Y-95014773D01*
X150229137Y-94779741D01*
X150151194Y-94701798D01*
X153301403Y-94701798D01*
X154114500Y-95514895D01*
X154927597Y-94701798D01*
X154856014Y-94457829D01*
X154600504Y-94336929D01*
X154326316Y-94268200D01*
X154043988Y-94254283D01*
X153764370Y-94295713D01*
X153498208Y-94390897D01*
X153372986Y-94457829D01*
X153301403Y-94701798D01*
X150151194Y-94701798D01*
X150029259Y-94579863D01*
X149794227Y-94422820D01*
X149533074Y-94314647D01*
X149255835Y-94259500D01*
X148973165Y-94259500D01*
X148695926Y-94314647D01*
X148434773Y-94422820D01*
X148199741Y-94579863D01*
X147999863Y-94779741D01*
X147842820Y-95014773D01*
X147734647Y-95275926D01*
X147679500Y-95553165D01*
X145761855Y-95553165D01*
X145828928Y-95391239D01*
X145881000Y-95129456D01*
X145881000Y-94862544D01*
X145828928Y-94600761D01*
X145726785Y-94354167D01*
X145578497Y-94132238D01*
X145389762Y-93943503D01*
X145167833Y-93795215D01*
X145000734Y-93726000D01*
X145167833Y-93656785D01*
X145389762Y-93508497D01*
X145578497Y-93319762D01*
X145726785Y-93097833D01*
X145828928Y-92851239D01*
X145881000Y-92589456D01*
X145881000Y-92322544D01*
X145844432Y-92138702D01*
X150634403Y-92138702D01*
X150705986Y-92382671D01*
X150961496Y-92503571D01*
X151235684Y-92572300D01*
X151518012Y-92586217D01*
X151797630Y-92544787D01*
X152063792Y-92449603D01*
X152189014Y-92382671D01*
X152260597Y-92138702D01*
X151447500Y-91325605D01*
X150634403Y-92138702D01*
X145844432Y-92138702D01*
X145828928Y-92060761D01*
X145726785Y-91814167D01*
X145578497Y-91592238D01*
X145389762Y-91403503D01*
X145167833Y-91255215D01*
X145074396Y-91216512D01*
X150007283Y-91216512D01*
X150048713Y-91496130D01*
X150143897Y-91762292D01*
X150210829Y-91887514D01*
X150454798Y-91959097D01*
X151267895Y-91146000D01*
X151627105Y-91146000D01*
X152440202Y-91959097D01*
X152684171Y-91887514D01*
X152805071Y-91632004D01*
X152873800Y-91357816D01*
X152887717Y-91075488D01*
X152846287Y-90795870D01*
X152799009Y-90663665D01*
X155473500Y-90663665D01*
X155473500Y-90946335D01*
X155528647Y-91223574D01*
X155636820Y-91484727D01*
X155793863Y-91719759D01*
X155993741Y-91919637D01*
X156228773Y-92076680D01*
X156489926Y-92184853D01*
X156767165Y-92240000D01*
X157049835Y-92240000D01*
X157232387Y-92203688D01*
X163082000Y-98053302D01*
X163082001Y-104576321D01*
X162895368Y-104701025D01*
X162688525Y-104907868D01*
X162526010Y-105151089D01*
X162414068Y-105421342D01*
X162357000Y-105708240D01*
X162357000Y-106000760D01*
X162414068Y-106287658D01*
X162526010Y-106557911D01*
X162688525Y-106801132D01*
X162895368Y-107007975D01*
X163069760Y-107124500D01*
X162895368Y-107241025D01*
X162688525Y-107447868D01*
X162526010Y-107691089D01*
X162414068Y-107961342D01*
X162357000Y-108248240D01*
X162357000Y-108540760D01*
X162414068Y-108827658D01*
X162526010Y-109097911D01*
X162688525Y-109341132D01*
X162820380Y-109472987D01*
X162747820Y-109494998D01*
X162637506Y-109553963D01*
X162540815Y-109633315D01*
X162461463Y-109730006D01*
X162402498Y-109840320D01*
X162366188Y-109960018D01*
X162353928Y-110084500D01*
X162353928Y-111784500D01*
X162366188Y-111908982D01*
X162402498Y-112028680D01*
X162461463Y-112138994D01*
X162540815Y-112235685D01*
X162637506Y-112315037D01*
X162747820Y-112374002D01*
X162867518Y-112410312D01*
X162992000Y-112422572D01*
X164692000Y-112422572D01*
X164816482Y-112410312D01*
X164936180Y-112374002D01*
X165046494Y-112315037D01*
X165143185Y-112235685D01*
X165222537Y-112138994D01*
X165281502Y-112028680D01*
X165317812Y-111908982D01*
X165330072Y-111784500D01*
X165330072Y-110084500D01*
X165317812Y-109960018D01*
X165281502Y-109840320D01*
X165222537Y-109730006D01*
X165143185Y-109633315D01*
X165046494Y-109553963D01*
X164936180Y-109494998D01*
X164863620Y-109472987D01*
X164995475Y-109341132D01*
X165157990Y-109097911D01*
X165269932Y-108827658D01*
X165327000Y-108540760D01*
X165327000Y-108248240D01*
X165269932Y-107961342D01*
X165157990Y-107691089D01*
X164995475Y-107447868D01*
X164788632Y-107241025D01*
X164614240Y-107124500D01*
X164788632Y-107007975D01*
X164995475Y-106801132D01*
X165157990Y-106557911D01*
X165269932Y-106287658D01*
X165327000Y-106000760D01*
X165327000Y-105708240D01*
X165269932Y-105421342D01*
X165157990Y-105151089D01*
X164995475Y-104907868D01*
X164788632Y-104701025D01*
X164602000Y-104576322D01*
X164602000Y-97775825D01*
X164605676Y-97738500D01*
X164602000Y-97701175D01*
X164602000Y-97701167D01*
X164591003Y-97589514D01*
X164567035Y-97510500D01*
X164669835Y-97510500D01*
X164947074Y-97455353D01*
X165208227Y-97347180D01*
X165443259Y-97190137D01*
X165643137Y-96990259D01*
X165800180Y-96755227D01*
X165908353Y-96494074D01*
X165963500Y-96216835D01*
X165963500Y-95934165D01*
X165908353Y-95656926D01*
X165800180Y-95395773D01*
X165643137Y-95160741D01*
X165443259Y-94960863D01*
X165208227Y-94803820D01*
X164947074Y-94695647D01*
X164669835Y-94640500D01*
X164387165Y-94640500D01*
X164109926Y-94695647D01*
X163848773Y-94803820D01*
X163613741Y-94960863D01*
X163413863Y-95160741D01*
X163256820Y-95395773D01*
X163148647Y-95656926D01*
X163096647Y-95918345D01*
X158976004Y-91797702D01*
X163715403Y-91797702D01*
X163786986Y-92041671D01*
X164042496Y-92162571D01*
X164316684Y-92231300D01*
X164599012Y-92245217D01*
X164878630Y-92203787D01*
X165144792Y-92108603D01*
X165270014Y-92041671D01*
X165341597Y-91797702D01*
X164528500Y-90984605D01*
X163715403Y-91797702D01*
X158976004Y-91797702D01*
X158307188Y-91128887D01*
X158343500Y-90946335D01*
X158343500Y-90875512D01*
X163088283Y-90875512D01*
X163129713Y-91155130D01*
X163224897Y-91421292D01*
X163291829Y-91546514D01*
X163535798Y-91618097D01*
X164348895Y-90805000D01*
X164708105Y-90805000D01*
X165521202Y-91618097D01*
X165765171Y-91546514D01*
X165886071Y-91291004D01*
X165954800Y-91016816D01*
X165968717Y-90734488D01*
X165927287Y-90454870D01*
X165832103Y-90188708D01*
X165765171Y-90063486D01*
X165521202Y-89991903D01*
X164708105Y-90805000D01*
X164348895Y-90805000D01*
X163535798Y-89991903D01*
X163291829Y-90063486D01*
X163170929Y-90318996D01*
X163102200Y-90593184D01*
X163088283Y-90875512D01*
X158343500Y-90875512D01*
X158343500Y-90663665D01*
X158288353Y-90386426D01*
X158180180Y-90125273D01*
X158023137Y-89890241D01*
X157945194Y-89812298D01*
X163715403Y-89812298D01*
X164528500Y-90625395D01*
X165341597Y-89812298D01*
X165270014Y-89568329D01*
X165014504Y-89447429D01*
X164740316Y-89378700D01*
X164457988Y-89364783D01*
X164178370Y-89406213D01*
X163912208Y-89501397D01*
X163786986Y-89568329D01*
X163715403Y-89812298D01*
X157945194Y-89812298D01*
X157823259Y-89690363D01*
X157588227Y-89533320D01*
X157327074Y-89425147D01*
X157049835Y-89370000D01*
X156767165Y-89370000D01*
X156489926Y-89425147D01*
X156228773Y-89533320D01*
X155993741Y-89690363D01*
X155793863Y-89890241D01*
X155636820Y-90125273D01*
X155528647Y-90386426D01*
X155473500Y-90663665D01*
X152799009Y-90663665D01*
X152751103Y-90529708D01*
X152684171Y-90404486D01*
X152440202Y-90332903D01*
X151627105Y-91146000D01*
X151267895Y-91146000D01*
X150454798Y-90332903D01*
X150210829Y-90404486D01*
X150089929Y-90659996D01*
X150021200Y-90934184D01*
X150007283Y-91216512D01*
X145074396Y-91216512D01*
X144999676Y-91185562D01*
X145114353Y-91143875D01*
X145220068Y-91087368D01*
X145281955Y-90851560D01*
X144526000Y-90095605D01*
X143770045Y-90851560D01*
X143831932Y-91087368D01*
X144047007Y-91187764D01*
X143884167Y-91255215D01*
X143662238Y-91403503D01*
X143473503Y-91592238D01*
X143325215Y-91814167D01*
X143223072Y-92060761D01*
X143171000Y-92322544D01*
X140995000Y-92322544D01*
X140995000Y-89989680D01*
X143166439Y-89989680D01*
X143206937Y-90253501D01*
X143298125Y-90504353D01*
X143354632Y-90610068D01*
X143590440Y-90671955D01*
X144346395Y-89916000D01*
X144705605Y-89916000D01*
X145461560Y-90671955D01*
X145697368Y-90610068D01*
X145810266Y-90368210D01*
X145873811Y-90108973D01*
X145885561Y-89842320D01*
X145845063Y-89578499D01*
X145753875Y-89327647D01*
X145697368Y-89221932D01*
X145461560Y-89160045D01*
X144705605Y-89916000D01*
X144346395Y-89916000D01*
X143590440Y-89160045D01*
X143354632Y-89221932D01*
X143241734Y-89463790D01*
X143178189Y-89723027D01*
X143166439Y-89989680D01*
X140995000Y-89989680D01*
X140995000Y-88980440D01*
X143770045Y-88980440D01*
X144526000Y-89736395D01*
X145281955Y-88980440D01*
X145220068Y-88744632D01*
X144978210Y-88631734D01*
X144718973Y-88568189D01*
X144452320Y-88556439D01*
X144188499Y-88596937D01*
X143937647Y-88688125D01*
X143831932Y-88744632D01*
X143770045Y-88980440D01*
X140995000Y-88980440D01*
X140995000Y-87846000D01*
X150009428Y-87846000D01*
X150009428Y-89446000D01*
X150021688Y-89570482D01*
X150057998Y-89690180D01*
X150116963Y-89800494D01*
X150196315Y-89897185D01*
X150293006Y-89976537D01*
X150403320Y-90035502D01*
X150523018Y-90071812D01*
X150647500Y-90084072D01*
X150654715Y-90084072D01*
X150634403Y-90153298D01*
X151447500Y-90966395D01*
X152260597Y-90153298D01*
X152240285Y-90084072D01*
X152247500Y-90084072D01*
X152371982Y-90071812D01*
X152491680Y-90035502D01*
X152601994Y-89976537D01*
X152698685Y-89897185D01*
X152778037Y-89800494D01*
X152837002Y-89690180D01*
X152873312Y-89570482D01*
X152885572Y-89446000D01*
X152885572Y-87846000D01*
X152873312Y-87721518D01*
X152837002Y-87601820D01*
X152778037Y-87491506D01*
X152698685Y-87394815D01*
X152601994Y-87315463D01*
X152491680Y-87256498D01*
X152379604Y-87222500D01*
X162290428Y-87222500D01*
X162302688Y-87346982D01*
X162338998Y-87466680D01*
X162397963Y-87576994D01*
X162477315Y-87673685D01*
X162574006Y-87753037D01*
X162684320Y-87812002D01*
X162804018Y-87848312D01*
X162928500Y-87860572D01*
X163492750Y-87857500D01*
X163651500Y-87698750D01*
X163651500Y-86499500D01*
X163905500Y-86499500D01*
X163905500Y-87698750D01*
X164064250Y-87857500D01*
X164628500Y-87860572D01*
X164752982Y-87848312D01*
X164872680Y-87812002D01*
X164982994Y-87753037D01*
X165079685Y-87673685D01*
X165159037Y-87576994D01*
X165218002Y-87466680D01*
X165254312Y-87346982D01*
X165266572Y-87222500D01*
X165263500Y-86658250D01*
X165104750Y-86499500D01*
X163905500Y-86499500D01*
X163651500Y-86499500D01*
X162452250Y-86499500D01*
X162293500Y-86658250D01*
X162290428Y-87222500D01*
X152379604Y-87222500D01*
X152371982Y-87220188D01*
X152247500Y-87207928D01*
X150647500Y-87207928D01*
X150523018Y-87220188D01*
X150403320Y-87256498D01*
X150293006Y-87315463D01*
X150196315Y-87394815D01*
X150116963Y-87491506D01*
X150057998Y-87601820D01*
X150021688Y-87721518D01*
X150009428Y-87846000D01*
X140995000Y-87846000D01*
X140995000Y-83391500D01*
X149412428Y-83391500D01*
X149412428Y-85391500D01*
X149424688Y-85515982D01*
X149460998Y-85635680D01*
X149519963Y-85745994D01*
X149599315Y-85842685D01*
X149696006Y-85922037D01*
X149806320Y-85981002D01*
X149926018Y-86017312D01*
X150050500Y-86029572D01*
X151955500Y-86029572D01*
X152079982Y-86017312D01*
X152199680Y-85981002D01*
X152309994Y-85922037D01*
X152406685Y-85842685D01*
X152486037Y-85745994D01*
X152530905Y-85662053D01*
X152656766Y-85765345D01*
X152932552Y-85912755D01*
X153231797Y-86003530D01*
X153543000Y-86034181D01*
X153854204Y-86003530D01*
X154153449Y-85912755D01*
X154429235Y-85765345D01*
X154670963Y-85566963D01*
X154813000Y-85393891D01*
X154955037Y-85566963D01*
X155196766Y-85765345D01*
X155472552Y-85912755D01*
X155771797Y-86003530D01*
X156083000Y-86034181D01*
X156394204Y-86003530D01*
X156693449Y-85912755D01*
X156969235Y-85765345D01*
X157210963Y-85566963D01*
X157247452Y-85522500D01*
X162290428Y-85522500D01*
X162293500Y-86086750D01*
X162452250Y-86245500D01*
X163651500Y-86245500D01*
X163651500Y-86225500D01*
X163905500Y-86225500D01*
X163905500Y-86245500D01*
X165104750Y-86245500D01*
X165263500Y-86086750D01*
X165266572Y-85522500D01*
X165254312Y-85398018D01*
X165218002Y-85278320D01*
X165159037Y-85168006D01*
X165079685Y-85071315D01*
X164982994Y-84991963D01*
X164872680Y-84932998D01*
X164800120Y-84910987D01*
X164931975Y-84779132D01*
X165094490Y-84535911D01*
X165206432Y-84265658D01*
X165263500Y-83978760D01*
X165263500Y-83686240D01*
X165206432Y-83399342D01*
X165094490Y-83129089D01*
X164931975Y-82885868D01*
X164725132Y-82679025D01*
X164481911Y-82516510D01*
X164211658Y-82404568D01*
X163924760Y-82347500D01*
X163632240Y-82347500D01*
X163345342Y-82404568D01*
X163075089Y-82516510D01*
X162831868Y-82679025D01*
X162625025Y-82885868D01*
X162462510Y-83129089D01*
X162350568Y-83399342D01*
X162293500Y-83686240D01*
X162293500Y-83978760D01*
X162350568Y-84265658D01*
X162462510Y-84535911D01*
X162625025Y-84779132D01*
X162756880Y-84910987D01*
X162684320Y-84932998D01*
X162574006Y-84991963D01*
X162477315Y-85071315D01*
X162397963Y-85168006D01*
X162338998Y-85278320D01*
X162302688Y-85398018D01*
X162290428Y-85522500D01*
X157247452Y-85522500D01*
X157409345Y-85325234D01*
X157556755Y-85049448D01*
X157647530Y-84750203D01*
X157670500Y-84516985D01*
X157670500Y-84266014D01*
X157647530Y-84032796D01*
X157556755Y-83733551D01*
X157409345Y-83457765D01*
X157210963Y-83216037D01*
X156969234Y-83017655D01*
X156693448Y-82870245D01*
X156394203Y-82779470D01*
X156083000Y-82748819D01*
X155771796Y-82779470D01*
X155472551Y-82870245D01*
X155196765Y-83017655D01*
X154955037Y-83216037D01*
X154813000Y-83389109D01*
X154670963Y-83216037D01*
X154429234Y-83017655D01*
X154153448Y-82870245D01*
X153854203Y-82779470D01*
X153543000Y-82748819D01*
X153231796Y-82779470D01*
X152932551Y-82870245D01*
X152656765Y-83017655D01*
X152530905Y-83120946D01*
X152486037Y-83037006D01*
X152406685Y-82940315D01*
X152309994Y-82860963D01*
X152199680Y-82801998D01*
X152079982Y-82765688D01*
X151955500Y-82753428D01*
X150050500Y-82753428D01*
X149926018Y-82765688D01*
X149806320Y-82801998D01*
X149696006Y-82860963D01*
X149599315Y-82940315D01*
X149519963Y-83037006D01*
X149460998Y-83147320D01*
X149424688Y-83267018D01*
X149412428Y-83391500D01*
X140995000Y-83391500D01*
X140995000Y-77495000D01*
X152074619Y-77495000D01*
X151958536Y-77611083D01*
G37*
%TD.AperFunction*%
%TD*%
M02*
