%TF.GenerationSoftware,KiCad,Pcbnew,(5.1.12-1-10_14)*%
%TF.CreationDate,2021-12-04T23:40:54+01:00*%
%TF.ProjectId,contraddictionLamp_220Conn,636f6e74-7261-4646-9469-6374696f6e4c,rev?*%
%TF.SameCoordinates,Original*%
%TF.FileFunction,Legend,Top*%
%TF.FilePolarity,Positive*%
%FSLAX46Y46*%
G04 Gerber Fmt 4.6, Leading zero omitted, Abs format (unit mm)*
G04 Created by KiCad (PCBNEW (5.1.12-1-10_14)) date 2021-12-04 23:40:54*
%MOMM*%
%LPD*%
G01*
G04 APERTURE LIST*
%ADD10C,0.150000*%
%ADD11C,0.120000*%
G04 APERTURE END LIST*
D10*
X189865047Y-114117428D02*
X190626952Y-114117428D01*
X190246000Y-114498380D02*
X190246000Y-113736476D01*
X189865047Y-99893428D02*
X190626952Y-99893428D01*
X190246000Y-100274380D02*
X190246000Y-99512476D01*
X164211047Y-99893428D02*
X164972952Y-99893428D01*
X164592000Y-100274380D02*
X164592000Y-99512476D01*
X190301619Y-107314619D02*
X190254000Y-107267000D01*
X190206380Y-107171761D01*
X190206380Y-106933666D01*
X190254000Y-106838428D01*
X190301619Y-106790809D01*
X190396857Y-106743190D01*
X190492095Y-106743190D01*
X190634952Y-106790809D01*
X191206380Y-107362238D01*
X191206380Y-106743190D01*
X190301619Y-106362238D02*
X190254000Y-106314619D01*
X190206380Y-106219380D01*
X190206380Y-105981285D01*
X190254000Y-105886047D01*
X190301619Y-105838428D01*
X190396857Y-105790809D01*
X190492095Y-105790809D01*
X190634952Y-105838428D01*
X191206380Y-106409857D01*
X191206380Y-105790809D01*
X190206380Y-105171761D02*
X190206380Y-105076523D01*
X190254000Y-104981285D01*
X190301619Y-104933666D01*
X190396857Y-104886047D01*
X190587333Y-104838428D01*
X190825428Y-104838428D01*
X191015904Y-104886047D01*
X191111142Y-104933666D01*
X191158761Y-104981285D01*
X191206380Y-105076523D01*
X191206380Y-105171761D01*
X191158761Y-105267000D01*
X191111142Y-105314619D01*
X191015904Y-105362238D01*
X190825428Y-105409857D01*
X190587333Y-105409857D01*
X190396857Y-105362238D01*
X190301619Y-105314619D01*
X190254000Y-105267000D01*
X190206380Y-105171761D01*
X190206380Y-103457476D02*
X190206380Y-103267000D01*
X190254000Y-103171761D01*
X190349238Y-103076523D01*
X190539714Y-103028904D01*
X190873047Y-103028904D01*
X191063523Y-103076523D01*
X191158761Y-103171761D01*
X191206380Y-103267000D01*
X191206380Y-103457476D01*
X191158761Y-103552714D01*
X191063523Y-103647952D01*
X190873047Y-103695571D01*
X190539714Y-103695571D01*
X190349238Y-103647952D01*
X190254000Y-103552714D01*
X190206380Y-103457476D01*
X190206380Y-102600333D02*
X191015904Y-102600333D01*
X191111142Y-102552714D01*
X191158761Y-102505095D01*
X191206380Y-102409857D01*
X191206380Y-102219380D01*
X191158761Y-102124142D01*
X191111142Y-102076523D01*
X191015904Y-102028904D01*
X190206380Y-102028904D01*
X190206380Y-101695571D02*
X190206380Y-101124142D01*
X191206380Y-101409857D02*
X190206380Y-101409857D01*
X166918047Y-117419380D02*
X166918047Y-116419380D01*
X167489476Y-117419380D01*
X167489476Y-116419380D01*
X168346619Y-117371761D02*
X168251380Y-117419380D01*
X168060904Y-117419380D01*
X167965666Y-117371761D01*
X167918047Y-117276523D01*
X167918047Y-116895571D01*
X167965666Y-116800333D01*
X168060904Y-116752714D01*
X168251380Y-116752714D01*
X168346619Y-116800333D01*
X168394238Y-116895571D01*
X168394238Y-116990809D01*
X167918047Y-117086047D01*
X169251380Y-116752714D02*
X169251380Y-117419380D01*
X168822809Y-116752714D02*
X168822809Y-117276523D01*
X168870428Y-117371761D01*
X168965666Y-117419380D01*
X169108523Y-117419380D01*
X169203761Y-117371761D01*
X169251380Y-117324142D01*
X169584714Y-116752714D02*
X169965666Y-116752714D01*
X169727571Y-116419380D02*
X169727571Y-117276523D01*
X169775190Y-117371761D01*
X169870428Y-117419380D01*
X169965666Y-117419380D01*
X170299000Y-117419380D02*
X170299000Y-116752714D01*
X170299000Y-116943190D02*
X170346619Y-116847952D01*
X170394238Y-116800333D01*
X170489476Y-116752714D01*
X170584714Y-116752714D01*
X171346619Y-117419380D02*
X171346619Y-116895571D01*
X171299000Y-116800333D01*
X171203761Y-116752714D01*
X171013285Y-116752714D01*
X170918047Y-116800333D01*
X171346619Y-117371761D02*
X171251380Y-117419380D01*
X171013285Y-117419380D01*
X170918047Y-117371761D01*
X170870428Y-117276523D01*
X170870428Y-117181285D01*
X170918047Y-117086047D01*
X171013285Y-117038428D01*
X171251380Y-117038428D01*
X171346619Y-116990809D01*
X171965666Y-117419380D02*
X171870428Y-117371761D01*
X171822809Y-117276523D01*
X171822809Y-116419380D01*
X172299000Y-117371761D02*
X172394238Y-117419380D01*
X172584714Y-117419380D01*
X172679952Y-117371761D01*
X172727571Y-117276523D01*
X172727571Y-117228904D01*
X172679952Y-117133666D01*
X172584714Y-117086047D01*
X172441857Y-117086047D01*
X172346619Y-117038428D01*
X172299000Y-116943190D01*
X172299000Y-116895571D01*
X172346619Y-116800333D01*
X172441857Y-116752714D01*
X172584714Y-116752714D01*
X172679952Y-116800333D01*
X163901380Y-94266047D02*
X163949000Y-94313666D01*
X163996619Y-94408904D01*
X163996619Y-94647000D01*
X163949000Y-94742238D01*
X163901380Y-94789857D01*
X163806142Y-94837476D01*
X163710904Y-94837476D01*
X163568047Y-94789857D01*
X162996619Y-94218428D01*
X162996619Y-94837476D01*
X163901380Y-95218428D02*
X163949000Y-95266047D01*
X163996619Y-95361285D01*
X163996619Y-95599380D01*
X163949000Y-95694619D01*
X163901380Y-95742238D01*
X163806142Y-95789857D01*
X163710904Y-95789857D01*
X163568047Y-95742238D01*
X162996619Y-95170809D01*
X162996619Y-95789857D01*
X163996619Y-96408904D02*
X163996619Y-96504142D01*
X163949000Y-96599380D01*
X163901380Y-96647000D01*
X163806142Y-96694619D01*
X163615666Y-96742238D01*
X163377571Y-96742238D01*
X163187095Y-96694619D01*
X163091857Y-96647000D01*
X163044238Y-96599380D01*
X162996619Y-96504142D01*
X162996619Y-96408904D01*
X163044238Y-96313666D01*
X163091857Y-96266047D01*
X163187095Y-96218428D01*
X163377571Y-96170809D01*
X163615666Y-96170809D01*
X163806142Y-96218428D01*
X163901380Y-96266047D01*
X163949000Y-96313666D01*
X163996619Y-96408904D01*
X162996619Y-97932714D02*
X163996619Y-97932714D01*
X162996619Y-98408904D02*
X163996619Y-98408904D01*
X162996619Y-98980333D01*
X163996619Y-98980333D01*
D11*
%TO.C,J1*%
X165534000Y-91902000D02*
X165534000Y-92402000D01*
X166274000Y-91902000D02*
X165534000Y-91902000D01*
X169411000Y-98595000D02*
X169365000Y-98548000D01*
X171709000Y-100892000D02*
X171673000Y-100857000D01*
X169195000Y-98788000D02*
X169160000Y-98753000D01*
X171503000Y-101097000D02*
X171457000Y-101050000D01*
X175695000Y-102422000D02*
X165774000Y-102422000D01*
X175695000Y-92142000D02*
X165774000Y-92142000D01*
X165774000Y-92142000D02*
X165774000Y-102422000D01*
X175695000Y-92142000D02*
X175695000Y-102422000D01*
X172735000Y-92142000D02*
X172735000Y-102422000D01*
X167834000Y-92142000D02*
X167834000Y-102422000D01*
X166334000Y-92142000D02*
X166334000Y-102422000D01*
X172114000Y-99822000D02*
G75*
G03*
X172114000Y-99822000I-1680000J0D01*
G01*
X168899244Y-95425318D02*
G75*
G02*
X168754000Y-94742000I1534756J683318D01*
G01*
X171117042Y-96277426D02*
G75*
G02*
X169750000Y-96277000I-683042J1535426D01*
G01*
X171969426Y-94058958D02*
G75*
G02*
X171969000Y-95426000I-1535426J-683042D01*
G01*
X169750958Y-93206574D02*
G75*
G02*
X171118000Y-93207000I683042J-1535426D01*
G01*
X168753747Y-94770805D02*
G75*
G02*
X168899000Y-94058000I1680253J28805D01*
G01*
%TO.C,J2*%
X167922805Y-112932253D02*
G75*
G02*
X167210000Y-112787000I-28805J1680253D01*
G01*
X166358574Y-111935042D02*
G75*
G02*
X166359000Y-110568000I1535426J683042D01*
G01*
X167210958Y-109716574D02*
G75*
G02*
X168578000Y-109717000I683042J-1535426D01*
G01*
X169429426Y-110568958D02*
G75*
G02*
X169429000Y-111936000I-1535426J-683042D01*
G01*
X168577318Y-112786756D02*
G75*
G02*
X167894000Y-112932000I-683318J1534756D01*
G01*
X174654000Y-111252000D02*
G75*
G03*
X174654000Y-111252000I-1680000J0D01*
G01*
X165294000Y-115352000D02*
X175574000Y-115352000D01*
X165294000Y-113852000D02*
X175574000Y-113852000D01*
X165294000Y-108951000D02*
X175574000Y-108951000D01*
X165294000Y-105991000D02*
X175574000Y-105991000D01*
X165294000Y-115912000D02*
X175574000Y-115912000D01*
X165294000Y-105991000D02*
X165294000Y-115912000D01*
X175574000Y-105991000D02*
X175574000Y-115912000D01*
X174249000Y-110183000D02*
X174202000Y-110229000D01*
X171940000Y-112491000D02*
X171905000Y-112526000D01*
X174044000Y-109977000D02*
X174009000Y-110013000D01*
X171747000Y-112275000D02*
X171700000Y-112321000D01*
X165054000Y-115412000D02*
X165054000Y-116152000D01*
X165054000Y-116152000D02*
X165554000Y-116152000D01*
%TO.C,J3*%
X186084253Y-99793195D02*
G75*
G02*
X185939000Y-100506000I-1680253J-28805D01*
G01*
X185087042Y-101357426D02*
G75*
G02*
X183720000Y-101357000I-683042J1535426D01*
G01*
X182868574Y-100505042D02*
G75*
G02*
X182869000Y-99138000I1535426J683042D01*
G01*
X183720958Y-98286574D02*
G75*
G02*
X185088000Y-98287000I683042J-1535426D01*
G01*
X185938756Y-99138682D02*
G75*
G02*
X186084000Y-99822000I-1534756J-683318D01*
G01*
X186084000Y-94742000D02*
G75*
G03*
X186084000Y-94742000I-1680000J0D01*
G01*
X188504000Y-102422000D02*
X188504000Y-92142000D01*
X187004000Y-102422000D02*
X187004000Y-92142000D01*
X182103000Y-102422000D02*
X182103000Y-92142000D01*
X179143000Y-102422000D02*
X179143000Y-92142000D01*
X189064000Y-102422000D02*
X189064000Y-92142000D01*
X179143000Y-102422000D02*
X189064000Y-102422000D01*
X179143000Y-92142000D02*
X189064000Y-92142000D01*
X183335000Y-93467000D02*
X183381000Y-93514000D01*
X185643000Y-95776000D02*
X185678000Y-95811000D01*
X183129000Y-93672000D02*
X183165000Y-93707000D01*
X185427000Y-95969000D02*
X185473000Y-96016000D01*
X188564000Y-102662000D02*
X189304000Y-102662000D01*
X189304000Y-102662000D02*
X189304000Y-102162000D01*
%TO.C,J4*%
X189304000Y-116632000D02*
X189304000Y-116132000D01*
X188564000Y-116632000D02*
X189304000Y-116632000D01*
X185427000Y-109939000D02*
X185473000Y-109986000D01*
X183129000Y-107642000D02*
X183165000Y-107677000D01*
X185643000Y-109746000D02*
X185678000Y-109781000D01*
X183335000Y-107437000D02*
X183381000Y-107484000D01*
X179143000Y-106112000D02*
X189064000Y-106112000D01*
X179143000Y-116392000D02*
X189064000Y-116392000D01*
X189064000Y-116392000D02*
X189064000Y-106112000D01*
X179143000Y-116392000D02*
X179143000Y-106112000D01*
X182103000Y-116392000D02*
X182103000Y-106112000D01*
X187004000Y-116392000D02*
X187004000Y-106112000D01*
X188504000Y-116392000D02*
X188504000Y-106112000D01*
X186084000Y-108712000D02*
G75*
G03*
X186084000Y-108712000I-1680000J0D01*
G01*
X185938756Y-113108682D02*
G75*
G02*
X186084000Y-113792000I-1534756J-683318D01*
G01*
X183720958Y-112256574D02*
G75*
G02*
X185088000Y-112257000I683042J-1535426D01*
G01*
X182868574Y-114475042D02*
G75*
G02*
X182869000Y-113108000I1535426J683042D01*
G01*
X185087042Y-115327426D02*
G75*
G02*
X183720000Y-115327000I-683042J1535426D01*
G01*
X186084253Y-113763195D02*
G75*
G02*
X185939000Y-114476000I-1680253J-28805D01*
G01*
%TO.C,J1*%
D10*
X176146380Y-97615333D02*
X176860666Y-97615333D01*
X177003523Y-97662952D01*
X177098761Y-97758190D01*
X177146380Y-97901047D01*
X177146380Y-97996285D01*
X177146380Y-96615333D02*
X177146380Y-97186761D01*
X177146380Y-96901047D02*
X176146380Y-96901047D01*
X176289238Y-96996285D01*
X176384476Y-97091523D01*
X176432095Y-97186761D01*
%TO.C,J2*%
X170100666Y-104444380D02*
X170100666Y-105158666D01*
X170053047Y-105301523D01*
X169957809Y-105396761D01*
X169814952Y-105444380D01*
X169719714Y-105444380D01*
X170529238Y-104539619D02*
X170576857Y-104492000D01*
X170672095Y-104444380D01*
X170910190Y-104444380D01*
X171005428Y-104492000D01*
X171053047Y-104539619D01*
X171100666Y-104634857D01*
X171100666Y-104730095D01*
X171053047Y-104872952D01*
X170481619Y-105444380D01*
X171100666Y-105444380D01*
%TO.C,J3*%
X177596380Y-97615333D02*
X178310666Y-97615333D01*
X178453523Y-97662952D01*
X178548761Y-97758190D01*
X178596380Y-97901047D01*
X178596380Y-97996285D01*
X177596380Y-97234380D02*
X177596380Y-96615333D01*
X177977333Y-96948666D01*
X177977333Y-96805809D01*
X178024952Y-96710571D01*
X178072571Y-96662952D01*
X178167809Y-96615333D01*
X178405904Y-96615333D01*
X178501142Y-96662952D01*
X178548761Y-96710571D01*
X178596380Y-96805809D01*
X178596380Y-97091523D01*
X178548761Y-97186761D01*
X178501142Y-97234380D01*
%TO.C,J4*%
X177810666Y-110704380D02*
X177810666Y-111418666D01*
X177763047Y-111561523D01*
X177667809Y-111656761D01*
X177524952Y-111704380D01*
X177429714Y-111704380D01*
X178715428Y-111037714D02*
X178715428Y-111704380D01*
X178477333Y-110656761D02*
X178239238Y-111371047D01*
X178858285Y-111371047D01*
%TD*%
M02*
