%TF.GenerationSoftware,KiCad,Pcbnew,(5.1.12-1-10_14)*%
%TF.CreationDate,2021-12-04T23:40:54+01:00*%
%TF.ProjectId,contraddictionLamp_220Conn,636f6e74-7261-4646-9469-6374696f6e4c,rev?*%
%TF.SameCoordinates,Original*%
%TF.FileFunction,Legend,Bot*%
%TF.FilePolarity,Positive*%
%FSLAX46Y46*%
G04 Gerber Fmt 4.6, Leading zero omitted, Abs format (unit mm)*
G04 Created by KiCad (PCBNEW (5.1.12-1-10_14)) date 2021-12-04 23:40:54*
%MOMM*%
%LPD*%
G01*
G04 APERTURE LIST*
%ADD10C,0.150000*%
%ADD11C,0.120000*%
%ADD12C,0.010000*%
G04 APERTURE END LIST*
D10*
X155900380Y-100632142D02*
X155948000Y-100679761D01*
X155995619Y-100775000D01*
X155995619Y-101013095D01*
X155948000Y-101108333D01*
X155900380Y-101155952D01*
X155805142Y-101203571D01*
X155709904Y-101203571D01*
X155567047Y-101155952D01*
X154995619Y-100584523D01*
X154995619Y-101203571D01*
X154995619Y-101679761D02*
X154995619Y-101870238D01*
X155043238Y-101965476D01*
X155090857Y-102013095D01*
X155233714Y-102108333D01*
X155424190Y-102155952D01*
X155805142Y-102155952D01*
X155900380Y-102108333D01*
X155948000Y-102060714D01*
X155995619Y-101965476D01*
X155995619Y-101775000D01*
X155948000Y-101679761D01*
X155900380Y-101632142D01*
X155805142Y-101584523D01*
X155567047Y-101584523D01*
X155471809Y-101632142D01*
X155424190Y-101679761D01*
X155376571Y-101775000D01*
X155376571Y-101965476D01*
X155424190Y-102060714D01*
X155471809Y-102108333D01*
X155567047Y-102155952D01*
X155090857Y-102584523D02*
X155043238Y-102632142D01*
X154995619Y-102584523D01*
X155043238Y-102536904D01*
X155090857Y-102584523D01*
X154995619Y-102584523D01*
X155900380Y-103013095D02*
X155948000Y-103060714D01*
X155995619Y-103155952D01*
X155995619Y-103394047D01*
X155948000Y-103489285D01*
X155900380Y-103536904D01*
X155805142Y-103584523D01*
X155709904Y-103584523D01*
X155567047Y-103536904D01*
X154995619Y-102965476D01*
X154995619Y-103584523D01*
X154995619Y-104536904D02*
X154995619Y-103965476D01*
X154995619Y-104251190D02*
X155995619Y-104251190D01*
X155852761Y-104155952D01*
X155757523Y-104060714D01*
X155709904Y-103965476D01*
X155995619Y-105155952D02*
X155995619Y-105251190D01*
X155948000Y-105346428D01*
X155900380Y-105394047D01*
X155805142Y-105441666D01*
X155614666Y-105489285D01*
X155376571Y-105489285D01*
X155186095Y-105441666D01*
X155090857Y-105394047D01*
X155043238Y-105346428D01*
X154995619Y-105251190D01*
X154995619Y-105155952D01*
X155043238Y-105060714D01*
X155090857Y-105013095D01*
X155186095Y-104965476D01*
X155376571Y-104917857D01*
X155614666Y-104917857D01*
X155805142Y-104965476D01*
X155900380Y-105013095D01*
X155948000Y-105060714D01*
X155995619Y-105155952D01*
X154995619Y-106679761D02*
X155662285Y-106679761D01*
X155567047Y-106679761D02*
X155614666Y-106727380D01*
X155662285Y-106822619D01*
X155662285Y-106965476D01*
X155614666Y-107060714D01*
X155519428Y-107108333D01*
X154995619Y-107108333D01*
X155519428Y-107108333D02*
X155614666Y-107155952D01*
X155662285Y-107251190D01*
X155662285Y-107394047D01*
X155614666Y-107489285D01*
X155519428Y-107536904D01*
X154995619Y-107536904D01*
X154995619Y-108013095D02*
X155662285Y-108013095D01*
X155567047Y-108013095D02*
X155614666Y-108060714D01*
X155662285Y-108155952D01*
X155662285Y-108298809D01*
X155614666Y-108394047D01*
X155519428Y-108441666D01*
X154995619Y-108441666D01*
X155519428Y-108441666D02*
X155614666Y-108489285D01*
X155662285Y-108584523D01*
X155662285Y-108727380D01*
X155614666Y-108822619D01*
X155519428Y-108870238D01*
X154995619Y-108870238D01*
D11*
X156718000Y-90170000D02*
X156718000Y-119380000D01*
X162560000Y-90170000D02*
X156131579Y-90170000D01*
X162560000Y-119380000D02*
X156131579Y-119380000D01*
X156718000Y-119380000D02*
X156131579Y-118253496D01*
X156718000Y-119380000D02*
X157304421Y-118253496D01*
X156718000Y-90170000D02*
X156131579Y-91296504D01*
X156718000Y-90170000D02*
X157304421Y-91296504D01*
D10*
X173022142Y-82605619D02*
X173069761Y-82558000D01*
X173165000Y-82510380D01*
X173403095Y-82510380D01*
X173498333Y-82558000D01*
X173545952Y-82605619D01*
X173593571Y-82700857D01*
X173593571Y-82796095D01*
X173545952Y-82938952D01*
X172974523Y-83510380D01*
X173593571Y-83510380D01*
X174069761Y-83510380D02*
X174260238Y-83510380D01*
X174355476Y-83462761D01*
X174403095Y-83415142D01*
X174498333Y-83272285D01*
X174545952Y-83081809D01*
X174545952Y-82700857D01*
X174498333Y-82605619D01*
X174450714Y-82558000D01*
X174355476Y-82510380D01*
X174165000Y-82510380D01*
X174069761Y-82558000D01*
X174022142Y-82605619D01*
X173974523Y-82700857D01*
X173974523Y-82938952D01*
X174022142Y-83034190D01*
X174069761Y-83081809D01*
X174165000Y-83129428D01*
X174355476Y-83129428D01*
X174450714Y-83081809D01*
X174498333Y-83034190D01*
X174545952Y-82938952D01*
X174974523Y-83415142D02*
X175022142Y-83462761D01*
X174974523Y-83510380D01*
X174926904Y-83462761D01*
X174974523Y-83415142D01*
X174974523Y-83510380D01*
X175403095Y-82605619D02*
X175450714Y-82558000D01*
X175545952Y-82510380D01*
X175784047Y-82510380D01*
X175879285Y-82558000D01*
X175926904Y-82605619D01*
X175974523Y-82700857D01*
X175974523Y-82796095D01*
X175926904Y-82938952D01*
X175355476Y-83510380D01*
X175974523Y-83510380D01*
X176926904Y-83510380D02*
X176355476Y-83510380D01*
X176641190Y-83510380D02*
X176641190Y-82510380D01*
X176545952Y-82653238D01*
X176450714Y-82748476D01*
X176355476Y-82796095D01*
X177545952Y-82510380D02*
X177641190Y-82510380D01*
X177736428Y-82558000D01*
X177784047Y-82605619D01*
X177831666Y-82700857D01*
X177879285Y-82891333D01*
X177879285Y-83129428D01*
X177831666Y-83319904D01*
X177784047Y-83415142D01*
X177736428Y-83462761D01*
X177641190Y-83510380D01*
X177545952Y-83510380D01*
X177450714Y-83462761D01*
X177403095Y-83415142D01*
X177355476Y-83319904D01*
X177307857Y-83129428D01*
X177307857Y-82891333D01*
X177355476Y-82700857D01*
X177403095Y-82605619D01*
X177450714Y-82558000D01*
X177545952Y-82510380D01*
X179069761Y-83510380D02*
X179069761Y-82843714D01*
X179069761Y-82938952D02*
X179117380Y-82891333D01*
X179212619Y-82843714D01*
X179355476Y-82843714D01*
X179450714Y-82891333D01*
X179498333Y-82986571D01*
X179498333Y-83510380D01*
X179498333Y-82986571D02*
X179545952Y-82891333D01*
X179641190Y-82843714D01*
X179784047Y-82843714D01*
X179879285Y-82891333D01*
X179926904Y-82986571D01*
X179926904Y-83510380D01*
X180403095Y-83510380D02*
X180403095Y-82843714D01*
X180403095Y-82938952D02*
X180450714Y-82891333D01*
X180545952Y-82843714D01*
X180688809Y-82843714D01*
X180784047Y-82891333D01*
X180831666Y-82986571D01*
X180831666Y-83510380D01*
X180831666Y-82986571D02*
X180879285Y-82891333D01*
X180974523Y-82843714D01*
X181117380Y-82843714D01*
X181212619Y-82891333D01*
X181260238Y-82986571D01*
X181260238Y-83510380D01*
D11*
X191770000Y-84328000D02*
X162560000Y-84328000D01*
X191770000Y-90170000D02*
X191770000Y-83741579D01*
X162560000Y-90170000D02*
X162560000Y-83741579D01*
X162560000Y-84328000D02*
X163686504Y-83741579D01*
X162560000Y-84328000D02*
X163686504Y-84914421D01*
X191770000Y-84328000D02*
X190643496Y-83741579D01*
X191770000Y-84328000D02*
X190643496Y-84914421D01*
D10*
X181707833Y-92938000D02*
X181741166Y-92971333D01*
X181841166Y-93004666D01*
X181907833Y-93004666D01*
X182007833Y-92971333D01*
X182074500Y-92904666D01*
X182107833Y-92838000D01*
X182141166Y-92704666D01*
X182141166Y-92604666D01*
X182107833Y-92471333D01*
X182074500Y-92404666D01*
X182007833Y-92338000D01*
X181907833Y-92304666D01*
X181841166Y-92304666D01*
X181741166Y-92338000D01*
X181707833Y-92371333D01*
X181307833Y-93004666D02*
X181374500Y-92971333D01*
X181407833Y-92938000D01*
X181441166Y-92871333D01*
X181441166Y-92671333D01*
X181407833Y-92604666D01*
X181374500Y-92571333D01*
X181307833Y-92538000D01*
X181207833Y-92538000D01*
X181141166Y-92571333D01*
X181107833Y-92604666D01*
X181074500Y-92671333D01*
X181074500Y-92871333D01*
X181107833Y-92938000D01*
X181141166Y-92971333D01*
X181207833Y-93004666D01*
X181307833Y-93004666D01*
X180774500Y-92538000D02*
X180774500Y-93004666D01*
X180774500Y-92604666D02*
X180741166Y-92571333D01*
X180674500Y-92538000D01*
X180574500Y-92538000D01*
X180507833Y-92571333D01*
X180474500Y-92638000D01*
X180474500Y-93004666D01*
X180241166Y-92538000D02*
X179974500Y-92538000D01*
X180141166Y-92304666D02*
X180141166Y-92904666D01*
X180107833Y-92971333D01*
X180041166Y-93004666D01*
X179974500Y-93004666D01*
X179741166Y-93004666D02*
X179741166Y-92538000D01*
X179741166Y-92671333D02*
X179707833Y-92604666D01*
X179674500Y-92571333D01*
X179607833Y-92538000D01*
X179541166Y-92538000D01*
X179007833Y-93004666D02*
X179007833Y-92638000D01*
X179041166Y-92571333D01*
X179107833Y-92538000D01*
X179241166Y-92538000D01*
X179307833Y-92571333D01*
X179007833Y-92971333D02*
X179074500Y-93004666D01*
X179241166Y-93004666D01*
X179307833Y-92971333D01*
X179341166Y-92904666D01*
X179341166Y-92838000D01*
X179307833Y-92771333D01*
X179241166Y-92738000D01*
X179074500Y-92738000D01*
X179007833Y-92704666D01*
X178374500Y-93004666D02*
X178374500Y-92304666D01*
X178374500Y-92971333D02*
X178441166Y-93004666D01*
X178574500Y-93004666D01*
X178641166Y-92971333D01*
X178674500Y-92938000D01*
X178707833Y-92871333D01*
X178707833Y-92671333D01*
X178674500Y-92604666D01*
X178641166Y-92571333D01*
X178574500Y-92538000D01*
X178441166Y-92538000D01*
X178374500Y-92571333D01*
X177741166Y-93004666D02*
X177741166Y-92304666D01*
X177741166Y-92971333D02*
X177807833Y-93004666D01*
X177941166Y-93004666D01*
X178007833Y-92971333D01*
X178041166Y-92938000D01*
X178074500Y-92871333D01*
X178074500Y-92671333D01*
X178041166Y-92604666D01*
X178007833Y-92571333D01*
X177941166Y-92538000D01*
X177807833Y-92538000D01*
X177741166Y-92571333D01*
X177407833Y-93004666D02*
X177407833Y-92538000D01*
X177407833Y-92304666D02*
X177441166Y-92338000D01*
X177407833Y-92371333D01*
X177374500Y-92338000D01*
X177407833Y-92304666D01*
X177407833Y-92371333D01*
X176774500Y-92971333D02*
X176841166Y-93004666D01*
X176974500Y-93004666D01*
X177041166Y-92971333D01*
X177074500Y-92938000D01*
X177107833Y-92871333D01*
X177107833Y-92671333D01*
X177074500Y-92604666D01*
X177041166Y-92571333D01*
X176974500Y-92538000D01*
X176841166Y-92538000D01*
X176774500Y-92571333D01*
X176574500Y-92538000D02*
X176307833Y-92538000D01*
X176474500Y-92304666D02*
X176474500Y-92904666D01*
X176441166Y-92971333D01*
X176374500Y-93004666D01*
X176307833Y-93004666D01*
X176074500Y-93004666D02*
X176074500Y-92538000D01*
X176074500Y-92304666D02*
X176107833Y-92338000D01*
X176074500Y-92371333D01*
X176041166Y-92338000D01*
X176074500Y-92304666D01*
X176074500Y-92371333D01*
X175641166Y-93004666D02*
X175707833Y-92971333D01*
X175741166Y-92938000D01*
X175774500Y-92871333D01*
X175774500Y-92671333D01*
X175741166Y-92604666D01*
X175707833Y-92571333D01*
X175641166Y-92538000D01*
X175541166Y-92538000D01*
X175474500Y-92571333D01*
X175441166Y-92604666D01*
X175407833Y-92671333D01*
X175407833Y-92871333D01*
X175441166Y-92938000D01*
X175474500Y-92971333D01*
X175541166Y-93004666D01*
X175641166Y-93004666D01*
X175107833Y-92538000D02*
X175107833Y-93004666D01*
X175107833Y-92604666D02*
X175074500Y-92571333D01*
X175007833Y-92538000D01*
X174907833Y-92538000D01*
X174841166Y-92571333D01*
X174807833Y-92638000D01*
X174807833Y-93004666D01*
X173607833Y-93004666D02*
X173941166Y-93004666D01*
X173941166Y-92304666D01*
X173074500Y-93004666D02*
X173074500Y-92638000D01*
X173107833Y-92571333D01*
X173174500Y-92538000D01*
X173307833Y-92538000D01*
X173374500Y-92571333D01*
X173074500Y-92971333D02*
X173141166Y-93004666D01*
X173307833Y-93004666D01*
X173374500Y-92971333D01*
X173407833Y-92904666D01*
X173407833Y-92838000D01*
X173374500Y-92771333D01*
X173307833Y-92738000D01*
X173141166Y-92738000D01*
X173074500Y-92704666D01*
X172741166Y-93004666D02*
X172741166Y-92538000D01*
X172741166Y-92604666D02*
X172707833Y-92571333D01*
X172641166Y-92538000D01*
X172541166Y-92538000D01*
X172474500Y-92571333D01*
X172441166Y-92638000D01*
X172441166Y-93004666D01*
X172441166Y-92638000D02*
X172407833Y-92571333D01*
X172341166Y-92538000D01*
X172241166Y-92538000D01*
X172174500Y-92571333D01*
X172141166Y-92638000D01*
X172141166Y-93004666D01*
X171807833Y-92538000D02*
X171807833Y-93238000D01*
X171807833Y-92571333D02*
X171741166Y-92538000D01*
X171607833Y-92538000D01*
X171541166Y-92571333D01*
X171507833Y-92604666D01*
X171474500Y-92671333D01*
X171474500Y-92871333D01*
X171507833Y-92938000D01*
X171541166Y-92971333D01*
X171607833Y-93004666D01*
X171741166Y-93004666D01*
X171807833Y-92971333D01*
X182141166Y-93571333D02*
X182107833Y-93538000D01*
X182041166Y-93504666D01*
X181874500Y-93504666D01*
X181807833Y-93538000D01*
X181774500Y-93571333D01*
X181741166Y-93638000D01*
X181741166Y-93704666D01*
X181774500Y-93804666D01*
X182174500Y-94204666D01*
X181741166Y-94204666D01*
X181474500Y-93571333D02*
X181441166Y-93538000D01*
X181374500Y-93504666D01*
X181207833Y-93504666D01*
X181141166Y-93538000D01*
X181107833Y-93571333D01*
X181074500Y-93638000D01*
X181074500Y-93704666D01*
X181107833Y-93804666D01*
X181507833Y-94204666D01*
X181074500Y-94204666D01*
X180641166Y-93504666D02*
X180574500Y-93504666D01*
X180507833Y-93538000D01*
X180474500Y-93571333D01*
X180441166Y-93638000D01*
X180407833Y-93771333D01*
X180407833Y-93938000D01*
X180441166Y-94071333D01*
X180474500Y-94138000D01*
X180507833Y-94171333D01*
X180574500Y-94204666D01*
X180641166Y-94204666D01*
X180707833Y-94171333D01*
X180741166Y-94138000D01*
X180774500Y-94071333D01*
X180807833Y-93938000D01*
X180807833Y-93771333D01*
X180774500Y-93638000D01*
X180741166Y-93571333D01*
X180707833Y-93538000D01*
X180641166Y-93504666D01*
X180207833Y-93504666D02*
X179974500Y-94204666D01*
X179741166Y-93504666D01*
X178574500Y-94138000D02*
X178607833Y-94171333D01*
X178707833Y-94204666D01*
X178774500Y-94204666D01*
X178874500Y-94171333D01*
X178941166Y-94104666D01*
X178974500Y-94038000D01*
X179007833Y-93904666D01*
X179007833Y-93804666D01*
X178974500Y-93671333D01*
X178941166Y-93604666D01*
X178874500Y-93538000D01*
X178774500Y-93504666D01*
X178707833Y-93504666D01*
X178607833Y-93538000D01*
X178574500Y-93571333D01*
X178174500Y-94204666D02*
X178241166Y-94171333D01*
X178274500Y-94138000D01*
X178307833Y-94071333D01*
X178307833Y-93871333D01*
X178274500Y-93804666D01*
X178241166Y-93771333D01*
X178174500Y-93738000D01*
X178074500Y-93738000D01*
X178007833Y-93771333D01*
X177974500Y-93804666D01*
X177941166Y-93871333D01*
X177941166Y-94071333D01*
X177974500Y-94138000D01*
X178007833Y-94171333D01*
X178074500Y-94204666D01*
X178174500Y-94204666D01*
X177641166Y-93738000D02*
X177641166Y-94204666D01*
X177641166Y-93804666D02*
X177607833Y-93771333D01*
X177541166Y-93738000D01*
X177441166Y-93738000D01*
X177374500Y-93771333D01*
X177341166Y-93838000D01*
X177341166Y-94204666D01*
X177007833Y-93738000D02*
X177007833Y-94204666D01*
X177007833Y-93804666D02*
X176974500Y-93771333D01*
X176907833Y-93738000D01*
X176807833Y-93738000D01*
X176741166Y-93771333D01*
X176707833Y-93838000D01*
X176707833Y-94204666D01*
X176107833Y-94171333D02*
X176174500Y-94204666D01*
X176307833Y-94204666D01*
X176374500Y-94171333D01*
X176407833Y-94104666D01*
X176407833Y-93838000D01*
X176374500Y-93771333D01*
X176307833Y-93738000D01*
X176174500Y-93738000D01*
X176107833Y-93771333D01*
X176074500Y-93838000D01*
X176074500Y-93904666D01*
X176407833Y-93971333D01*
X175474500Y-94171333D02*
X175541166Y-94204666D01*
X175674500Y-94204666D01*
X175741166Y-94171333D01*
X175774500Y-94138000D01*
X175807833Y-94071333D01*
X175807833Y-93871333D01*
X175774500Y-93804666D01*
X175741166Y-93771333D01*
X175674500Y-93738000D01*
X175541166Y-93738000D01*
X175474500Y-93771333D01*
X175274500Y-93738000D02*
X175007833Y-93738000D01*
X175174500Y-93504666D02*
X175174500Y-94104666D01*
X175141166Y-94171333D01*
X175074500Y-94204666D01*
X175007833Y-94204666D01*
X174774500Y-94204666D02*
X174774500Y-93738000D01*
X174774500Y-93504666D02*
X174807833Y-93538000D01*
X174774500Y-93571333D01*
X174741166Y-93538000D01*
X174774500Y-93504666D01*
X174774500Y-93571333D01*
X174341166Y-94204666D02*
X174407833Y-94171333D01*
X174441166Y-94138000D01*
X174474500Y-94071333D01*
X174474500Y-93871333D01*
X174441166Y-93804666D01*
X174407833Y-93771333D01*
X174341166Y-93738000D01*
X174241166Y-93738000D01*
X174174500Y-93771333D01*
X174141166Y-93804666D01*
X174107833Y-93871333D01*
X174107833Y-94071333D01*
X174141166Y-94138000D01*
X174174500Y-94171333D01*
X174241166Y-94204666D01*
X174341166Y-94204666D01*
X173807833Y-93738000D02*
X173807833Y-94204666D01*
X173807833Y-93804666D02*
X173774500Y-93771333D01*
X173707833Y-93738000D01*
X173607833Y-93738000D01*
X173541166Y-93771333D01*
X173507833Y-93838000D01*
X173507833Y-94204666D01*
X173207833Y-94171333D02*
X173141166Y-94204666D01*
X173007833Y-94204666D01*
X172941166Y-94171333D01*
X172907833Y-94104666D01*
X172907833Y-94071333D01*
X172941166Y-94004666D01*
X173007833Y-93971333D01*
X173107833Y-93971333D01*
X173174500Y-93938000D01*
X173207833Y-93871333D01*
X173207833Y-93838000D01*
X173174500Y-93771333D01*
X173107833Y-93738000D01*
X173007833Y-93738000D01*
X172941166Y-93771333D01*
X182107833Y-95404666D02*
X182107833Y-94704666D01*
X181941166Y-94704666D01*
X181841166Y-94738000D01*
X181774500Y-94804666D01*
X181741166Y-94871333D01*
X181707833Y-95004666D01*
X181707833Y-95104666D01*
X181741166Y-95238000D01*
X181774500Y-95304666D01*
X181841166Y-95371333D01*
X181941166Y-95404666D01*
X182107833Y-95404666D01*
X181141166Y-95371333D02*
X181207833Y-95404666D01*
X181341166Y-95404666D01*
X181407833Y-95371333D01*
X181441166Y-95304666D01*
X181441166Y-95038000D01*
X181407833Y-94971333D01*
X181341166Y-94938000D01*
X181207833Y-94938000D01*
X181141166Y-94971333D01*
X181107833Y-95038000D01*
X181107833Y-95104666D01*
X181441166Y-95171333D01*
X180507833Y-95371333D02*
X180574500Y-95404666D01*
X180707833Y-95404666D01*
X180774500Y-95371333D01*
X180807833Y-95338000D01*
X180841166Y-95271333D01*
X180841166Y-95071333D01*
X180807833Y-95004666D01*
X180774500Y-94971333D01*
X180707833Y-94938000D01*
X180574500Y-94938000D01*
X180507833Y-94971333D01*
X179707833Y-94771333D02*
X179674500Y-94738000D01*
X179607833Y-94704666D01*
X179441166Y-94704666D01*
X179374500Y-94738000D01*
X179341166Y-94771333D01*
X179307833Y-94838000D01*
X179307833Y-94904666D01*
X179341166Y-95004666D01*
X179741166Y-95404666D01*
X179307833Y-95404666D01*
X178874500Y-94704666D02*
X178807833Y-94704666D01*
X178741166Y-94738000D01*
X178707833Y-94771333D01*
X178674500Y-94838000D01*
X178641166Y-94971333D01*
X178641166Y-95138000D01*
X178674500Y-95271333D01*
X178707833Y-95338000D01*
X178741166Y-95371333D01*
X178807833Y-95404666D01*
X178874500Y-95404666D01*
X178941166Y-95371333D01*
X178974500Y-95338000D01*
X179007833Y-95271333D01*
X179041166Y-95138000D01*
X179041166Y-94971333D01*
X179007833Y-94838000D01*
X178974500Y-94771333D01*
X178941166Y-94738000D01*
X178874500Y-94704666D01*
X178374500Y-94771333D02*
X178341166Y-94738000D01*
X178274500Y-94704666D01*
X178107833Y-94704666D01*
X178041166Y-94738000D01*
X178007833Y-94771333D01*
X177974500Y-94838000D01*
X177974500Y-94904666D01*
X178007833Y-95004666D01*
X178407833Y-95404666D01*
X177974500Y-95404666D01*
X177307833Y-95404666D02*
X177707833Y-95404666D01*
X177507833Y-95404666D02*
X177507833Y-94704666D01*
X177574500Y-94804666D01*
X177641166Y-94871333D01*
X177707833Y-94904666D01*
X182107833Y-96604666D02*
X182107833Y-95904666D01*
X181841166Y-95904666D01*
X181774500Y-95938000D01*
X181741166Y-95971333D01*
X181707833Y-96038000D01*
X181707833Y-96138000D01*
X181741166Y-96204666D01*
X181774500Y-96238000D01*
X181841166Y-96271333D01*
X182107833Y-96271333D01*
X181407833Y-96604666D02*
X181407833Y-96138000D01*
X181407833Y-95904666D02*
X181441166Y-95938000D01*
X181407833Y-95971333D01*
X181374500Y-95938000D01*
X181407833Y-95904666D01*
X181407833Y-95971333D01*
X180807833Y-96571333D02*
X180874500Y-96604666D01*
X181007833Y-96604666D01*
X181074500Y-96571333D01*
X181107833Y-96504666D01*
X181107833Y-96238000D01*
X181074500Y-96171333D01*
X181007833Y-96138000D01*
X180874500Y-96138000D01*
X180807833Y-96171333D01*
X180774500Y-96238000D01*
X180774500Y-96304666D01*
X181107833Y-96371333D01*
X180474500Y-96604666D02*
X180474500Y-96138000D01*
X180474500Y-96271333D02*
X180441166Y-96204666D01*
X180407833Y-96171333D01*
X180341166Y-96138000D01*
X180274500Y-96138000D01*
X179941166Y-96604666D02*
X180007833Y-96571333D01*
X180041166Y-96504666D01*
X180041166Y-95904666D01*
X179374500Y-96138000D02*
X179374500Y-96604666D01*
X179674500Y-96138000D02*
X179674500Y-96504666D01*
X179641166Y-96571333D01*
X179574500Y-96604666D01*
X179474500Y-96604666D01*
X179407833Y-96571333D01*
X179374500Y-96538000D01*
X179041166Y-96604666D02*
X179041166Y-96138000D01*
X179041166Y-95904666D02*
X179074500Y-95938000D01*
X179041166Y-95971333D01*
X179007833Y-95938000D01*
X179041166Y-95904666D01*
X179041166Y-95971333D01*
X178407833Y-96138000D02*
X178407833Y-96704666D01*
X178441166Y-96771333D01*
X178474500Y-96804666D01*
X178541166Y-96838000D01*
X178641166Y-96838000D01*
X178707833Y-96804666D01*
X178407833Y-96571333D02*
X178474500Y-96604666D01*
X178607833Y-96604666D01*
X178674500Y-96571333D01*
X178707833Y-96538000D01*
X178741166Y-96471333D01*
X178741166Y-96271333D01*
X178707833Y-96204666D01*
X178674500Y-96171333D01*
X178607833Y-96138000D01*
X178474500Y-96138000D01*
X178407833Y-96171333D01*
X178074500Y-96604666D02*
X178074500Y-96138000D01*
X178074500Y-95904666D02*
X178107833Y-95938000D01*
X178074500Y-95971333D01*
X178041166Y-95938000D01*
X178074500Y-95904666D01*
X178074500Y-95971333D01*
X177207833Y-96604666D02*
X177207833Y-95904666D01*
X176941166Y-95904666D01*
X176874500Y-95938000D01*
X176841166Y-95971333D01*
X176807833Y-96038000D01*
X176807833Y-96138000D01*
X176841166Y-96204666D01*
X176874500Y-96238000D01*
X176941166Y-96271333D01*
X177207833Y-96271333D01*
X176241166Y-96571333D02*
X176307833Y-96604666D01*
X176441166Y-96604666D01*
X176507833Y-96571333D01*
X176541166Y-96504666D01*
X176541166Y-96238000D01*
X176507833Y-96171333D01*
X176441166Y-96138000D01*
X176307833Y-96138000D01*
X176241166Y-96171333D01*
X176207833Y-96238000D01*
X176207833Y-96304666D01*
X176541166Y-96371333D01*
X176007833Y-96138000D02*
X175741166Y-96138000D01*
X175907833Y-95904666D02*
X175907833Y-96504666D01*
X175874500Y-96571333D01*
X175807833Y-96604666D01*
X175741166Y-96604666D01*
X175507833Y-96604666D02*
X175507833Y-96138000D01*
X175507833Y-96271333D02*
X175474500Y-96204666D01*
X175441166Y-96171333D01*
X175374500Y-96138000D01*
X175307833Y-96138000D01*
X174807833Y-96571333D02*
X174874500Y-96604666D01*
X175007833Y-96604666D01*
X175074500Y-96571333D01*
X175107833Y-96504666D01*
X175107833Y-96238000D01*
X175074500Y-96171333D01*
X175007833Y-96138000D01*
X174874500Y-96138000D01*
X174807833Y-96171333D01*
X174774500Y-96238000D01*
X174774500Y-96304666D01*
X175107833Y-96371333D01*
X174374500Y-96604666D02*
X174441166Y-96571333D01*
X174474500Y-96504666D01*
X174474500Y-95904666D01*
X174007833Y-96604666D02*
X174074500Y-96571333D01*
X174107833Y-96504666D01*
X174107833Y-95904666D01*
X173741166Y-96604666D02*
X173741166Y-96138000D01*
X173741166Y-95904666D02*
X173774500Y-95938000D01*
X173741166Y-95971333D01*
X173707833Y-95938000D01*
X173741166Y-95904666D01*
X173741166Y-95971333D01*
D12*
%TO.C,REF\u002A\u002A*%
G36*
X180454256Y-113171918D02*
G01*
X180398799Y-113199568D01*
X180349852Y-113250480D01*
X180336371Y-113269338D01*
X180321686Y-113294015D01*
X180312158Y-113320816D01*
X180306707Y-113356587D01*
X180304253Y-113408169D01*
X180303714Y-113476267D01*
X180306148Y-113569588D01*
X180314606Y-113639657D01*
X180330826Y-113691931D01*
X180356546Y-113731869D01*
X180393503Y-113764929D01*
X180396218Y-113766886D01*
X180432640Y-113786908D01*
X180476498Y-113796815D01*
X180532276Y-113799257D01*
X180622952Y-113799257D01*
X180622990Y-113887283D01*
X180623834Y-113936308D01*
X180628976Y-113965065D01*
X180642413Y-113982311D01*
X180668142Y-113996808D01*
X180674321Y-113999769D01*
X180703236Y-114013648D01*
X180725624Y-114022414D01*
X180742271Y-114023171D01*
X180753964Y-114013023D01*
X180761490Y-113989073D01*
X180765634Y-113948426D01*
X180767185Y-113888186D01*
X180766929Y-113805455D01*
X180765651Y-113697339D01*
X180765252Y-113665000D01*
X180763815Y-113553524D01*
X180762528Y-113480603D01*
X180623029Y-113480603D01*
X180622245Y-113542499D01*
X180618760Y-113582997D01*
X180610876Y-113609708D01*
X180596895Y-113630244D01*
X180587403Y-113640260D01*
X180548596Y-113669567D01*
X180514237Y-113671952D01*
X180478784Y-113647750D01*
X180477886Y-113646857D01*
X180463461Y-113628153D01*
X180454687Y-113602732D01*
X180450261Y-113563584D01*
X180448882Y-113503697D01*
X180448857Y-113490430D01*
X180452188Y-113407901D01*
X180463031Y-113350691D01*
X180482660Y-113315766D01*
X180512350Y-113300094D01*
X180529509Y-113298514D01*
X180570234Y-113305926D01*
X180598168Y-113330330D01*
X180614983Y-113374980D01*
X180622350Y-113443130D01*
X180623029Y-113480603D01*
X180762528Y-113480603D01*
X180762292Y-113467245D01*
X180760323Y-113402333D01*
X180757550Y-113354958D01*
X180753612Y-113321290D01*
X180748151Y-113297498D01*
X180740808Y-113279753D01*
X180731223Y-113264224D01*
X180727113Y-113258381D01*
X180672595Y-113203185D01*
X180603664Y-113171890D01*
X180523928Y-113163165D01*
X180454256Y-113171918D01*
G37*
X180454256Y-113171918D02*
X180398799Y-113199568D01*
X180349852Y-113250480D01*
X180336371Y-113269338D01*
X180321686Y-113294015D01*
X180312158Y-113320816D01*
X180306707Y-113356587D01*
X180304253Y-113408169D01*
X180303714Y-113476267D01*
X180306148Y-113569588D01*
X180314606Y-113639657D01*
X180330826Y-113691931D01*
X180356546Y-113731869D01*
X180393503Y-113764929D01*
X180396218Y-113766886D01*
X180432640Y-113786908D01*
X180476498Y-113796815D01*
X180532276Y-113799257D01*
X180622952Y-113799257D01*
X180622990Y-113887283D01*
X180623834Y-113936308D01*
X180628976Y-113965065D01*
X180642413Y-113982311D01*
X180668142Y-113996808D01*
X180674321Y-113999769D01*
X180703236Y-114013648D01*
X180725624Y-114022414D01*
X180742271Y-114023171D01*
X180753964Y-114013023D01*
X180761490Y-113989073D01*
X180765634Y-113948426D01*
X180767185Y-113888186D01*
X180766929Y-113805455D01*
X180765651Y-113697339D01*
X180765252Y-113665000D01*
X180763815Y-113553524D01*
X180762528Y-113480603D01*
X180623029Y-113480603D01*
X180622245Y-113542499D01*
X180618760Y-113582997D01*
X180610876Y-113609708D01*
X180596895Y-113630244D01*
X180587403Y-113640260D01*
X180548596Y-113669567D01*
X180514237Y-113671952D01*
X180478784Y-113647750D01*
X180477886Y-113646857D01*
X180463461Y-113628153D01*
X180454687Y-113602732D01*
X180450261Y-113563584D01*
X180448882Y-113503697D01*
X180448857Y-113490430D01*
X180452188Y-113407901D01*
X180463031Y-113350691D01*
X180482660Y-113315766D01*
X180512350Y-113300094D01*
X180529509Y-113298514D01*
X180570234Y-113305926D01*
X180598168Y-113330330D01*
X180614983Y-113374980D01*
X180622350Y-113443130D01*
X180623029Y-113480603D01*
X180762528Y-113480603D01*
X180762292Y-113467245D01*
X180760323Y-113402333D01*
X180757550Y-113354958D01*
X180753612Y-113321290D01*
X180748151Y-113297498D01*
X180740808Y-113279753D01*
X180731223Y-113264224D01*
X180727113Y-113258381D01*
X180672595Y-113203185D01*
X180603664Y-113171890D01*
X180523928Y-113163165D01*
X180454256Y-113171918D01*
G36*
X179337907Y-113179780D02*
G01*
X179291328Y-113206723D01*
X179258943Y-113233466D01*
X179235258Y-113261484D01*
X179218941Y-113295748D01*
X179208661Y-113341227D01*
X179203086Y-113402892D01*
X179200884Y-113485711D01*
X179200629Y-113545246D01*
X179200629Y-113764391D01*
X179262314Y-113792044D01*
X179324000Y-113819697D01*
X179331257Y-113579670D01*
X179334256Y-113490028D01*
X179337402Y-113424962D01*
X179341299Y-113380026D01*
X179346553Y-113350770D01*
X179353769Y-113332748D01*
X179363550Y-113321511D01*
X179366688Y-113319079D01*
X179414239Y-113300083D01*
X179462303Y-113307600D01*
X179490914Y-113327543D01*
X179502553Y-113341675D01*
X179510609Y-113360220D01*
X179515729Y-113388334D01*
X179518559Y-113431173D01*
X179519744Y-113493895D01*
X179519943Y-113559261D01*
X179519982Y-113641268D01*
X179521386Y-113699316D01*
X179526086Y-113738465D01*
X179536013Y-113763780D01*
X179553097Y-113780323D01*
X179579268Y-113793156D01*
X179614225Y-113806491D01*
X179652404Y-113821007D01*
X179647859Y-113563389D01*
X179646029Y-113470519D01*
X179643888Y-113401889D01*
X179640819Y-113352711D01*
X179636206Y-113318198D01*
X179629432Y-113293562D01*
X179619881Y-113274016D01*
X179608366Y-113256770D01*
X179552810Y-113201680D01*
X179485020Y-113169822D01*
X179411287Y-113162191D01*
X179337907Y-113179780D01*
G37*
X179337907Y-113179780D02*
X179291328Y-113206723D01*
X179258943Y-113233466D01*
X179235258Y-113261484D01*
X179218941Y-113295748D01*
X179208661Y-113341227D01*
X179203086Y-113402892D01*
X179200884Y-113485711D01*
X179200629Y-113545246D01*
X179200629Y-113764391D01*
X179262314Y-113792044D01*
X179324000Y-113819697D01*
X179331257Y-113579670D01*
X179334256Y-113490028D01*
X179337402Y-113424962D01*
X179341299Y-113380026D01*
X179346553Y-113350770D01*
X179353769Y-113332748D01*
X179363550Y-113321511D01*
X179366688Y-113319079D01*
X179414239Y-113300083D01*
X179462303Y-113307600D01*
X179490914Y-113327543D01*
X179502553Y-113341675D01*
X179510609Y-113360220D01*
X179515729Y-113388334D01*
X179518559Y-113431173D01*
X179519744Y-113493895D01*
X179519943Y-113559261D01*
X179519982Y-113641268D01*
X179521386Y-113699316D01*
X179526086Y-113738465D01*
X179536013Y-113763780D01*
X179553097Y-113780323D01*
X179579268Y-113793156D01*
X179614225Y-113806491D01*
X179652404Y-113821007D01*
X179647859Y-113563389D01*
X179646029Y-113470519D01*
X179643888Y-113401889D01*
X179640819Y-113352711D01*
X179636206Y-113318198D01*
X179629432Y-113293562D01*
X179619881Y-113274016D01*
X179608366Y-113256770D01*
X179552810Y-113201680D01*
X179485020Y-113169822D01*
X179411287Y-113162191D01*
X179337907Y-113179780D01*
G36*
X181012885Y-113173962D02*
G01*
X180944855Y-113209733D01*
X180894649Y-113267301D01*
X180876815Y-113304312D01*
X180862937Y-113359882D01*
X180855833Y-113430096D01*
X180855160Y-113506727D01*
X180860573Y-113581552D01*
X180871730Y-113646342D01*
X180888286Y-113692873D01*
X180893374Y-113700887D01*
X180953645Y-113760707D01*
X181025231Y-113796535D01*
X181102908Y-113807020D01*
X181181452Y-113790810D01*
X181203311Y-113781092D01*
X181245878Y-113751143D01*
X181283237Y-113711433D01*
X181286768Y-113706397D01*
X181301119Y-113682124D01*
X181310606Y-113656178D01*
X181316210Y-113622022D01*
X181318914Y-113573119D01*
X181319701Y-113502935D01*
X181319714Y-113487200D01*
X181319678Y-113482192D01*
X181174571Y-113482192D01*
X181173727Y-113548430D01*
X181170404Y-113592386D01*
X181163417Y-113620779D01*
X181151584Y-113640325D01*
X181145543Y-113646857D01*
X181110814Y-113671680D01*
X181077097Y-113670548D01*
X181043005Y-113649016D01*
X181022671Y-113626029D01*
X181010629Y-113592478D01*
X181003866Y-113539569D01*
X181003402Y-113533399D01*
X181002248Y-113437513D01*
X181014312Y-113366299D01*
X181039430Y-113320194D01*
X181077440Y-113299635D01*
X181091008Y-113298514D01*
X181126636Y-113304152D01*
X181151006Y-113323686D01*
X181165907Y-113361042D01*
X181173125Y-113420150D01*
X181174571Y-113482192D01*
X181319678Y-113482192D01*
X181319174Y-113412413D01*
X181316904Y-113360159D01*
X181311932Y-113323949D01*
X181303287Y-113297299D01*
X181289995Y-113273722D01*
X181287057Y-113269338D01*
X181237687Y-113210249D01*
X181183891Y-113175947D01*
X181118398Y-113162331D01*
X181096158Y-113161665D01*
X181012885Y-113173962D01*
G37*
X181012885Y-113173962D02*
X180944855Y-113209733D01*
X180894649Y-113267301D01*
X180876815Y-113304312D01*
X180862937Y-113359882D01*
X180855833Y-113430096D01*
X180855160Y-113506727D01*
X180860573Y-113581552D01*
X180871730Y-113646342D01*
X180888286Y-113692873D01*
X180893374Y-113700887D01*
X180953645Y-113760707D01*
X181025231Y-113796535D01*
X181102908Y-113807020D01*
X181181452Y-113790810D01*
X181203311Y-113781092D01*
X181245878Y-113751143D01*
X181283237Y-113711433D01*
X181286768Y-113706397D01*
X181301119Y-113682124D01*
X181310606Y-113656178D01*
X181316210Y-113622022D01*
X181318914Y-113573119D01*
X181319701Y-113502935D01*
X181319714Y-113487200D01*
X181319678Y-113482192D01*
X181174571Y-113482192D01*
X181173727Y-113548430D01*
X181170404Y-113592386D01*
X181163417Y-113620779D01*
X181151584Y-113640325D01*
X181145543Y-113646857D01*
X181110814Y-113671680D01*
X181077097Y-113670548D01*
X181043005Y-113649016D01*
X181022671Y-113626029D01*
X181010629Y-113592478D01*
X181003866Y-113539569D01*
X181003402Y-113533399D01*
X181002248Y-113437513D01*
X181014312Y-113366299D01*
X181039430Y-113320194D01*
X181077440Y-113299635D01*
X181091008Y-113298514D01*
X181126636Y-113304152D01*
X181151006Y-113323686D01*
X181165907Y-113361042D01*
X181173125Y-113420150D01*
X181174571Y-113482192D01*
X181319678Y-113482192D01*
X181319174Y-113412413D01*
X181316904Y-113360159D01*
X181311932Y-113323949D01*
X181303287Y-113297299D01*
X181289995Y-113273722D01*
X181287057Y-113269338D01*
X181237687Y-113210249D01*
X181183891Y-113175947D01*
X181118398Y-113162331D01*
X181096158Y-113161665D01*
X181012885Y-113173962D01*
G36*
X179885697Y-113183239D02*
G01*
X179828473Y-113221735D01*
X179784251Y-113277335D01*
X179757833Y-113348086D01*
X179752490Y-113400162D01*
X179753097Y-113421893D01*
X179758178Y-113438531D01*
X179772145Y-113453437D01*
X179799411Y-113469973D01*
X179844388Y-113491498D01*
X179911489Y-113521374D01*
X179911829Y-113521524D01*
X179973593Y-113549813D01*
X180024241Y-113574933D01*
X180058596Y-113594179D01*
X180071482Y-113604848D01*
X180071486Y-113604934D01*
X180060128Y-113628166D01*
X180033569Y-113653774D01*
X180003077Y-113672221D01*
X179987630Y-113675886D01*
X179945485Y-113663212D01*
X179909192Y-113631471D01*
X179891483Y-113596572D01*
X179874448Y-113570845D01*
X179841078Y-113541546D01*
X179801851Y-113516235D01*
X179767244Y-113502471D01*
X179760007Y-113501714D01*
X179751861Y-113514160D01*
X179751370Y-113545972D01*
X179757357Y-113588866D01*
X179768643Y-113634558D01*
X179784050Y-113674761D01*
X179784829Y-113676322D01*
X179831196Y-113741062D01*
X179891289Y-113785097D01*
X179959535Y-113806711D01*
X180030362Y-113804185D01*
X180098196Y-113775804D01*
X180101212Y-113773808D01*
X180154573Y-113725448D01*
X180189660Y-113662352D01*
X180209078Y-113579387D01*
X180211684Y-113556078D01*
X180216299Y-113446055D01*
X180210767Y-113394748D01*
X180071486Y-113394748D01*
X180069676Y-113426753D01*
X180059778Y-113436093D01*
X180035102Y-113429105D01*
X179996205Y-113412587D01*
X179952725Y-113391881D01*
X179951644Y-113391333D01*
X179914791Y-113371949D01*
X179900000Y-113359013D01*
X179903647Y-113345451D01*
X179919005Y-113327632D01*
X179958077Y-113301845D01*
X180000154Y-113299950D01*
X180037897Y-113318717D01*
X180063966Y-113354915D01*
X180071486Y-113394748D01*
X180210767Y-113394748D01*
X180206806Y-113358027D01*
X180182450Y-113288212D01*
X180148544Y-113239302D01*
X180087347Y-113189878D01*
X180019937Y-113165359D01*
X179951120Y-113163797D01*
X179885697Y-113183239D01*
G37*
X179885697Y-113183239D02*
X179828473Y-113221735D01*
X179784251Y-113277335D01*
X179757833Y-113348086D01*
X179752490Y-113400162D01*
X179753097Y-113421893D01*
X179758178Y-113438531D01*
X179772145Y-113453437D01*
X179799411Y-113469973D01*
X179844388Y-113491498D01*
X179911489Y-113521374D01*
X179911829Y-113521524D01*
X179973593Y-113549813D01*
X180024241Y-113574933D01*
X180058596Y-113594179D01*
X180071482Y-113604848D01*
X180071486Y-113604934D01*
X180060128Y-113628166D01*
X180033569Y-113653774D01*
X180003077Y-113672221D01*
X179987630Y-113675886D01*
X179945485Y-113663212D01*
X179909192Y-113631471D01*
X179891483Y-113596572D01*
X179874448Y-113570845D01*
X179841078Y-113541546D01*
X179801851Y-113516235D01*
X179767244Y-113502471D01*
X179760007Y-113501714D01*
X179751861Y-113514160D01*
X179751370Y-113545972D01*
X179757357Y-113588866D01*
X179768643Y-113634558D01*
X179784050Y-113674761D01*
X179784829Y-113676322D01*
X179831196Y-113741062D01*
X179891289Y-113785097D01*
X179959535Y-113806711D01*
X180030362Y-113804185D01*
X180098196Y-113775804D01*
X180101212Y-113773808D01*
X180154573Y-113725448D01*
X180189660Y-113662352D01*
X180209078Y-113579387D01*
X180211684Y-113556078D01*
X180216299Y-113446055D01*
X180210767Y-113394748D01*
X180071486Y-113394748D01*
X180069676Y-113426753D01*
X180059778Y-113436093D01*
X180035102Y-113429105D01*
X179996205Y-113412587D01*
X179952725Y-113391881D01*
X179951644Y-113391333D01*
X179914791Y-113371949D01*
X179900000Y-113359013D01*
X179903647Y-113345451D01*
X179919005Y-113327632D01*
X179958077Y-113301845D01*
X180000154Y-113299950D01*
X180037897Y-113318717D01*
X180063966Y-113354915D01*
X180071486Y-113394748D01*
X180210767Y-113394748D01*
X180206806Y-113358027D01*
X180182450Y-113288212D01*
X180148544Y-113239302D01*
X180087347Y-113189878D01*
X180019937Y-113165359D01*
X179951120Y-113163797D01*
X179885697Y-113183239D01*
G36*
X178678114Y-113103289D02*
G01*
X178673861Y-113162613D01*
X178668975Y-113197572D01*
X178662205Y-113212820D01*
X178652298Y-113213015D01*
X178649086Y-113211195D01*
X178606356Y-113198015D01*
X178550773Y-113198785D01*
X178494263Y-113212333D01*
X178458918Y-113229861D01*
X178422679Y-113257861D01*
X178396187Y-113289549D01*
X178378001Y-113329813D01*
X178366678Y-113383543D01*
X178360778Y-113455626D01*
X178358857Y-113550951D01*
X178358823Y-113569237D01*
X178358800Y-113774646D01*
X178404509Y-113790580D01*
X178436973Y-113801420D01*
X178454785Y-113806468D01*
X178455309Y-113806514D01*
X178457063Y-113792828D01*
X178458556Y-113755076D01*
X178459674Y-113698224D01*
X178460303Y-113627234D01*
X178460400Y-113584073D01*
X178460602Y-113498973D01*
X178461642Y-113437981D01*
X178464169Y-113396177D01*
X178468836Y-113368642D01*
X178476293Y-113350456D01*
X178487189Y-113336698D01*
X178493993Y-113330073D01*
X178540728Y-113303375D01*
X178591728Y-113301375D01*
X178637999Y-113323955D01*
X178646556Y-113332107D01*
X178659107Y-113347436D01*
X178667812Y-113365618D01*
X178673369Y-113391909D01*
X178676474Y-113431562D01*
X178677824Y-113489832D01*
X178678114Y-113570173D01*
X178678114Y-113774646D01*
X178723823Y-113790580D01*
X178756287Y-113801420D01*
X178774099Y-113806468D01*
X178774623Y-113806514D01*
X178775963Y-113792623D01*
X178777172Y-113753439D01*
X178778199Y-113692700D01*
X178778998Y-113614141D01*
X178779519Y-113521498D01*
X178779714Y-113418509D01*
X178779714Y-113021342D01*
X178732543Y-113001444D01*
X178685371Y-112981547D01*
X178678114Y-113103289D01*
G37*
X178678114Y-113103289D02*
X178673861Y-113162613D01*
X178668975Y-113197572D01*
X178662205Y-113212820D01*
X178652298Y-113213015D01*
X178649086Y-113211195D01*
X178606356Y-113198015D01*
X178550773Y-113198785D01*
X178494263Y-113212333D01*
X178458918Y-113229861D01*
X178422679Y-113257861D01*
X178396187Y-113289549D01*
X178378001Y-113329813D01*
X178366678Y-113383543D01*
X178360778Y-113455626D01*
X178358857Y-113550951D01*
X178358823Y-113569237D01*
X178358800Y-113774646D01*
X178404509Y-113790580D01*
X178436973Y-113801420D01*
X178454785Y-113806468D01*
X178455309Y-113806514D01*
X178457063Y-113792828D01*
X178458556Y-113755076D01*
X178459674Y-113698224D01*
X178460303Y-113627234D01*
X178460400Y-113584073D01*
X178460602Y-113498973D01*
X178461642Y-113437981D01*
X178464169Y-113396177D01*
X178468836Y-113368642D01*
X178476293Y-113350456D01*
X178487189Y-113336698D01*
X178493993Y-113330073D01*
X178540728Y-113303375D01*
X178591728Y-113301375D01*
X178637999Y-113323955D01*
X178646556Y-113332107D01*
X178659107Y-113347436D01*
X178667812Y-113365618D01*
X178673369Y-113391909D01*
X178676474Y-113431562D01*
X178677824Y-113489832D01*
X178678114Y-113570173D01*
X178678114Y-113774646D01*
X178723823Y-113790580D01*
X178756287Y-113801420D01*
X178774099Y-113806468D01*
X178774623Y-113806514D01*
X178775963Y-113792623D01*
X178777172Y-113753439D01*
X178778199Y-113692700D01*
X178778998Y-113614141D01*
X178779519Y-113521498D01*
X178779714Y-113418509D01*
X178779714Y-113021342D01*
X178732543Y-113001444D01*
X178685371Y-112981547D01*
X178678114Y-113103289D01*
G36*
X178014256Y-113202968D02*
G01*
X177957384Y-113224087D01*
X177956733Y-113224493D01*
X177921560Y-113250380D01*
X177895593Y-113280633D01*
X177877330Y-113320058D01*
X177865268Y-113373462D01*
X177857904Y-113445651D01*
X177853736Y-113541432D01*
X177853371Y-113555078D01*
X177848124Y-113760842D01*
X177892284Y-113783678D01*
X177924237Y-113799110D01*
X177943530Y-113806423D01*
X177944422Y-113806514D01*
X177947761Y-113793022D01*
X177950413Y-113756626D01*
X177952044Y-113703452D01*
X177952400Y-113660393D01*
X177952408Y-113590641D01*
X177955597Y-113546837D01*
X177966712Y-113525944D01*
X177990499Y-113524925D01*
X178031704Y-113540741D01*
X178093914Y-113569815D01*
X178139659Y-113593963D01*
X178163187Y-113614913D01*
X178170104Y-113637747D01*
X178170114Y-113638877D01*
X178158701Y-113678212D01*
X178124908Y-113699462D01*
X178073191Y-113702539D01*
X178035939Y-113702006D01*
X178016297Y-113712735D01*
X178004048Y-113738505D01*
X177996998Y-113771337D01*
X178007158Y-113789966D01*
X178010983Y-113792632D01*
X178046999Y-113803340D01*
X178097434Y-113804856D01*
X178149374Y-113797759D01*
X178186178Y-113784788D01*
X178237062Y-113741585D01*
X178265986Y-113681446D01*
X178271714Y-113634462D01*
X178267343Y-113592082D01*
X178251525Y-113557488D01*
X178220203Y-113526763D01*
X178169322Y-113495990D01*
X178094824Y-113461252D01*
X178090286Y-113459288D01*
X178023179Y-113428287D01*
X177981768Y-113402862D01*
X177964019Y-113380014D01*
X177967893Y-113356745D01*
X177991357Y-113330056D01*
X177998373Y-113323914D01*
X178045370Y-113300100D01*
X178094067Y-113301103D01*
X178136478Y-113324451D01*
X178164616Y-113367675D01*
X178167231Y-113376160D01*
X178192692Y-113417308D01*
X178224999Y-113437128D01*
X178271714Y-113456770D01*
X178271714Y-113405950D01*
X178257504Y-113332082D01*
X178215325Y-113264327D01*
X178193376Y-113241661D01*
X178143483Y-113212569D01*
X178080033Y-113199400D01*
X178014256Y-113202968D01*
G37*
X178014256Y-113202968D02*
X177957384Y-113224087D01*
X177956733Y-113224493D01*
X177921560Y-113250380D01*
X177895593Y-113280633D01*
X177877330Y-113320058D01*
X177865268Y-113373462D01*
X177857904Y-113445651D01*
X177853736Y-113541432D01*
X177853371Y-113555078D01*
X177848124Y-113760842D01*
X177892284Y-113783678D01*
X177924237Y-113799110D01*
X177943530Y-113806423D01*
X177944422Y-113806514D01*
X177947761Y-113793022D01*
X177950413Y-113756626D01*
X177952044Y-113703452D01*
X177952400Y-113660393D01*
X177952408Y-113590641D01*
X177955597Y-113546837D01*
X177966712Y-113525944D01*
X177990499Y-113524925D01*
X178031704Y-113540741D01*
X178093914Y-113569815D01*
X178139659Y-113593963D01*
X178163187Y-113614913D01*
X178170104Y-113637747D01*
X178170114Y-113638877D01*
X178158701Y-113678212D01*
X178124908Y-113699462D01*
X178073191Y-113702539D01*
X178035939Y-113702006D01*
X178016297Y-113712735D01*
X178004048Y-113738505D01*
X177996998Y-113771337D01*
X178007158Y-113789966D01*
X178010983Y-113792632D01*
X178046999Y-113803340D01*
X178097434Y-113804856D01*
X178149374Y-113797759D01*
X178186178Y-113784788D01*
X178237062Y-113741585D01*
X178265986Y-113681446D01*
X178271714Y-113634462D01*
X178267343Y-113592082D01*
X178251525Y-113557488D01*
X178220203Y-113526763D01*
X178169322Y-113495990D01*
X178094824Y-113461252D01*
X178090286Y-113459288D01*
X178023179Y-113428287D01*
X177981768Y-113402862D01*
X177964019Y-113380014D01*
X177967893Y-113356745D01*
X177991357Y-113330056D01*
X177998373Y-113323914D01*
X178045370Y-113300100D01*
X178094067Y-113301103D01*
X178136478Y-113324451D01*
X178164616Y-113367675D01*
X178167231Y-113376160D01*
X178192692Y-113417308D01*
X178224999Y-113437128D01*
X178271714Y-113456770D01*
X178271714Y-113405950D01*
X178257504Y-113332082D01*
X178215325Y-113264327D01*
X178193376Y-113241661D01*
X178143483Y-113212569D01*
X178080033Y-113199400D01*
X178014256Y-113202968D01*
G36*
X177524074Y-113201755D02*
G01*
X177458142Y-113226084D01*
X177404727Y-113269117D01*
X177383836Y-113299409D01*
X177361061Y-113354994D01*
X177361534Y-113395186D01*
X177385438Y-113422217D01*
X177394283Y-113426813D01*
X177432470Y-113441144D01*
X177451972Y-113437472D01*
X177458578Y-113413407D01*
X177458914Y-113400114D01*
X177471008Y-113351210D01*
X177502529Y-113316999D01*
X177546341Y-113300476D01*
X177595305Y-113304634D01*
X177635106Y-113326227D01*
X177648550Y-113338544D01*
X177658079Y-113353487D01*
X177664515Y-113376075D01*
X177668683Y-113411328D01*
X177671403Y-113464266D01*
X177673498Y-113539907D01*
X177674040Y-113563857D01*
X177676019Y-113645790D01*
X177678269Y-113703455D01*
X177681643Y-113741608D01*
X177686994Y-113765004D01*
X177695176Y-113778398D01*
X177707041Y-113786545D01*
X177714638Y-113790144D01*
X177746898Y-113802452D01*
X177765889Y-113806514D01*
X177772164Y-113792948D01*
X177775994Y-113751934D01*
X177777400Y-113682999D01*
X177776402Y-113585669D01*
X177776092Y-113570657D01*
X177773899Y-113481859D01*
X177771307Y-113417019D01*
X177767618Y-113371067D01*
X177762136Y-113338935D01*
X177754165Y-113315553D01*
X177743007Y-113295852D01*
X177737170Y-113287410D01*
X177703704Y-113250057D01*
X177666273Y-113221003D01*
X177661691Y-113218467D01*
X177594574Y-113198443D01*
X177524074Y-113201755D01*
G37*
X177524074Y-113201755D02*
X177458142Y-113226084D01*
X177404727Y-113269117D01*
X177383836Y-113299409D01*
X177361061Y-113354994D01*
X177361534Y-113395186D01*
X177385438Y-113422217D01*
X177394283Y-113426813D01*
X177432470Y-113441144D01*
X177451972Y-113437472D01*
X177458578Y-113413407D01*
X177458914Y-113400114D01*
X177471008Y-113351210D01*
X177502529Y-113316999D01*
X177546341Y-113300476D01*
X177595305Y-113304634D01*
X177635106Y-113326227D01*
X177648550Y-113338544D01*
X177658079Y-113353487D01*
X177664515Y-113376075D01*
X177668683Y-113411328D01*
X177671403Y-113464266D01*
X177673498Y-113539907D01*
X177674040Y-113563857D01*
X177676019Y-113645790D01*
X177678269Y-113703455D01*
X177681643Y-113741608D01*
X177686994Y-113765004D01*
X177695176Y-113778398D01*
X177707041Y-113786545D01*
X177714638Y-113790144D01*
X177746898Y-113802452D01*
X177765889Y-113806514D01*
X177772164Y-113792948D01*
X177775994Y-113751934D01*
X177777400Y-113682999D01*
X177776402Y-113585669D01*
X177776092Y-113570657D01*
X177773899Y-113481859D01*
X177771307Y-113417019D01*
X177767618Y-113371067D01*
X177762136Y-113338935D01*
X177754165Y-113315553D01*
X177743007Y-113295852D01*
X177737170Y-113287410D01*
X177703704Y-113250057D01*
X177666273Y-113221003D01*
X177661691Y-113218467D01*
X177594574Y-113198443D01*
X177524074Y-113201755D01*
G36*
X176863883Y-113317358D02*
G01*
X176864067Y-113425837D01*
X176864781Y-113509287D01*
X176866325Y-113571704D01*
X176868999Y-113617085D01*
X176873106Y-113649429D01*
X176878945Y-113672733D01*
X176886818Y-113690995D01*
X176892779Y-113701418D01*
X176942145Y-113757945D01*
X177004736Y-113793377D01*
X177073987Y-113806090D01*
X177143332Y-113794463D01*
X177184625Y-113773568D01*
X177227975Y-113737422D01*
X177257519Y-113693276D01*
X177275345Y-113635462D01*
X177283537Y-113558313D01*
X177284698Y-113501714D01*
X177284542Y-113497647D01*
X177183143Y-113497647D01*
X177182524Y-113562550D01*
X177179686Y-113605514D01*
X177173160Y-113633622D01*
X177161477Y-113653953D01*
X177147517Y-113669288D01*
X177100635Y-113698890D01*
X177050299Y-113701419D01*
X177002724Y-113676705D01*
X176999021Y-113673356D01*
X176983217Y-113655935D01*
X176973307Y-113635209D01*
X176967942Y-113604362D01*
X176965772Y-113556577D01*
X176965429Y-113503748D01*
X176966173Y-113437381D01*
X176969252Y-113393106D01*
X176975939Y-113364009D01*
X176987504Y-113343173D01*
X176996987Y-113332107D01*
X177041040Y-113304198D01*
X177091776Y-113300843D01*
X177140204Y-113322159D01*
X177149550Y-113330073D01*
X177165460Y-113347647D01*
X177175390Y-113368587D01*
X177180722Y-113399782D01*
X177182837Y-113448122D01*
X177183143Y-113497647D01*
X177284542Y-113497647D01*
X177281190Y-113410568D01*
X177269274Y-113342086D01*
X177246865Y-113290600D01*
X177211876Y-113250443D01*
X177184625Y-113229861D01*
X177135093Y-113207625D01*
X177077684Y-113197304D01*
X177024318Y-113200067D01*
X176994457Y-113211212D01*
X176982739Y-113214383D01*
X176974963Y-113202557D01*
X176969535Y-113170866D01*
X176965429Y-113122593D01*
X176960933Y-113068829D01*
X176954687Y-113036482D01*
X176943324Y-113017985D01*
X176923472Y-113005770D01*
X176911000Y-113000362D01*
X176863829Y-112980601D01*
X176863883Y-113317358D01*
G37*
X176863883Y-113317358D02*
X176864067Y-113425837D01*
X176864781Y-113509287D01*
X176866325Y-113571704D01*
X176868999Y-113617085D01*
X176873106Y-113649429D01*
X176878945Y-113672733D01*
X176886818Y-113690995D01*
X176892779Y-113701418D01*
X176942145Y-113757945D01*
X177004736Y-113793377D01*
X177073987Y-113806090D01*
X177143332Y-113794463D01*
X177184625Y-113773568D01*
X177227975Y-113737422D01*
X177257519Y-113693276D01*
X177275345Y-113635462D01*
X177283537Y-113558313D01*
X177284698Y-113501714D01*
X177284542Y-113497647D01*
X177183143Y-113497647D01*
X177182524Y-113562550D01*
X177179686Y-113605514D01*
X177173160Y-113633622D01*
X177161477Y-113653953D01*
X177147517Y-113669288D01*
X177100635Y-113698890D01*
X177050299Y-113701419D01*
X177002724Y-113676705D01*
X176999021Y-113673356D01*
X176983217Y-113655935D01*
X176973307Y-113635209D01*
X176967942Y-113604362D01*
X176965772Y-113556577D01*
X176965429Y-113503748D01*
X176966173Y-113437381D01*
X176969252Y-113393106D01*
X176975939Y-113364009D01*
X176987504Y-113343173D01*
X176996987Y-113332107D01*
X177041040Y-113304198D01*
X177091776Y-113300843D01*
X177140204Y-113322159D01*
X177149550Y-113330073D01*
X177165460Y-113347647D01*
X177175390Y-113368587D01*
X177180722Y-113399782D01*
X177182837Y-113448122D01*
X177183143Y-113497647D01*
X177284542Y-113497647D01*
X177281190Y-113410568D01*
X177269274Y-113342086D01*
X177246865Y-113290600D01*
X177211876Y-113250443D01*
X177184625Y-113229861D01*
X177135093Y-113207625D01*
X177077684Y-113197304D01*
X177024318Y-113200067D01*
X176994457Y-113211212D01*
X176982739Y-113214383D01*
X176974963Y-113202557D01*
X176969535Y-113170866D01*
X176965429Y-113122593D01*
X176960933Y-113068829D01*
X176954687Y-113036482D01*
X176943324Y-113017985D01*
X176923472Y-113005770D01*
X176911000Y-113000362D01*
X176863829Y-112980601D01*
X176863883Y-113317358D01*
G36*
X176274167Y-113210663D02*
G01*
X176271952Y-113248850D01*
X176270216Y-113306886D01*
X176269101Y-113380180D01*
X176268743Y-113457055D01*
X176268743Y-113717196D01*
X176314674Y-113763127D01*
X176346325Y-113791429D01*
X176374110Y-113802893D01*
X176412085Y-113802168D01*
X176427160Y-113800321D01*
X176474274Y-113794948D01*
X176513244Y-113791869D01*
X176522743Y-113791585D01*
X176554767Y-113793445D01*
X176600568Y-113798114D01*
X176618326Y-113800321D01*
X176661943Y-113803735D01*
X176691255Y-113796320D01*
X176720320Y-113773427D01*
X176730812Y-113763127D01*
X176776743Y-113717196D01*
X176776743Y-113230602D01*
X176739774Y-113213758D01*
X176707941Y-113201282D01*
X176689317Y-113196914D01*
X176684542Y-113210718D01*
X176680079Y-113249286D01*
X176676225Y-113308356D01*
X176673278Y-113383663D01*
X176671857Y-113447286D01*
X176667886Y-113697657D01*
X176633241Y-113702556D01*
X176601732Y-113699131D01*
X176586292Y-113688041D01*
X176581977Y-113667308D01*
X176578292Y-113623145D01*
X176575531Y-113561146D01*
X176573988Y-113486909D01*
X176573765Y-113448706D01*
X176573543Y-113228783D01*
X176527834Y-113212849D01*
X176495482Y-113202015D01*
X176477885Y-113196962D01*
X176477377Y-113196914D01*
X176475612Y-113210648D01*
X176473671Y-113248730D01*
X176471718Y-113306482D01*
X176469916Y-113379227D01*
X176468657Y-113447286D01*
X176464686Y-113697657D01*
X176377600Y-113697657D01*
X176373604Y-113469240D01*
X176369608Y-113240822D01*
X176327153Y-113218868D01*
X176295808Y-113203793D01*
X176277256Y-113196951D01*
X176276721Y-113196914D01*
X176274167Y-113210663D01*
G37*
X176274167Y-113210663D02*
X176271952Y-113248850D01*
X176270216Y-113306886D01*
X176269101Y-113380180D01*
X176268743Y-113457055D01*
X176268743Y-113717196D01*
X176314674Y-113763127D01*
X176346325Y-113791429D01*
X176374110Y-113802893D01*
X176412085Y-113802168D01*
X176427160Y-113800321D01*
X176474274Y-113794948D01*
X176513244Y-113791869D01*
X176522743Y-113791585D01*
X176554767Y-113793445D01*
X176600568Y-113798114D01*
X176618326Y-113800321D01*
X176661943Y-113803735D01*
X176691255Y-113796320D01*
X176720320Y-113773427D01*
X176730812Y-113763127D01*
X176776743Y-113717196D01*
X176776743Y-113230602D01*
X176739774Y-113213758D01*
X176707941Y-113201282D01*
X176689317Y-113196914D01*
X176684542Y-113210718D01*
X176680079Y-113249286D01*
X176676225Y-113308356D01*
X176673278Y-113383663D01*
X176671857Y-113447286D01*
X176667886Y-113697657D01*
X176633241Y-113702556D01*
X176601732Y-113699131D01*
X176586292Y-113688041D01*
X176581977Y-113667308D01*
X176578292Y-113623145D01*
X176575531Y-113561146D01*
X176573988Y-113486909D01*
X176573765Y-113448706D01*
X176573543Y-113228783D01*
X176527834Y-113212849D01*
X176495482Y-113202015D01*
X176477885Y-113196962D01*
X176477377Y-113196914D01*
X176475612Y-113210648D01*
X176473671Y-113248730D01*
X176471718Y-113306482D01*
X176469916Y-113379227D01*
X176468657Y-113447286D01*
X176464686Y-113697657D01*
X176377600Y-113697657D01*
X176373604Y-113469240D01*
X176369608Y-113240822D01*
X176327153Y-113218868D01*
X176295808Y-113203793D01*
X176277256Y-113196951D01*
X176276721Y-113196914D01*
X176274167Y-113210663D01*
G36*
X175909124Y-113208335D02*
G01*
X175867333Y-113227344D01*
X175834531Y-113250378D01*
X175810497Y-113276133D01*
X175793903Y-113309358D01*
X175783423Y-113354800D01*
X175777729Y-113417207D01*
X175775493Y-113501327D01*
X175775257Y-113556721D01*
X175775257Y-113772826D01*
X175812226Y-113789670D01*
X175841344Y-113801981D01*
X175855769Y-113806514D01*
X175858528Y-113793025D01*
X175860718Y-113756653D01*
X175862058Y-113703542D01*
X175862343Y-113661372D01*
X175863566Y-113600447D01*
X175866864Y-113552115D01*
X175871679Y-113522518D01*
X175875504Y-113516229D01*
X175901217Y-113522652D01*
X175941582Y-113539125D01*
X175988321Y-113561458D01*
X176033155Y-113585457D01*
X176067807Y-113606930D01*
X176083998Y-113621685D01*
X176084062Y-113621845D01*
X176082670Y-113649152D01*
X176070182Y-113675219D01*
X176048257Y-113696392D01*
X176016257Y-113703474D01*
X175988908Y-113702649D01*
X175950174Y-113702042D01*
X175929842Y-113711116D01*
X175917631Y-113735092D01*
X175916091Y-113739613D01*
X175910797Y-113773806D01*
X175924953Y-113794568D01*
X175961852Y-113804462D01*
X176001711Y-113806292D01*
X176073438Y-113792727D01*
X176110568Y-113773355D01*
X176156424Y-113727845D01*
X176180744Y-113671983D01*
X176182927Y-113612957D01*
X176162371Y-113557953D01*
X176131451Y-113523486D01*
X176100580Y-113504189D01*
X176052058Y-113479759D01*
X175995515Y-113454985D01*
X175986090Y-113451199D01*
X175923981Y-113423791D01*
X175888178Y-113399634D01*
X175876663Y-113375619D01*
X175887420Y-113348635D01*
X175905886Y-113327543D01*
X175949531Y-113301572D01*
X175997554Y-113299624D01*
X176041594Y-113319637D01*
X176073291Y-113359551D01*
X176077451Y-113369848D01*
X176101673Y-113407724D01*
X176137035Y-113435842D01*
X176181657Y-113458917D01*
X176181657Y-113393485D01*
X176179031Y-113353506D01*
X176167770Y-113321997D01*
X176142801Y-113288378D01*
X176118831Y-113262484D01*
X176081559Y-113225817D01*
X176052599Y-113206121D01*
X176021495Y-113198220D01*
X175986287Y-113196914D01*
X175909124Y-113208335D01*
G37*
X175909124Y-113208335D02*
X175867333Y-113227344D01*
X175834531Y-113250378D01*
X175810497Y-113276133D01*
X175793903Y-113309358D01*
X175783423Y-113354800D01*
X175777729Y-113417207D01*
X175775493Y-113501327D01*
X175775257Y-113556721D01*
X175775257Y-113772826D01*
X175812226Y-113789670D01*
X175841344Y-113801981D01*
X175855769Y-113806514D01*
X175858528Y-113793025D01*
X175860718Y-113756653D01*
X175862058Y-113703542D01*
X175862343Y-113661372D01*
X175863566Y-113600447D01*
X175866864Y-113552115D01*
X175871679Y-113522518D01*
X175875504Y-113516229D01*
X175901217Y-113522652D01*
X175941582Y-113539125D01*
X175988321Y-113561458D01*
X176033155Y-113585457D01*
X176067807Y-113606930D01*
X176083998Y-113621685D01*
X176084062Y-113621845D01*
X176082670Y-113649152D01*
X176070182Y-113675219D01*
X176048257Y-113696392D01*
X176016257Y-113703474D01*
X175988908Y-113702649D01*
X175950174Y-113702042D01*
X175929842Y-113711116D01*
X175917631Y-113735092D01*
X175916091Y-113739613D01*
X175910797Y-113773806D01*
X175924953Y-113794568D01*
X175961852Y-113804462D01*
X176001711Y-113806292D01*
X176073438Y-113792727D01*
X176110568Y-113773355D01*
X176156424Y-113727845D01*
X176180744Y-113671983D01*
X176182927Y-113612957D01*
X176162371Y-113557953D01*
X176131451Y-113523486D01*
X176100580Y-113504189D01*
X176052058Y-113479759D01*
X175995515Y-113454985D01*
X175986090Y-113451199D01*
X175923981Y-113423791D01*
X175888178Y-113399634D01*
X175876663Y-113375619D01*
X175887420Y-113348635D01*
X175905886Y-113327543D01*
X175949531Y-113301572D01*
X175997554Y-113299624D01*
X176041594Y-113319637D01*
X176073291Y-113359551D01*
X176077451Y-113369848D01*
X176101673Y-113407724D01*
X176137035Y-113435842D01*
X176181657Y-113458917D01*
X176181657Y-113393485D01*
X176179031Y-113353506D01*
X176167770Y-113321997D01*
X176142801Y-113288378D01*
X176118831Y-113262484D01*
X176081559Y-113225817D01*
X176052599Y-113206121D01*
X176021495Y-113198220D01*
X175986287Y-113196914D01*
X175909124Y-113208335D01*
G36*
X175401400Y-113210752D02*
G01*
X175384052Y-113218334D01*
X175342644Y-113251128D01*
X175307235Y-113298547D01*
X175285336Y-113349151D01*
X175281771Y-113374098D01*
X175293721Y-113408927D01*
X175319933Y-113427357D01*
X175348036Y-113438516D01*
X175360905Y-113440572D01*
X175367171Y-113425649D01*
X175379544Y-113393175D01*
X175384972Y-113378502D01*
X175415410Y-113327744D01*
X175459480Y-113302427D01*
X175515990Y-113303206D01*
X175520175Y-113304203D01*
X175550345Y-113318507D01*
X175572524Y-113346393D01*
X175587673Y-113391287D01*
X175596750Y-113456615D01*
X175600714Y-113545804D01*
X175601086Y-113593261D01*
X175601270Y-113668071D01*
X175602478Y-113719069D01*
X175605691Y-113751471D01*
X175611891Y-113770495D01*
X175622060Y-113781356D01*
X175637181Y-113789272D01*
X175638054Y-113789670D01*
X175667172Y-113801981D01*
X175681597Y-113806514D01*
X175683814Y-113792809D01*
X175685711Y-113754925D01*
X175687153Y-113697715D01*
X175688002Y-113626027D01*
X175688171Y-113573565D01*
X175687308Y-113472047D01*
X175683930Y-113395032D01*
X175676858Y-113338023D01*
X175664912Y-113296526D01*
X175646910Y-113266043D01*
X175621673Y-113242080D01*
X175596753Y-113225355D01*
X175536829Y-113203097D01*
X175467089Y-113198076D01*
X175401400Y-113210752D01*
G37*
X175401400Y-113210752D02*
X175384052Y-113218334D01*
X175342644Y-113251128D01*
X175307235Y-113298547D01*
X175285336Y-113349151D01*
X175281771Y-113374098D01*
X175293721Y-113408927D01*
X175319933Y-113427357D01*
X175348036Y-113438516D01*
X175360905Y-113440572D01*
X175367171Y-113425649D01*
X175379544Y-113393175D01*
X175384972Y-113378502D01*
X175415410Y-113327744D01*
X175459480Y-113302427D01*
X175515990Y-113303206D01*
X175520175Y-113304203D01*
X175550345Y-113318507D01*
X175572524Y-113346393D01*
X175587673Y-113391287D01*
X175596750Y-113456615D01*
X175600714Y-113545804D01*
X175601086Y-113593261D01*
X175601270Y-113668071D01*
X175602478Y-113719069D01*
X175605691Y-113751471D01*
X175611891Y-113770495D01*
X175622060Y-113781356D01*
X175637181Y-113789272D01*
X175638054Y-113789670D01*
X175667172Y-113801981D01*
X175681597Y-113806514D01*
X175683814Y-113792809D01*
X175685711Y-113754925D01*
X175687153Y-113697715D01*
X175688002Y-113626027D01*
X175688171Y-113573565D01*
X175687308Y-113472047D01*
X175683930Y-113395032D01*
X175676858Y-113338023D01*
X175664912Y-113296526D01*
X175646910Y-113266043D01*
X175621673Y-113242080D01*
X175596753Y-113225355D01*
X175536829Y-113203097D01*
X175467089Y-113198076D01*
X175401400Y-113210752D01*
G36*
X174900405Y-113218966D02*
G01*
X174842979Y-113256497D01*
X174815281Y-113290096D01*
X174793338Y-113351064D01*
X174791595Y-113399308D01*
X174795543Y-113463816D01*
X174944314Y-113528934D01*
X175016651Y-113562202D01*
X175063916Y-113588964D01*
X175088493Y-113612144D01*
X175092763Y-113634667D01*
X175079111Y-113659455D01*
X175064057Y-113675886D01*
X175020254Y-113702235D01*
X174972611Y-113704081D01*
X174928855Y-113683546D01*
X174896711Y-113642752D01*
X174890962Y-113628347D01*
X174863424Y-113583356D01*
X174831742Y-113564182D01*
X174788286Y-113547779D01*
X174788286Y-113609966D01*
X174792128Y-113652283D01*
X174807177Y-113687969D01*
X174838720Y-113728943D01*
X174843408Y-113734267D01*
X174878494Y-113770720D01*
X174908653Y-113790283D01*
X174946385Y-113799283D01*
X174977665Y-113802230D01*
X175033615Y-113802965D01*
X175073445Y-113793660D01*
X175098292Y-113779846D01*
X175137344Y-113749467D01*
X175164375Y-113716613D01*
X175181483Y-113675294D01*
X175190762Y-113619521D01*
X175194307Y-113543305D01*
X175194590Y-113504622D01*
X175193628Y-113458247D01*
X175105993Y-113458247D01*
X175104977Y-113483126D01*
X175102444Y-113487200D01*
X175085726Y-113481665D01*
X175049751Y-113467017D01*
X175001669Y-113446190D01*
X174991614Y-113441714D01*
X174930848Y-113410814D01*
X174897368Y-113383657D01*
X174890010Y-113358220D01*
X174907609Y-113332481D01*
X174922144Y-113321109D01*
X174974590Y-113298364D01*
X175023678Y-113302122D01*
X175064773Y-113329884D01*
X175093242Y-113379152D01*
X175102369Y-113418257D01*
X175105993Y-113458247D01*
X175193628Y-113458247D01*
X175192715Y-113414249D01*
X175185804Y-113347384D01*
X175172116Y-113298695D01*
X175149904Y-113262849D01*
X175117426Y-113234513D01*
X175103267Y-113225355D01*
X175038947Y-113201507D01*
X174968527Y-113200006D01*
X174900405Y-113218966D01*
G37*
X174900405Y-113218966D02*
X174842979Y-113256497D01*
X174815281Y-113290096D01*
X174793338Y-113351064D01*
X174791595Y-113399308D01*
X174795543Y-113463816D01*
X174944314Y-113528934D01*
X175016651Y-113562202D01*
X175063916Y-113588964D01*
X175088493Y-113612144D01*
X175092763Y-113634667D01*
X175079111Y-113659455D01*
X175064057Y-113675886D01*
X175020254Y-113702235D01*
X174972611Y-113704081D01*
X174928855Y-113683546D01*
X174896711Y-113642752D01*
X174890962Y-113628347D01*
X174863424Y-113583356D01*
X174831742Y-113564182D01*
X174788286Y-113547779D01*
X174788286Y-113609966D01*
X174792128Y-113652283D01*
X174807177Y-113687969D01*
X174838720Y-113728943D01*
X174843408Y-113734267D01*
X174878494Y-113770720D01*
X174908653Y-113790283D01*
X174946385Y-113799283D01*
X174977665Y-113802230D01*
X175033615Y-113802965D01*
X175073445Y-113793660D01*
X175098292Y-113779846D01*
X175137344Y-113749467D01*
X175164375Y-113716613D01*
X175181483Y-113675294D01*
X175190762Y-113619521D01*
X175194307Y-113543305D01*
X175194590Y-113504622D01*
X175193628Y-113458247D01*
X175105993Y-113458247D01*
X175104977Y-113483126D01*
X175102444Y-113487200D01*
X175085726Y-113481665D01*
X175049751Y-113467017D01*
X175001669Y-113446190D01*
X174991614Y-113441714D01*
X174930848Y-113410814D01*
X174897368Y-113383657D01*
X174890010Y-113358220D01*
X174907609Y-113332481D01*
X174922144Y-113321109D01*
X174974590Y-113298364D01*
X175023678Y-113302122D01*
X175064773Y-113329884D01*
X175093242Y-113379152D01*
X175102369Y-113418257D01*
X175105993Y-113458247D01*
X175193628Y-113458247D01*
X175192715Y-113414249D01*
X175185804Y-113347384D01*
X175172116Y-113298695D01*
X175149904Y-113262849D01*
X175117426Y-113234513D01*
X175103267Y-113225355D01*
X175038947Y-113201507D01*
X174968527Y-113200006D01*
X174900405Y-113218966D01*
G36*
X177950090Y-108494348D02*
G01*
X177871546Y-108494778D01*
X177814702Y-108495942D01*
X177775895Y-108498207D01*
X177751462Y-108501940D01*
X177737738Y-108507506D01*
X177731060Y-108515273D01*
X177727764Y-108525605D01*
X177727444Y-108526943D01*
X177722438Y-108551079D01*
X177713171Y-108598701D01*
X177700608Y-108664741D01*
X177685713Y-108744128D01*
X177669449Y-108831796D01*
X177668881Y-108834875D01*
X177652590Y-108920789D01*
X177637348Y-108996696D01*
X177624139Y-109058045D01*
X177613946Y-109100282D01*
X177607752Y-109118855D01*
X177607457Y-109119184D01*
X177589212Y-109128253D01*
X177551595Y-109143367D01*
X177502729Y-109161262D01*
X177502457Y-109161358D01*
X177440907Y-109184493D01*
X177368343Y-109213965D01*
X177299943Y-109243597D01*
X177296706Y-109245062D01*
X177185298Y-109295626D01*
X176938601Y-109127160D01*
X176862923Y-109075803D01*
X176794369Y-109029889D01*
X176736912Y-108992030D01*
X176694524Y-108964837D01*
X176671175Y-108950921D01*
X176668958Y-108949889D01*
X176651990Y-108954484D01*
X176620299Y-108976655D01*
X176572648Y-109017447D01*
X176507802Y-109077905D01*
X176441603Y-109142227D01*
X176377786Y-109205612D01*
X176320671Y-109263451D01*
X176273695Y-109312175D01*
X176240297Y-109348210D01*
X176223915Y-109367984D01*
X176223306Y-109369002D01*
X176221495Y-109382572D01*
X176228317Y-109404733D01*
X176245460Y-109438478D01*
X176274607Y-109486800D01*
X176317445Y-109552692D01*
X176374552Y-109637517D01*
X176425234Y-109712177D01*
X176470539Y-109779140D01*
X176507850Y-109834516D01*
X176534548Y-109874420D01*
X176548015Y-109894962D01*
X176548863Y-109896356D01*
X176547219Y-109916038D01*
X176534755Y-109954293D01*
X176513952Y-110003889D01*
X176506538Y-110019728D01*
X176474186Y-110090290D01*
X176439672Y-110170353D01*
X176411635Y-110239629D01*
X176391432Y-110291045D01*
X176375385Y-110330119D01*
X176366112Y-110350541D01*
X176364959Y-110352114D01*
X176347904Y-110354721D01*
X176307702Y-110361863D01*
X176249698Y-110372523D01*
X176179237Y-110385685D01*
X176101665Y-110400333D01*
X176022328Y-110415449D01*
X175946569Y-110430018D01*
X175879736Y-110443022D01*
X175827172Y-110453445D01*
X175794224Y-110460270D01*
X175786143Y-110462199D01*
X175777795Y-110466962D01*
X175771494Y-110477718D01*
X175766955Y-110498098D01*
X175763896Y-110531734D01*
X175762033Y-110582255D01*
X175761082Y-110653292D01*
X175760760Y-110748476D01*
X175760743Y-110787492D01*
X175760743Y-111104799D01*
X175836943Y-111119839D01*
X175879337Y-111127995D01*
X175942600Y-111139899D01*
X176019038Y-111154116D01*
X176100957Y-111169210D01*
X176123600Y-111173355D01*
X176199194Y-111188053D01*
X176265047Y-111202505D01*
X176315634Y-111215375D01*
X176345426Y-111225322D01*
X176350388Y-111228287D01*
X176362574Y-111249283D01*
X176380047Y-111289967D01*
X176399423Y-111342322D01*
X176403266Y-111353600D01*
X176428661Y-111423523D01*
X176460183Y-111502418D01*
X176491031Y-111573266D01*
X176491183Y-111573595D01*
X176542553Y-111684733D01*
X176373601Y-111933253D01*
X176204648Y-112181772D01*
X176421571Y-112399058D01*
X176487181Y-112463726D01*
X176547021Y-112520733D01*
X176597733Y-112567033D01*
X176635954Y-112599584D01*
X176658325Y-112615343D01*
X176661534Y-112616343D01*
X176680374Y-112608469D01*
X176718820Y-112586578D01*
X176772670Y-112553267D01*
X176837724Y-112511131D01*
X176908060Y-112463943D01*
X176979445Y-112415810D01*
X177043092Y-112373928D01*
X177094959Y-112340871D01*
X177131005Y-112319218D01*
X177147133Y-112311543D01*
X177166811Y-112318037D01*
X177204125Y-112335150D01*
X177251379Y-112359326D01*
X177256388Y-112362013D01*
X177320023Y-112393927D01*
X177363659Y-112409579D01*
X177390798Y-112409745D01*
X177404943Y-112395204D01*
X177405025Y-112395000D01*
X177412095Y-112377779D01*
X177428958Y-112336899D01*
X177454305Y-112275525D01*
X177486829Y-112196819D01*
X177525222Y-112103947D01*
X177568178Y-112000072D01*
X177609778Y-111899502D01*
X177655496Y-111788516D01*
X177697474Y-111685703D01*
X177734452Y-111594215D01*
X177765173Y-111517201D01*
X177788378Y-111457815D01*
X177802810Y-111419209D01*
X177807257Y-111404800D01*
X177796104Y-111388272D01*
X177766931Y-111361930D01*
X177728029Y-111332887D01*
X177617243Y-111241039D01*
X177530649Y-111135759D01*
X177469284Y-111019266D01*
X177434185Y-110893776D01*
X177426392Y-110761507D01*
X177432057Y-110700457D01*
X177462922Y-110573795D01*
X177516080Y-110461941D01*
X177588233Y-110366001D01*
X177676083Y-110287076D01*
X177776335Y-110226270D01*
X177885690Y-110184687D01*
X178000853Y-110163428D01*
X178118525Y-110163599D01*
X178235410Y-110186301D01*
X178348211Y-110232638D01*
X178453631Y-110303713D01*
X178497632Y-110343911D01*
X178582021Y-110447129D01*
X178640778Y-110559925D01*
X178674296Y-110679010D01*
X178682965Y-110801095D01*
X178667177Y-110922893D01*
X178627322Y-111041116D01*
X178563793Y-111152475D01*
X178476979Y-111253684D01*
X178379971Y-111332887D01*
X178339563Y-111363162D01*
X178311018Y-111389219D01*
X178300743Y-111404825D01*
X178306123Y-111421843D01*
X178321425Y-111462500D01*
X178345388Y-111523642D01*
X178376756Y-111602119D01*
X178414268Y-111694780D01*
X178456667Y-111798472D01*
X178498337Y-111899526D01*
X178544310Y-112010607D01*
X178586893Y-112113541D01*
X178624779Y-112205165D01*
X178656660Y-112282316D01*
X178681229Y-112341831D01*
X178697180Y-112380544D01*
X178703090Y-112395000D01*
X178717052Y-112409685D01*
X178744060Y-112409642D01*
X178787587Y-112394099D01*
X178851110Y-112362284D01*
X178851612Y-112362013D01*
X178899440Y-112337323D01*
X178938103Y-112319338D01*
X178959905Y-112311614D01*
X178960867Y-112311543D01*
X178977279Y-112319378D01*
X179013513Y-112341165D01*
X179065526Y-112374328D01*
X179129275Y-112416291D01*
X179199940Y-112463943D01*
X179271884Y-112512191D01*
X179336726Y-112554151D01*
X179390265Y-112587227D01*
X179428303Y-112608821D01*
X179446467Y-112616343D01*
X179463192Y-112606457D01*
X179496820Y-112578826D01*
X179543990Y-112536495D01*
X179601342Y-112482505D01*
X179665516Y-112419899D01*
X179686503Y-112398983D01*
X179903501Y-112181623D01*
X179738332Y-111939220D01*
X179688136Y-111864781D01*
X179644081Y-111797972D01*
X179608638Y-111742665D01*
X179584281Y-111702729D01*
X179573478Y-111682036D01*
X179573162Y-111680563D01*
X179578857Y-111661058D01*
X179594174Y-111621822D01*
X179616463Y-111569430D01*
X179632107Y-111534355D01*
X179661359Y-111467201D01*
X179688906Y-111399358D01*
X179710263Y-111342034D01*
X179716065Y-111324572D01*
X179732548Y-111277938D01*
X179748660Y-111241905D01*
X179757510Y-111228287D01*
X179777040Y-111219952D01*
X179819666Y-111208137D01*
X179879855Y-111194181D01*
X179952078Y-111179422D01*
X179984400Y-111173355D01*
X180066478Y-111158273D01*
X180145205Y-111143669D01*
X180212891Y-111130980D01*
X180261840Y-111121642D01*
X180271057Y-111119839D01*
X180347257Y-111104799D01*
X180347257Y-110787492D01*
X180347086Y-110683154D01*
X180346384Y-110604213D01*
X180344866Y-110547038D01*
X180342251Y-110507999D01*
X180338254Y-110483465D01*
X180332591Y-110469805D01*
X180324980Y-110463389D01*
X180321857Y-110462199D01*
X180303022Y-110457980D01*
X180261412Y-110449562D01*
X180202370Y-110437961D01*
X180131243Y-110424195D01*
X180053375Y-110409280D01*
X179974113Y-110394232D01*
X179898802Y-110380069D01*
X179832787Y-110367806D01*
X179781413Y-110358461D01*
X179750025Y-110353050D01*
X179743041Y-110352114D01*
X179736715Y-110339596D01*
X179722710Y-110306246D01*
X179703645Y-110258377D01*
X179696366Y-110239629D01*
X179667004Y-110167195D01*
X179632429Y-110087170D01*
X179601463Y-110019728D01*
X179578677Y-109968159D01*
X179563518Y-109925785D01*
X179558458Y-109899834D01*
X179559264Y-109896356D01*
X179569959Y-109879936D01*
X179594380Y-109843417D01*
X179629905Y-109790687D01*
X179673913Y-109725635D01*
X179723783Y-109652151D01*
X179733644Y-109637645D01*
X179791508Y-109551704D01*
X179834044Y-109486261D01*
X179862946Y-109438304D01*
X179879910Y-109404820D01*
X179886633Y-109382795D01*
X179884810Y-109369217D01*
X179884764Y-109369131D01*
X179870414Y-109351297D01*
X179838677Y-109316817D01*
X179792990Y-109269268D01*
X179736796Y-109212222D01*
X179673532Y-109149255D01*
X179666398Y-109142227D01*
X179586670Y-109065020D01*
X179525143Y-109008330D01*
X179480579Y-108971110D01*
X179451743Y-108952315D01*
X179439042Y-108949889D01*
X179420506Y-108960471D01*
X179382039Y-108984916D01*
X179327614Y-109020612D01*
X179261202Y-109064947D01*
X179186775Y-109115311D01*
X179169399Y-109127160D01*
X178922703Y-109295626D01*
X178811294Y-109245062D01*
X178743543Y-109215595D01*
X178670817Y-109185959D01*
X178608297Y-109162330D01*
X178605543Y-109161358D01*
X178556640Y-109143457D01*
X178518943Y-109128320D01*
X178500575Y-109119210D01*
X178500544Y-109119184D01*
X178494715Y-109102717D01*
X178484808Y-109062219D01*
X178471805Y-109002242D01*
X178456691Y-108927340D01*
X178440448Y-108842064D01*
X178439119Y-108834875D01*
X178422825Y-108747014D01*
X178407867Y-108667260D01*
X178395209Y-108600681D01*
X178385814Y-108552347D01*
X178380646Y-108527325D01*
X178380556Y-108526943D01*
X178377411Y-108516299D01*
X178371296Y-108508262D01*
X178358547Y-108502467D01*
X178335500Y-108498547D01*
X178298491Y-108496135D01*
X178243856Y-108494865D01*
X178167933Y-108494371D01*
X178067056Y-108494286D01*
X178054000Y-108494286D01*
X177950090Y-108494348D01*
G37*
X177950090Y-108494348D02*
X177871546Y-108494778D01*
X177814702Y-108495942D01*
X177775895Y-108498207D01*
X177751462Y-108501940D01*
X177737738Y-108507506D01*
X177731060Y-108515273D01*
X177727764Y-108525605D01*
X177727444Y-108526943D01*
X177722438Y-108551079D01*
X177713171Y-108598701D01*
X177700608Y-108664741D01*
X177685713Y-108744128D01*
X177669449Y-108831796D01*
X177668881Y-108834875D01*
X177652590Y-108920789D01*
X177637348Y-108996696D01*
X177624139Y-109058045D01*
X177613946Y-109100282D01*
X177607752Y-109118855D01*
X177607457Y-109119184D01*
X177589212Y-109128253D01*
X177551595Y-109143367D01*
X177502729Y-109161262D01*
X177502457Y-109161358D01*
X177440907Y-109184493D01*
X177368343Y-109213965D01*
X177299943Y-109243597D01*
X177296706Y-109245062D01*
X177185298Y-109295626D01*
X176938601Y-109127160D01*
X176862923Y-109075803D01*
X176794369Y-109029889D01*
X176736912Y-108992030D01*
X176694524Y-108964837D01*
X176671175Y-108950921D01*
X176668958Y-108949889D01*
X176651990Y-108954484D01*
X176620299Y-108976655D01*
X176572648Y-109017447D01*
X176507802Y-109077905D01*
X176441603Y-109142227D01*
X176377786Y-109205612D01*
X176320671Y-109263451D01*
X176273695Y-109312175D01*
X176240297Y-109348210D01*
X176223915Y-109367984D01*
X176223306Y-109369002D01*
X176221495Y-109382572D01*
X176228317Y-109404733D01*
X176245460Y-109438478D01*
X176274607Y-109486800D01*
X176317445Y-109552692D01*
X176374552Y-109637517D01*
X176425234Y-109712177D01*
X176470539Y-109779140D01*
X176507850Y-109834516D01*
X176534548Y-109874420D01*
X176548015Y-109894962D01*
X176548863Y-109896356D01*
X176547219Y-109916038D01*
X176534755Y-109954293D01*
X176513952Y-110003889D01*
X176506538Y-110019728D01*
X176474186Y-110090290D01*
X176439672Y-110170353D01*
X176411635Y-110239629D01*
X176391432Y-110291045D01*
X176375385Y-110330119D01*
X176366112Y-110350541D01*
X176364959Y-110352114D01*
X176347904Y-110354721D01*
X176307702Y-110361863D01*
X176249698Y-110372523D01*
X176179237Y-110385685D01*
X176101665Y-110400333D01*
X176022328Y-110415449D01*
X175946569Y-110430018D01*
X175879736Y-110443022D01*
X175827172Y-110453445D01*
X175794224Y-110460270D01*
X175786143Y-110462199D01*
X175777795Y-110466962D01*
X175771494Y-110477718D01*
X175766955Y-110498098D01*
X175763896Y-110531734D01*
X175762033Y-110582255D01*
X175761082Y-110653292D01*
X175760760Y-110748476D01*
X175760743Y-110787492D01*
X175760743Y-111104799D01*
X175836943Y-111119839D01*
X175879337Y-111127995D01*
X175942600Y-111139899D01*
X176019038Y-111154116D01*
X176100957Y-111169210D01*
X176123600Y-111173355D01*
X176199194Y-111188053D01*
X176265047Y-111202505D01*
X176315634Y-111215375D01*
X176345426Y-111225322D01*
X176350388Y-111228287D01*
X176362574Y-111249283D01*
X176380047Y-111289967D01*
X176399423Y-111342322D01*
X176403266Y-111353600D01*
X176428661Y-111423523D01*
X176460183Y-111502418D01*
X176491031Y-111573266D01*
X176491183Y-111573595D01*
X176542553Y-111684733D01*
X176373601Y-111933253D01*
X176204648Y-112181772D01*
X176421571Y-112399058D01*
X176487181Y-112463726D01*
X176547021Y-112520733D01*
X176597733Y-112567033D01*
X176635954Y-112599584D01*
X176658325Y-112615343D01*
X176661534Y-112616343D01*
X176680374Y-112608469D01*
X176718820Y-112586578D01*
X176772670Y-112553267D01*
X176837724Y-112511131D01*
X176908060Y-112463943D01*
X176979445Y-112415810D01*
X177043092Y-112373928D01*
X177094959Y-112340871D01*
X177131005Y-112319218D01*
X177147133Y-112311543D01*
X177166811Y-112318037D01*
X177204125Y-112335150D01*
X177251379Y-112359326D01*
X177256388Y-112362013D01*
X177320023Y-112393927D01*
X177363659Y-112409579D01*
X177390798Y-112409745D01*
X177404943Y-112395204D01*
X177405025Y-112395000D01*
X177412095Y-112377779D01*
X177428958Y-112336899D01*
X177454305Y-112275525D01*
X177486829Y-112196819D01*
X177525222Y-112103947D01*
X177568178Y-112000072D01*
X177609778Y-111899502D01*
X177655496Y-111788516D01*
X177697474Y-111685703D01*
X177734452Y-111594215D01*
X177765173Y-111517201D01*
X177788378Y-111457815D01*
X177802810Y-111419209D01*
X177807257Y-111404800D01*
X177796104Y-111388272D01*
X177766931Y-111361930D01*
X177728029Y-111332887D01*
X177617243Y-111241039D01*
X177530649Y-111135759D01*
X177469284Y-111019266D01*
X177434185Y-110893776D01*
X177426392Y-110761507D01*
X177432057Y-110700457D01*
X177462922Y-110573795D01*
X177516080Y-110461941D01*
X177588233Y-110366001D01*
X177676083Y-110287076D01*
X177776335Y-110226270D01*
X177885690Y-110184687D01*
X178000853Y-110163428D01*
X178118525Y-110163599D01*
X178235410Y-110186301D01*
X178348211Y-110232638D01*
X178453631Y-110303713D01*
X178497632Y-110343911D01*
X178582021Y-110447129D01*
X178640778Y-110559925D01*
X178674296Y-110679010D01*
X178682965Y-110801095D01*
X178667177Y-110922893D01*
X178627322Y-111041116D01*
X178563793Y-111152475D01*
X178476979Y-111253684D01*
X178379971Y-111332887D01*
X178339563Y-111363162D01*
X178311018Y-111389219D01*
X178300743Y-111404825D01*
X178306123Y-111421843D01*
X178321425Y-111462500D01*
X178345388Y-111523642D01*
X178376756Y-111602119D01*
X178414268Y-111694780D01*
X178456667Y-111798472D01*
X178498337Y-111899526D01*
X178544310Y-112010607D01*
X178586893Y-112113541D01*
X178624779Y-112205165D01*
X178656660Y-112282316D01*
X178681229Y-112341831D01*
X178697180Y-112380544D01*
X178703090Y-112395000D01*
X178717052Y-112409685D01*
X178744060Y-112409642D01*
X178787587Y-112394099D01*
X178851110Y-112362284D01*
X178851612Y-112362013D01*
X178899440Y-112337323D01*
X178938103Y-112319338D01*
X178959905Y-112311614D01*
X178960867Y-112311543D01*
X178977279Y-112319378D01*
X179013513Y-112341165D01*
X179065526Y-112374328D01*
X179129275Y-112416291D01*
X179199940Y-112463943D01*
X179271884Y-112512191D01*
X179336726Y-112554151D01*
X179390265Y-112587227D01*
X179428303Y-112608821D01*
X179446467Y-112616343D01*
X179463192Y-112606457D01*
X179496820Y-112578826D01*
X179543990Y-112536495D01*
X179601342Y-112482505D01*
X179665516Y-112419899D01*
X179686503Y-112398983D01*
X179903501Y-112181623D01*
X179738332Y-111939220D01*
X179688136Y-111864781D01*
X179644081Y-111797972D01*
X179608638Y-111742665D01*
X179584281Y-111702729D01*
X179573478Y-111682036D01*
X179573162Y-111680563D01*
X179578857Y-111661058D01*
X179594174Y-111621822D01*
X179616463Y-111569430D01*
X179632107Y-111534355D01*
X179661359Y-111467201D01*
X179688906Y-111399358D01*
X179710263Y-111342034D01*
X179716065Y-111324572D01*
X179732548Y-111277938D01*
X179748660Y-111241905D01*
X179757510Y-111228287D01*
X179777040Y-111219952D01*
X179819666Y-111208137D01*
X179879855Y-111194181D01*
X179952078Y-111179422D01*
X179984400Y-111173355D01*
X180066478Y-111158273D01*
X180145205Y-111143669D01*
X180212891Y-111130980D01*
X180261840Y-111121642D01*
X180271057Y-111119839D01*
X180347257Y-111104799D01*
X180347257Y-110787492D01*
X180347086Y-110683154D01*
X180346384Y-110604213D01*
X180344866Y-110547038D01*
X180342251Y-110507999D01*
X180338254Y-110483465D01*
X180332591Y-110469805D01*
X180324980Y-110463389D01*
X180321857Y-110462199D01*
X180303022Y-110457980D01*
X180261412Y-110449562D01*
X180202370Y-110437961D01*
X180131243Y-110424195D01*
X180053375Y-110409280D01*
X179974113Y-110394232D01*
X179898802Y-110380069D01*
X179832787Y-110367806D01*
X179781413Y-110358461D01*
X179750025Y-110353050D01*
X179743041Y-110352114D01*
X179736715Y-110339596D01*
X179722710Y-110306246D01*
X179703645Y-110258377D01*
X179696366Y-110239629D01*
X179667004Y-110167195D01*
X179632429Y-110087170D01*
X179601463Y-110019728D01*
X179578677Y-109968159D01*
X179563518Y-109925785D01*
X179558458Y-109899834D01*
X179559264Y-109896356D01*
X179569959Y-109879936D01*
X179594380Y-109843417D01*
X179629905Y-109790687D01*
X179673913Y-109725635D01*
X179723783Y-109652151D01*
X179733644Y-109637645D01*
X179791508Y-109551704D01*
X179834044Y-109486261D01*
X179862946Y-109438304D01*
X179879910Y-109404820D01*
X179886633Y-109382795D01*
X179884810Y-109369217D01*
X179884764Y-109369131D01*
X179870414Y-109351297D01*
X179838677Y-109316817D01*
X179792990Y-109269268D01*
X179736796Y-109212222D01*
X179673532Y-109149255D01*
X179666398Y-109142227D01*
X179586670Y-109065020D01*
X179525143Y-109008330D01*
X179480579Y-108971110D01*
X179451743Y-108952315D01*
X179439042Y-108949889D01*
X179420506Y-108960471D01*
X179382039Y-108984916D01*
X179327614Y-109020612D01*
X179261202Y-109064947D01*
X179186775Y-109115311D01*
X179169399Y-109127160D01*
X178922703Y-109295626D01*
X178811294Y-109245062D01*
X178743543Y-109215595D01*
X178670817Y-109185959D01*
X178608297Y-109162330D01*
X178605543Y-109161358D01*
X178556640Y-109143457D01*
X178518943Y-109128320D01*
X178500575Y-109119210D01*
X178500544Y-109119184D01*
X178494715Y-109102717D01*
X178484808Y-109062219D01*
X178471805Y-109002242D01*
X178456691Y-108927340D01*
X178440448Y-108842064D01*
X178439119Y-108834875D01*
X178422825Y-108747014D01*
X178407867Y-108667260D01*
X178395209Y-108600681D01*
X178385814Y-108552347D01*
X178380646Y-108527325D01*
X178380556Y-108526943D01*
X178377411Y-108516299D01*
X178371296Y-108508262D01*
X178358547Y-108502467D01*
X178335500Y-108498547D01*
X178298491Y-108496135D01*
X178243856Y-108494865D01*
X178167933Y-108494371D01*
X178067056Y-108494286D01*
X178054000Y-108494286D01*
X177950090Y-108494348D01*
%TD*%
M02*
